%TF.GenerationSoftware,KiCad,Pcbnew,9.0.1*%
%TF.CreationDate,2025-04-22T23:28:07+02:00*%
%TF.ProjectId,micro-lse_1,6d696372-6f2d-46c7-9365-5f312e6b6963,0*%
%TF.SameCoordinates,Original*%
%TF.FileFunction,Soldermask,Top*%
%TF.FilePolarity,Negative*%
%FSLAX46Y46*%
G04 Gerber Fmt 4.6, Leading zero omitted, Abs format (unit mm)*
G04 Created by KiCad (PCBNEW 9.0.1) date 2025-04-22 23:28:07*
%MOMM*%
%LPD*%
G01*
G04 APERTURE LIST*
G04 Aperture macros list*
%AMRotRect*
0 Rectangle, with rotation*
0 The origin of the aperture is its center*
0 $1 length*
0 $2 width*
0 $3 Rotation angle, in degrees counterclockwise*
0 Add horizontal line*
21,1,$1,$2,0,0,$3*%
G04 Aperture macros list end*
%ADD10C,2.000000*%
%ADD11RotRect,1.700000X1.700000X315.000000*%
%ADD12C,1.700000*%
%ADD13R,1.600000X1.600000*%
%ADD14O,1.600000X1.600000*%
%ADD15C,3.000000*%
%ADD16C,1.600000*%
%ADD17RotRect,1.800000X1.800000X45.000000*%
%ADD18C,1.800000*%
%ADD19RotRect,1.700000X1.700000X45.000000*%
%ADD20C,2.004000*%
%ADD21RotRect,1.800000X1.800000X315.000000*%
%ADD22R,2.000000X2.000000*%
%ADD23C,1.200000*%
%ADD24O,2.820000X1.512000*%
%ADD25O,1.512000X2.820000*%
G04 APERTURE END LIST*
D10*
%TO.C,BTN1*%
X45250000Y-76999999D03*
X45250001Y-83500000D03*
X40750000Y-77000000D03*
X40750000Y-83500000D03*
%TD*%
D11*
%TO.C,J1*%
X46500051Y-53321949D03*
D12*
X44704000Y-55118000D03*
X42907949Y-56914051D03*
%TD*%
D11*
%TO.C,J3*%
X57797561Y-66189794D03*
D12*
X56001510Y-67985845D03*
%TD*%
D13*
%TO.C,A1*%
X49000000Y-54440000D03*
D14*
X49000000Y-56980000D03*
X49000000Y-59520000D03*
X49000000Y-62060000D03*
X49000000Y-64600000D03*
X49000000Y-67140000D03*
X49000000Y-69680000D03*
X49000000Y-72220000D03*
X49000000Y-74760000D03*
X49000000Y-77300000D03*
X49000000Y-79840000D03*
X49000000Y-82380000D03*
X49000000Y-84920000D03*
X49000000Y-87460000D03*
X49000000Y-90000000D03*
X64240000Y-90000000D03*
X64240000Y-87460000D03*
X64240000Y-84920000D03*
X64240000Y-82380000D03*
X64240000Y-79840000D03*
X64240000Y-77300000D03*
X64240000Y-74760000D03*
X64240000Y-72220000D03*
X64240000Y-69680000D03*
X64240000Y-67140000D03*
X64240000Y-64600000D03*
X64240000Y-62060000D03*
X64240000Y-59520000D03*
X64240000Y-56980000D03*
X64240000Y-54440000D03*
%TD*%
D15*
%TO.C,H4*%
X76750000Y-77000000D03*
%TD*%
D10*
%TO.C,BTN2*%
X67500000Y-83500000D03*
X67500000Y-77000000D03*
X72000001Y-83500000D03*
X72000000Y-76999999D03*
%TD*%
D16*
%TO.C,R4*%
X39250000Y-60130000D03*
D14*
X39250000Y-67750000D03*
%TD*%
D17*
%TO.C,D1*%
X39458974Y-53791026D03*
D18*
X40985618Y-52264382D03*
X42512261Y-50737739D03*
X44038905Y-49211095D03*
%TD*%
D16*
%TO.C,R3*%
X60500000Y-64380000D03*
D14*
X60500000Y-72000000D03*
%TD*%
D16*
%TO.C,R1*%
X74500000Y-59630000D03*
D14*
X74500000Y-67250000D03*
%TD*%
D16*
%TO.C,R3*%
X67310000Y-59944000D03*
D14*
X67310000Y-67564000D03*
%TD*%
D19*
%TO.C,J4*%
X72390000Y-46990000D03*
D12*
X74186051Y-48786051D03*
X75982102Y-50582102D03*
%TD*%
D20*
%TO.C,RV2*%
X80000000Y-69750000D03*
X80000000Y-64750000D03*
X80000000Y-59750000D03*
%TD*%
D15*
%TO.C,H3*%
X67000000Y-43979822D03*
%TD*%
D21*
%TO.C,D2*%
X68973356Y-49208974D03*
D18*
X70500000Y-50735618D03*
X72026643Y-52262261D03*
X73553287Y-53788905D03*
%TD*%
D22*
%TO.C,PIEZO1*%
X58928000Y-57404000D03*
D10*
X53928000Y-57404000D03*
%TD*%
D20*
%TO.C,RV1*%
X33000000Y-69750000D03*
X33000000Y-64750000D03*
X33000000Y-59750000D03*
%TD*%
D15*
%TO.C,H2*%
X46000000Y-44000000D03*
%TD*%
D16*
%TO.C,R5*%
X43242742Y-66500000D03*
X43242742Y-63500000D03*
%TD*%
D15*
%TO.C,H1*%
X36000037Y-77027847D03*
%TD*%
D16*
%TO.C,R2*%
X70612000Y-63500000D03*
X70612000Y-66500000D03*
%TD*%
D23*
%TO.C,J2*%
X61519250Y-42337500D03*
X61519250Y-39837500D03*
X56519250Y-47337500D03*
X51519250Y-42337500D03*
X51519250Y-39837500D03*
D24*
X56519250Y-42337500D03*
D25*
X51519250Y-47337500D03*
X61519250Y-47337500D03*
X54019250Y-47337500D03*
X59019250Y-47337500D03*
%TD*%
D22*
%TO.C,LS1*%
X57000000Y-60800000D03*
D10*
X57000000Y-53200000D03*
%TD*%
M02*
