%TF.GenerationSoftware,KiCad,Pcbnew,9.0.1*%
%TF.CreationDate,2025-04-22T23:28:06+02:00*%
%TF.ProjectId,micro-lse_1,6d696372-6f2d-46c7-9365-5f312e6b6963,0*%
%TF.SameCoordinates,Original*%
%TF.FileFunction,Copper,L2,Bot*%
%TF.FilePolarity,Positive*%
%FSLAX46Y46*%
G04 Gerber Fmt 4.6, Leading zero omitted, Abs format (unit mm)*
G04 Created by KiCad (PCBNEW 9.0.1) date 2025-04-22 23:28:06*
%MOMM*%
%LPD*%
G01*
G04 APERTURE LIST*
G04 Aperture macros list*
%AMRotRect*
0 Rectangle, with rotation*
0 The origin of the aperture is its center*
0 $1 length*
0 $2 width*
0 $3 Rotation angle, in degrees counterclockwise*
0 Add horizontal line*
21,1,$1,$2,0,0,$3*%
G04 Aperture macros list end*
%TA.AperFunction,ComponentPad*%
%ADD10C,2.000000*%
%TD*%
%TA.AperFunction,ComponentPad*%
%ADD11RotRect,1.700000X1.700000X315.000000*%
%TD*%
%TA.AperFunction,ComponentPad*%
%ADD12C,1.700000*%
%TD*%
%TA.AperFunction,ComponentPad*%
%ADD13R,1.600000X1.600000*%
%TD*%
%TA.AperFunction,ComponentPad*%
%ADD14O,1.600000X1.600000*%
%TD*%
%TA.AperFunction,ComponentPad*%
%ADD15C,1.600000*%
%TD*%
%TA.AperFunction,ComponentPad*%
%ADD16RotRect,1.800000X1.800000X45.000000*%
%TD*%
%TA.AperFunction,ComponentPad*%
%ADD17C,1.800000*%
%TD*%
%TA.AperFunction,ComponentPad*%
%ADD18RotRect,1.700000X1.700000X45.000000*%
%TD*%
%TA.AperFunction,ComponentPad*%
%ADD19RotRect,1.800000X1.800000X315.000000*%
%TD*%
%TA.AperFunction,ComponentPad*%
%ADD20R,2.000000X2.000000*%
%TD*%
%TA.AperFunction,ComponentPad*%
%ADD21O,2.616000X1.308000*%
%TD*%
%TA.AperFunction,ComponentPad*%
%ADD22O,1.308000X2.616000*%
%TD*%
%TA.AperFunction,Conductor*%
%ADD23C,0.250000*%
%TD*%
%TA.AperFunction,Conductor*%
%ADD24C,0.300000*%
%TD*%
G04 APERTURE END LIST*
D10*
%TO.P,BTN1,2,2*%
%TO.N,GND*%
X45250000Y-76999999D03*
X45250001Y-83500000D03*
%TO.P,BTN1,1,1*%
%TO.N,/BTN1*%
X40750000Y-77000000D03*
X40750000Y-83500000D03*
%TD*%
D11*
%TO.P,J1,1,Pin_1*%
%TO.N,VCC*%
X46500051Y-53321949D03*
D12*
%TO.P,J1,2,Pin_2*%
%TO.N,/NEOPIX1*%
X44704000Y-55118000D03*
%TO.P,J1,3,Pin_3*%
%TO.N,GND*%
X42907949Y-56914051D03*
%TD*%
D11*
%TO.P,J3,1,Pin_1*%
%TO.N,/PIEZO*%
X57797561Y-66189794D03*
D12*
%TO.P,J3,2,Pin_2*%
%TO.N,GND*%
X56001510Y-67985845D03*
%TD*%
D13*
%TO.P,A1,1,D1/TX*%
%TO.N,unconnected-(A1-D1{slash}TX-Pad1)*%
X49000000Y-54440000D03*
D14*
%TO.P,A1,2,D0/RX*%
%TO.N,unconnected-(A1-D0{slash}RX-Pad2)*%
X49000000Y-56980000D03*
%TO.P,A1,3,~{RESET}*%
%TO.N,unconnected-(A1-~{RESET}-Pad3)*%
X49000000Y-59520000D03*
%TO.P,A1,4,GND*%
%TO.N,GND*%
X49000000Y-62060000D03*
%TO.P,A1,5,D2*%
%TO.N,/BTN1*%
X49000000Y-64600000D03*
%TO.P,A1,6,D3*%
%TO.N,/BTN2*%
X49000000Y-67140000D03*
%TO.P,A1,7,D4*%
%TO.N,unconnected-(A1-D4-Pad7)*%
X49000000Y-69680000D03*
%TO.P,A1,8,D5*%
%TO.N,unconnected-(A1-D5-Pad8)*%
X49000000Y-72220000D03*
%TO.P,A1,9,D6*%
%TO.N,/NEOPIX1*%
X49000000Y-74760000D03*
%TO.P,A1,10,D7*%
%TO.N,/NEOPIX2*%
X49000000Y-77300000D03*
%TO.P,A1,11,D8*%
%TO.N,unconnected-(A1-D8-Pad11)*%
X49000000Y-79840000D03*
%TO.P,A1,12,D9*%
%TO.N,/audio_out*%
X49000000Y-82380000D03*
%TO.P,A1,13,D10*%
%TO.N,unconnected-(A1-D10-Pad13)*%
X49000000Y-84920000D03*
%TO.P,A1,14,D11*%
%TO.N,unconnected-(A1-D11-Pad14)*%
X49000000Y-87460000D03*
%TO.P,A1,15,D12*%
%TO.N,unconnected-(A1-D12-Pad15)*%
X49000000Y-90000000D03*
%TO.P,A1,16,D13*%
%TO.N,unconnected-(A1-D13-Pad16)*%
X64240000Y-90000000D03*
%TO.P,A1,17,3V3*%
%TO.N,unconnected-(A1-3V3-Pad17)*%
X64240000Y-87460000D03*
%TO.P,A1,18,AREF*%
%TO.N,unconnected-(A1-AREF-Pad18)*%
X64240000Y-84920000D03*
%TO.P,A1,19,A0*%
%TO.N,/POT1*%
X64240000Y-82380000D03*
%TO.P,A1,20,A1*%
%TO.N,/POT2*%
X64240000Y-79840000D03*
%TO.P,A1,21,A2*%
%TO.N,/LDR1*%
X64240000Y-77300000D03*
%TO.P,A1,22,A3*%
%TO.N,/LDR2*%
X64240000Y-74760000D03*
%TO.P,A1,23,A4*%
%TO.N,/PIEZO*%
X64240000Y-72220000D03*
%TO.P,A1,24,A5*%
%TO.N,unconnected-(A1-A5-Pad24)*%
X64240000Y-69680000D03*
%TO.P,A1,25,A6*%
%TO.N,unconnected-(A1-A6-Pad25)*%
X64240000Y-67140000D03*
%TO.P,A1,26,A7*%
%TO.N,unconnected-(A1-A7-Pad26)*%
X64240000Y-64600000D03*
%TO.P,A1,27,+5V*%
%TO.N,VCC*%
X64240000Y-62060000D03*
%TO.P,A1,28,~{RESET}*%
%TO.N,unconnected-(A1-~{RESET}-Pad28)*%
X64240000Y-59520000D03*
%TO.P,A1,29,GND*%
%TO.N,GND*%
X64240000Y-56980000D03*
%TO.P,A1,30,VIN*%
%TO.N,unconnected-(A1-VIN-Pad30)*%
X64240000Y-54440000D03*
%TD*%
D10*
%TO.P,BTN2,1,1*%
%TO.N,/BTN2*%
X67500000Y-83500000D03*
X67500000Y-77000000D03*
%TO.P,BTN2,2,2*%
%TO.N,GND*%
X72000001Y-83500000D03*
X72000000Y-76999999D03*
%TD*%
D15*
%TO.P,R4,1*%
%TO.N,VCC*%
X39250000Y-60130000D03*
D14*
%TO.P,R4,2*%
%TO.N,/LDR2*%
X39250000Y-67750000D03*
%TD*%
D16*
%TO.P,D1,1,DOUT*%
%TO.N,unconnected-(D1-DOUT-Pad1)*%
X39458974Y-53791026D03*
D17*
%TO.P,D1,2,GND*%
%TO.N,GND*%
X40985618Y-52264382D03*
%TO.P,D1,3,VDD*%
%TO.N,VCC*%
X42512261Y-50737739D03*
%TO.P,D1,4,DIN*%
%TO.N,/NEOPIX1*%
X44038905Y-49211095D03*
%TD*%
D15*
%TO.P,R3,1*%
%TO.N,GND*%
X60500000Y-64380000D03*
D14*
%TO.P,R3,2*%
%TO.N,/PIEZO*%
X60500000Y-72000000D03*
%TD*%
D15*
%TO.P,R1,1*%
%TO.N,VCC*%
X74500000Y-59630000D03*
D14*
%TO.P,R1,2*%
%TO.N,/LDR1*%
X74500000Y-67250000D03*
%TD*%
D15*
%TO.P,R3,1*%
%TO.N,GND*%
X67310000Y-59944000D03*
D14*
%TO.P,R3,2*%
%TO.N,/PIEZO*%
X67310000Y-67564000D03*
%TD*%
D18*
%TO.P,J4,1,Pin_1*%
%TO.N,VCC*%
X72390000Y-46990000D03*
D12*
%TO.P,J4,2,Pin_2*%
%TO.N,/NEOPIX2*%
X74186051Y-48786051D03*
%TO.P,J4,3,Pin_3*%
%TO.N,GND*%
X75982102Y-50582102D03*
%TD*%
D17*
%TO.P,RV2,1,1*%
%TO.N,GND*%
X80000000Y-69750000D03*
%TO.P,RV2,2,2*%
%TO.N,/POT2*%
X80000000Y-64750000D03*
%TO.P,RV2,3,3*%
%TO.N,VCC*%
X80000000Y-59750000D03*
%TD*%
D19*
%TO.P,D2,1,DOUT*%
%TO.N,unconnected-(D2-DOUT-Pad1)*%
X68973356Y-49208974D03*
D17*
%TO.P,D2,2,GND*%
%TO.N,GND*%
X70500000Y-50735618D03*
%TO.P,D2,3,VDD*%
%TO.N,VCC*%
X72026643Y-52262261D03*
%TO.P,D2,4,DIN*%
%TO.N,/NEOPIX2*%
X73553287Y-53788905D03*
%TD*%
D20*
%TO.P,PIEZO1,1,+*%
%TO.N,/PIEZO*%
X58928000Y-57404000D03*
D10*
%TO.P,PIEZO1,2,-*%
%TO.N,GND*%
X53928000Y-57404000D03*
%TD*%
D17*
%TO.P,RV1,1,1*%
%TO.N,GND*%
X33000000Y-69750000D03*
%TO.P,RV1,2,2*%
%TO.N,/POT1*%
X33000000Y-64750000D03*
%TO.P,RV1,3,3*%
%TO.N,VCC*%
X33000000Y-59750000D03*
%TD*%
D15*
%TO.P,R5,1*%
%TO.N,/LDR2*%
X43242742Y-66500000D03*
%TO.P,R5,2*%
%TO.N,GND*%
X43242742Y-63500000D03*
%TD*%
%TO.P,R2,1*%
%TO.N,/LDR1*%
X70612000Y-63500000D03*
%TO.P,R2,2*%
%TO.N,GND*%
X70612000Y-66500000D03*
%TD*%
D21*
%TO.P,J2,1*%
%TO.N,GND*%
X56519250Y-42337500D03*
D22*
%TO.P,J2,2*%
%TO.N,/audio_out*%
X51519250Y-47337500D03*
%TO.P,J2,3*%
%TO.N,unconnected-(J2-Pad3)*%
X61519250Y-47337500D03*
%TO.P,J2,10*%
%TO.N,unconnected-(J2-Pad10)*%
X54019250Y-47337500D03*
%TO.P,J2,11*%
%TO.N,unconnected-(J2-Pad11)*%
X59019250Y-47337500D03*
%TD*%
D20*
%TO.P,LS1,1,1*%
%TO.N,/audio_out*%
X57000000Y-60800000D03*
D10*
%TO.P,LS1,2,2*%
%TO.N,GND*%
X57000000Y-53200000D03*
%TD*%
D23*
%TO.N,/BTN2*%
X67500000Y-77000000D02*
X67400000Y-76900000D01*
D24*
%TO.N,/BTN1*%
X40750000Y-76500000D02*
X40750000Y-76809600D01*
D23*
X40750000Y-77000000D02*
X40750000Y-76809600D01*
D24*
X40750000Y-76809600D02*
X40750000Y-82753200D01*
D23*
X40750000Y-83500000D02*
X40750000Y-82753200D01*
D24*
X40750000Y-82753200D02*
X40750000Y-83000000D01*
%TO.N,/LDR1*%
X64240000Y-77300000D02*
X66240000Y-79300000D01*
X66240000Y-79300000D02*
X73400000Y-79300000D01*
X73400000Y-79300000D02*
X74400000Y-78300000D01*
X74400000Y-78300000D02*
X74400000Y-75600000D01*
X74400000Y-75600000D02*
X74500000Y-75500000D01*
X74500000Y-75500000D02*
X74500000Y-67250000D01*
%TO.N,/NEOPIX1*%
X49000000Y-74760000D02*
X46340000Y-72100000D01*
X46340000Y-72100000D02*
X46300000Y-72100000D01*
X46300000Y-72100000D02*
X46300000Y-60000000D01*
X46300000Y-60000000D02*
X44700000Y-58400000D01*
X44700000Y-58400000D02*
X44704000Y-58396000D01*
X44704000Y-58396000D02*
X44704000Y-55118000D01*
%TO.N,/NEOPIX2*%
X49000000Y-77300000D02*
X48300000Y-77300000D01*
X62750000Y-44500000D02*
X63246000Y-48260000D01*
X48300000Y-77300000D02*
X47250000Y-76250000D01*
X48006000Y-48006000D02*
X50546000Y-44450000D01*
X47250000Y-76250000D02*
X47250000Y-75250000D01*
X63246000Y-48260000D02*
X64516000Y-50292000D01*
X34798000Y-52578000D02*
X41656000Y-45720000D01*
X41500000Y-69500000D02*
X41500000Y-66750000D01*
X41656000Y-45720000D02*
X48006000Y-48006000D01*
X41500000Y-66750000D02*
X36250000Y-61500000D01*
X50546000Y-44450000D02*
X50750000Y-44500000D01*
X36250000Y-61500000D02*
X34798000Y-52578000D01*
X47250000Y-75250000D02*
X41500000Y-69500000D01*
X50750000Y-44500000D02*
X62750000Y-44500000D01*
X64516000Y-50292000D02*
X71628000Y-54356000D01*
X71628000Y-54356000D02*
X73553287Y-53788905D01*
%TO.N,/NEOPIX1*%
X44038905Y-54452905D02*
X44704000Y-55118000D01*
X44038905Y-49211095D02*
X44038905Y-54452905D01*
%TO.N,/POT1*%
X43000000Y-74750000D02*
X43000000Y-84250000D01*
X57870000Y-88750000D02*
X64240000Y-82380000D01*
X43000000Y-84250000D02*
X47500000Y-88750000D01*
X47500000Y-88750000D02*
X57870000Y-88750000D01*
X33000000Y-64750000D02*
X43000000Y-74750000D01*
%TO.N,/NEOPIX2*%
X74186051Y-53156141D02*
X73553287Y-53788905D01*
X74186051Y-48786051D02*
X74186051Y-53156141D01*
%TO.N,/audio_out*%
X51519250Y-55480750D02*
X51500000Y-55500000D01*
X57000000Y-60800000D02*
X56800000Y-60800000D01*
X51816000Y-68834000D02*
X54000000Y-63800000D01*
X51519250Y-55480750D02*
X51519250Y-47337500D01*
X51500000Y-55500000D02*
X51500000Y-61300000D01*
X54000000Y-63800000D02*
X57000000Y-60800000D01*
X49000000Y-82380000D02*
X51870000Y-82380000D01*
X51500000Y-61300000D02*
X54000000Y-63800000D01*
X51870000Y-82380000D02*
X51816000Y-68834000D01*
%TD*%
%TA.AperFunction,Conductor*%
%TO.N,GND*%
G36*
X50747518Y-39054445D02*
G01*
X50793273Y-39107249D01*
X50803217Y-39176407D01*
X50783581Y-39227651D01*
X50676931Y-39387262D01*
X50676926Y-39387271D01*
X50605277Y-39560248D01*
X50605275Y-39560256D01*
X50568750Y-39743879D01*
X50568750Y-39931120D01*
X50605275Y-40114743D01*
X50605277Y-40114751D01*
X50676926Y-40287728D01*
X50676931Y-40287737D01*
X50780947Y-40443407D01*
X50780950Y-40443411D01*
X50913338Y-40575799D01*
X50913342Y-40575802D01*
X51069012Y-40679818D01*
X51069018Y-40679821D01*
X51069019Y-40679822D01*
X51241999Y-40751473D01*
X51425629Y-40787999D01*
X51425633Y-40788000D01*
X51425634Y-40788000D01*
X51612867Y-40788000D01*
X51612868Y-40787999D01*
X51796501Y-40751473D01*
X51969481Y-40679822D01*
X52125158Y-40575802D01*
X52257552Y-40443408D01*
X52361572Y-40287731D01*
X52433223Y-40114751D01*
X52469750Y-39931116D01*
X52469750Y-39743884D01*
X52433223Y-39560249D01*
X52361572Y-39387269D01*
X52361571Y-39387268D01*
X52361568Y-39387262D01*
X52254919Y-39227651D01*
X52234041Y-39160973D01*
X52252525Y-39093593D01*
X52304504Y-39046903D01*
X52358021Y-39034760D01*
X60680479Y-39034760D01*
X60747518Y-39054445D01*
X60793273Y-39107249D01*
X60803217Y-39176407D01*
X60783581Y-39227651D01*
X60676931Y-39387262D01*
X60676926Y-39387271D01*
X60605277Y-39560248D01*
X60605275Y-39560256D01*
X60568750Y-39743879D01*
X60568750Y-39931120D01*
X60605275Y-40114743D01*
X60605277Y-40114751D01*
X60676926Y-40287728D01*
X60676931Y-40287737D01*
X60780947Y-40443407D01*
X60780950Y-40443411D01*
X60913338Y-40575799D01*
X60913342Y-40575802D01*
X61069012Y-40679818D01*
X61069018Y-40679821D01*
X61069019Y-40679822D01*
X61241999Y-40751473D01*
X61425629Y-40787999D01*
X61425633Y-40788000D01*
X61425634Y-40788000D01*
X61612867Y-40788000D01*
X61612868Y-40787999D01*
X61796501Y-40751473D01*
X61969481Y-40679822D01*
X62125158Y-40575802D01*
X62257552Y-40443408D01*
X62361572Y-40287731D01*
X62433223Y-40114751D01*
X62469750Y-39931116D01*
X62469750Y-39743884D01*
X62433223Y-39560249D01*
X62361572Y-39387269D01*
X62361571Y-39387268D01*
X62361568Y-39387262D01*
X62254919Y-39227651D01*
X62234041Y-39160973D01*
X62252525Y-39093593D01*
X62304504Y-39046903D01*
X62358021Y-39034760D01*
X64118791Y-39034760D01*
X66983398Y-39034760D01*
X67050437Y-39054445D01*
X67071079Y-39071079D01*
X81963681Y-53963681D01*
X81997166Y-54025004D01*
X82000000Y-54051362D01*
X82000000Y-75948638D01*
X81980315Y-76015677D01*
X81963681Y-76036319D01*
X67036319Y-90963681D01*
X66974996Y-90997166D01*
X66948638Y-91000000D01*
X65364328Y-91000000D01*
X65297289Y-90980315D01*
X65251534Y-90927511D01*
X65241590Y-90858353D01*
X65264010Y-90803115D01*
X65308397Y-90742019D01*
X65352287Y-90681610D01*
X65445220Y-90499219D01*
X65508477Y-90304534D01*
X65540500Y-90102352D01*
X65540500Y-89897648D01*
X65508477Y-89695466D01*
X65445220Y-89500781D01*
X65445218Y-89500778D01*
X65445218Y-89500776D01*
X65381387Y-89375502D01*
X65352287Y-89318390D01*
X65306434Y-89255278D01*
X65231971Y-89152786D01*
X65087213Y-89008028D01*
X64921614Y-88887715D01*
X64915006Y-88884348D01*
X64828917Y-88840483D01*
X64778123Y-88792511D01*
X64761328Y-88724690D01*
X64783865Y-88658555D01*
X64828917Y-88619516D01*
X64921610Y-88572287D01*
X64942770Y-88556913D01*
X65087213Y-88451971D01*
X65087215Y-88451968D01*
X65087219Y-88451966D01*
X65231966Y-88307219D01*
X65231968Y-88307215D01*
X65231971Y-88307213D01*
X65284732Y-88234590D01*
X65352287Y-88141610D01*
X65445220Y-87959219D01*
X65508477Y-87764534D01*
X65540500Y-87562352D01*
X65540500Y-87357648D01*
X65508477Y-87155466D01*
X65445220Y-86960781D01*
X65445218Y-86960778D01*
X65445218Y-86960776D01*
X65411503Y-86894607D01*
X65352287Y-86778390D01*
X65344556Y-86767749D01*
X65231971Y-86612786D01*
X65087213Y-86468028D01*
X64921614Y-86347715D01*
X64915006Y-86344348D01*
X64828917Y-86300483D01*
X64778123Y-86252511D01*
X64761328Y-86184690D01*
X64783865Y-86118555D01*
X64828917Y-86079516D01*
X64921610Y-86032287D01*
X64942770Y-86016913D01*
X65087213Y-85911971D01*
X65087215Y-85911968D01*
X65087219Y-85911966D01*
X65231966Y-85767219D01*
X65231968Y-85767215D01*
X65231971Y-85767213D01*
X65284732Y-85694590D01*
X65352287Y-85601610D01*
X65445220Y-85419219D01*
X65508477Y-85224534D01*
X65540500Y-85022352D01*
X65540500Y-84817648D01*
X65508477Y-84615466D01*
X65489846Y-84558127D01*
X65451381Y-84439744D01*
X65445220Y-84420781D01*
X65445218Y-84420778D01*
X65445218Y-84420776D01*
X65376634Y-84286174D01*
X65352287Y-84238390D01*
X65311635Y-84182437D01*
X65231971Y-84072786D01*
X65087213Y-83928028D01*
X64921614Y-83807715D01*
X64915006Y-83804348D01*
X64828917Y-83760483D01*
X64778123Y-83712511D01*
X64761328Y-83644690D01*
X64783865Y-83578555D01*
X64828917Y-83539516D01*
X64921610Y-83492287D01*
X64942770Y-83476913D01*
X65073544Y-83381902D01*
X65999500Y-83381902D01*
X65999500Y-83618097D01*
X66036446Y-83851368D01*
X66109433Y-84075996D01*
X66163668Y-84182437D01*
X66216657Y-84286433D01*
X66355483Y-84477510D01*
X66522490Y-84644517D01*
X66713567Y-84783343D01*
X66796299Y-84825497D01*
X66924003Y-84890566D01*
X66924005Y-84890566D01*
X66924008Y-84890568D01*
X66995364Y-84913753D01*
X67148631Y-84963553D01*
X67381903Y-85000500D01*
X67381908Y-85000500D01*
X67618097Y-85000500D01*
X67851368Y-84963553D01*
X67947194Y-84932417D01*
X68075992Y-84890568D01*
X68286433Y-84783343D01*
X68477510Y-84644517D01*
X68644517Y-84477510D01*
X68783343Y-84286433D01*
X68890568Y-84075992D01*
X68963553Y-83851368D01*
X68970467Y-83807713D01*
X69000500Y-83618097D01*
X69000500Y-83381947D01*
X70500001Y-83381947D01*
X70500001Y-83618052D01*
X70536935Y-83851247D01*
X70609898Y-84075802D01*
X70717088Y-84286174D01*
X70777339Y-84369104D01*
X70777341Y-84369105D01*
X71476213Y-83670233D01*
X71487483Y-83712292D01*
X71559891Y-83837708D01*
X71662293Y-83940110D01*
X71787709Y-84012518D01*
X71829766Y-84023787D01*
X71130894Y-84722658D01*
X71213829Y-84782914D01*
X71424198Y-84890102D01*
X71648753Y-84963065D01*
X71648752Y-84963065D01*
X71881949Y-85000000D01*
X72118053Y-85000000D01*
X72351248Y-84963065D01*
X72575803Y-84890102D01*
X72786164Y-84782918D01*
X72786170Y-84782914D01*
X72869105Y-84722658D01*
X72869106Y-84722658D01*
X72170234Y-84023787D01*
X72212293Y-84012518D01*
X72337709Y-83940110D01*
X72440111Y-83837708D01*
X72512519Y-83712292D01*
X72523788Y-83670234D01*
X73222659Y-84369105D01*
X73222659Y-84369104D01*
X73282915Y-84286169D01*
X73282919Y-84286163D01*
X73390103Y-84075802D01*
X73463066Y-83851247D01*
X73500001Y-83618052D01*
X73500001Y-83381947D01*
X73463066Y-83148752D01*
X73390103Y-82924197D01*
X73282915Y-82713828D01*
X73222659Y-82630894D01*
X73222659Y-82630893D01*
X72523788Y-83329765D01*
X72512519Y-83287708D01*
X72440111Y-83162292D01*
X72337709Y-83059890D01*
X72212293Y-82987482D01*
X72170235Y-82976212D01*
X72869106Y-82277340D01*
X72869105Y-82277338D01*
X72786175Y-82217087D01*
X72575803Y-82109897D01*
X72351248Y-82036934D01*
X72351249Y-82036934D01*
X72118053Y-82000000D01*
X71881949Y-82000000D01*
X71648753Y-82036934D01*
X71424198Y-82109897D01*
X71213831Y-82217084D01*
X71130895Y-82277340D01*
X71829767Y-82976212D01*
X71787709Y-82987482D01*
X71662293Y-83059890D01*
X71559891Y-83162292D01*
X71487483Y-83287708D01*
X71476213Y-83329766D01*
X70777341Y-82630894D01*
X70717085Y-82713830D01*
X70609898Y-82924197D01*
X70536935Y-83148752D01*
X70500001Y-83381947D01*
X69000500Y-83381947D01*
X69000500Y-83381902D01*
X68963553Y-83148631D01*
X68925169Y-83030500D01*
X68890568Y-82924008D01*
X68890566Y-82924005D01*
X68890566Y-82924003D01*
X68834002Y-82812991D01*
X68783343Y-82713567D01*
X68644517Y-82522490D01*
X68477510Y-82355483D01*
X68286433Y-82216657D01*
X68286429Y-82216655D01*
X68075996Y-82109433D01*
X67851368Y-82036446D01*
X67618097Y-81999500D01*
X67618092Y-81999500D01*
X67381908Y-81999500D01*
X67381903Y-81999500D01*
X67148631Y-82036446D01*
X66924003Y-82109433D01*
X66713566Y-82216657D01*
X66630047Y-82277338D01*
X66522490Y-82355483D01*
X66522488Y-82355485D01*
X66522487Y-82355485D01*
X66355485Y-82522487D01*
X66355485Y-82522488D01*
X66355483Y-82522490D01*
X66322085Y-82568458D01*
X66216657Y-82713566D01*
X66109433Y-82924003D01*
X66036446Y-83148631D01*
X65999500Y-83381902D01*
X65073544Y-83381902D01*
X65087213Y-83371971D01*
X65087215Y-83371968D01*
X65087219Y-83371966D01*
X65231966Y-83227219D01*
X65231968Y-83227215D01*
X65231971Y-83227213D01*
X65289063Y-83148631D01*
X65352287Y-83061610D01*
X65445220Y-82879219D01*
X65508477Y-82684534D01*
X65540500Y-82482352D01*
X65540500Y-82277648D01*
X65517735Y-82133916D01*
X65508477Y-82075465D01*
X65445218Y-81880776D01*
X65368138Y-81729500D01*
X65352287Y-81698390D01*
X65333203Y-81672123D01*
X65231971Y-81532786D01*
X65087213Y-81388028D01*
X64921614Y-81267715D01*
X64915006Y-81264348D01*
X64828917Y-81220483D01*
X64778123Y-81172511D01*
X64761328Y-81104690D01*
X64783865Y-81038555D01*
X64828917Y-80999516D01*
X64921610Y-80952287D01*
X64942770Y-80936913D01*
X65087213Y-80831971D01*
X65087215Y-80831968D01*
X65087219Y-80831966D01*
X65231966Y-80687219D01*
X65231968Y-80687215D01*
X65231971Y-80687213D01*
X65284732Y-80614590D01*
X65352287Y-80521610D01*
X65445220Y-80339219D01*
X65508477Y-80144534D01*
X65540500Y-79942352D01*
X65540500Y-79819807D01*
X65560185Y-79752768D01*
X65612989Y-79707013D01*
X65682147Y-79697069D01*
X65745703Y-79726094D01*
X65752167Y-79732112D01*
X65825328Y-79805273D01*
X65825332Y-79805277D01*
X65931866Y-79876461D01*
X65931872Y-79876464D01*
X65931873Y-79876465D01*
X66050256Y-79925501D01*
X66050260Y-79925501D01*
X66050261Y-79925502D01*
X66175928Y-79950500D01*
X66175931Y-79950500D01*
X73464071Y-79950500D01*
X73548615Y-79933682D01*
X73589744Y-79925501D01*
X73708127Y-79876465D01*
X73814669Y-79805277D01*
X74905277Y-78714669D01*
X74976466Y-78608126D01*
X75005189Y-78538779D01*
X75025501Y-78489744D01*
X75034541Y-78444297D01*
X75050500Y-78364071D01*
X75050500Y-78190240D01*
X75070185Y-78123201D01*
X75122989Y-78077446D01*
X75192147Y-78067502D01*
X75255703Y-78096527D01*
X75272876Y-78114754D01*
X75355733Y-78222736D01*
X75355739Y-78222743D01*
X75527256Y-78394260D01*
X75527263Y-78394266D01*
X75592465Y-78444297D01*
X75719711Y-78541936D01*
X75929788Y-78663224D01*
X76153900Y-78756054D01*
X76388211Y-78818838D01*
X76568586Y-78842584D01*
X76628711Y-78850500D01*
X76628712Y-78850500D01*
X76871289Y-78850500D01*
X76919388Y-78844167D01*
X77111789Y-78818838D01*
X77346100Y-78756054D01*
X77570212Y-78663224D01*
X77780289Y-78541936D01*
X77972738Y-78394265D01*
X78144265Y-78222738D01*
X78291936Y-78030289D01*
X78413224Y-77820212D01*
X78506054Y-77596100D01*
X78568838Y-77361789D01*
X78600500Y-77121288D01*
X78600500Y-76878712D01*
X78596268Y-76846570D01*
X78572008Y-76662291D01*
X78568838Y-76638211D01*
X78506054Y-76403900D01*
X78413224Y-76179788D01*
X78291936Y-75969711D01*
X78217178Y-75872284D01*
X78144266Y-75777263D01*
X78144260Y-75777256D01*
X77972743Y-75605739D01*
X77972736Y-75605733D01*
X77780293Y-75458067D01*
X77780292Y-75458066D01*
X77780289Y-75458064D01*
X77570212Y-75336776D01*
X77461814Y-75291876D01*
X77346104Y-75243947D01*
X77111785Y-75181161D01*
X76871289Y-75149500D01*
X76871288Y-75149500D01*
X76628712Y-75149500D01*
X76628711Y-75149500D01*
X76388214Y-75181161D01*
X76153895Y-75243947D01*
X75929794Y-75336773D01*
X75929785Y-75336777D01*
X75719706Y-75458067D01*
X75527263Y-75605733D01*
X75527256Y-75605739D01*
X75355739Y-75777256D01*
X75355732Y-75777264D01*
X75345172Y-75791026D01*
X75288743Y-75832227D01*
X75218996Y-75836379D01*
X75158077Y-75802164D01*
X75125327Y-75740446D01*
X75125182Y-75691342D01*
X75125498Y-75689749D01*
X75125501Y-75689744D01*
X75130608Y-75664069D01*
X75143869Y-75597402D01*
X75150500Y-75564070D01*
X75150500Y-69639818D01*
X78600000Y-69639818D01*
X78600000Y-69860181D01*
X78634473Y-70077835D01*
X78702567Y-70287410D01*
X78802611Y-70483756D01*
X78848932Y-70547513D01*
X79435387Y-69961058D01*
X79440889Y-69981591D01*
X79519881Y-70118408D01*
X79631592Y-70230119D01*
X79768409Y-70309111D01*
X79788939Y-70314612D01*
X79202485Y-70901065D01*
X79202485Y-70901066D01*
X79266243Y-70947388D01*
X79462589Y-71047432D01*
X79672164Y-71115526D01*
X79889819Y-71150000D01*
X80110181Y-71150000D01*
X80327835Y-71115526D01*
X80537410Y-71047432D01*
X80733760Y-70947386D01*
X80797513Y-70901066D01*
X80797514Y-70901066D01*
X80211059Y-70314612D01*
X80231591Y-70309111D01*
X80368408Y-70230119D01*
X80480119Y-70118408D01*
X80559111Y-69981591D01*
X80564612Y-69961060D01*
X81151066Y-70547514D01*
X81151066Y-70547513D01*
X81197386Y-70483760D01*
X81297432Y-70287410D01*
X81365526Y-70077835D01*
X81400000Y-69860181D01*
X81400000Y-69639818D01*
X81365526Y-69422164D01*
X81297432Y-69212589D01*
X81197388Y-69016243D01*
X81151066Y-68952485D01*
X81151065Y-68952485D01*
X80564612Y-69538939D01*
X80559111Y-69518409D01*
X80480119Y-69381592D01*
X80368408Y-69269881D01*
X80231591Y-69190889D01*
X80211057Y-69185387D01*
X80797513Y-68598932D01*
X80733756Y-68552611D01*
X80537410Y-68452567D01*
X80327835Y-68384473D01*
X80110181Y-68350000D01*
X79889819Y-68350000D01*
X79672164Y-68384473D01*
X79462589Y-68452567D01*
X79266233Y-68552616D01*
X79202485Y-68598931D01*
X79202485Y-68598932D01*
X79788940Y-69185387D01*
X79768409Y-69190889D01*
X79631592Y-69269881D01*
X79519881Y-69381592D01*
X79440889Y-69518409D01*
X79435387Y-69538940D01*
X78848932Y-68952485D01*
X78848931Y-68952485D01*
X78802616Y-69016233D01*
X78702567Y-69212589D01*
X78634473Y-69422164D01*
X78600000Y-69639818D01*
X75150500Y-69639818D01*
X75150500Y-68448070D01*
X75170185Y-68381031D01*
X75201613Y-68347753D01*
X75342199Y-68245613D01*
X75347215Y-68241969D01*
X75347215Y-68241968D01*
X75347219Y-68241966D01*
X75491966Y-68097219D01*
X75491968Y-68097215D01*
X75491971Y-68097213D01*
X75571889Y-67987213D01*
X75612287Y-67931610D01*
X75705220Y-67749219D01*
X75768477Y-67554534D01*
X75800500Y-67352352D01*
X75800500Y-67147648D01*
X75768477Y-66945465D01*
X75732736Y-66835466D01*
X75705220Y-66750781D01*
X75705218Y-66750778D01*
X75705218Y-66750776D01*
X75649172Y-66640781D01*
X75612287Y-66568390D01*
X75595134Y-66544781D01*
X75491971Y-66402786D01*
X75347213Y-66258028D01*
X75181613Y-66137715D01*
X75181612Y-66137714D01*
X75181610Y-66137713D01*
X75107594Y-66100000D01*
X74999223Y-66044781D01*
X74804534Y-65981522D01*
X74629995Y-65953878D01*
X74602352Y-65949500D01*
X74397648Y-65949500D01*
X74373329Y-65953351D01*
X74195465Y-65981522D01*
X74000776Y-66044781D01*
X73818386Y-66137715D01*
X73652786Y-66258028D01*
X73508028Y-66402786D01*
X73387715Y-66568386D01*
X73294781Y-66750776D01*
X73231522Y-66945465D01*
X73199500Y-67147648D01*
X73199500Y-67352351D01*
X73231522Y-67554534D01*
X73294781Y-67749223D01*
X73387715Y-67931613D01*
X73508028Y-68097213D01*
X73652784Y-68241969D01*
X73721863Y-68292157D01*
X73798385Y-68347753D01*
X73841051Y-68403081D01*
X73849500Y-68448070D01*
X73849500Y-75215399D01*
X73829815Y-75282438D01*
X73828603Y-75284289D01*
X73823533Y-75291876D01*
X73774499Y-75410255D01*
X73774497Y-75410261D01*
X73749500Y-75535928D01*
X73749500Y-77979192D01*
X73729815Y-78046231D01*
X73713181Y-78066873D01*
X73166873Y-78613181D01*
X73105550Y-78646666D01*
X73079192Y-78649500D01*
X72560363Y-78649500D01*
X72493324Y-78629815D01*
X72447569Y-78577011D01*
X72437625Y-78507853D01*
X72466650Y-78444297D01*
X72522044Y-78407569D01*
X72575804Y-78390101D01*
X72786163Y-78282917D01*
X72786169Y-78282913D01*
X72869104Y-78222657D01*
X72869105Y-78222657D01*
X72170233Y-77523786D01*
X72212292Y-77512517D01*
X72337708Y-77440109D01*
X72440110Y-77337707D01*
X72512518Y-77212291D01*
X72523787Y-77170233D01*
X73222658Y-77869104D01*
X73222658Y-77869103D01*
X73282914Y-77786168D01*
X73282918Y-77786162D01*
X73390102Y-77575801D01*
X73463065Y-77351246D01*
X73500000Y-77118051D01*
X73500000Y-76881946D01*
X73463065Y-76648751D01*
X73390102Y-76424196D01*
X73282914Y-76213827D01*
X73222658Y-76130893D01*
X73222658Y-76130892D01*
X72523787Y-76829764D01*
X72512518Y-76787707D01*
X72440110Y-76662291D01*
X72337708Y-76559889D01*
X72212292Y-76487481D01*
X72170234Y-76476211D01*
X72869105Y-75777339D01*
X72869104Y-75777337D01*
X72786174Y-75717086D01*
X72575802Y-75609896D01*
X72351247Y-75536933D01*
X72351248Y-75536933D01*
X72118052Y-75499999D01*
X71881948Y-75499999D01*
X71648752Y-75536933D01*
X71424197Y-75609896D01*
X71213830Y-75717083D01*
X71130894Y-75777339D01*
X71829766Y-76476211D01*
X71787708Y-76487481D01*
X71662292Y-76559889D01*
X71559890Y-76662291D01*
X71487482Y-76787707D01*
X71476212Y-76829765D01*
X70777340Y-76130893D01*
X70717084Y-76213829D01*
X70609897Y-76424196D01*
X70536934Y-76648751D01*
X70500000Y-76881946D01*
X70500000Y-77118051D01*
X70536934Y-77351246D01*
X70609897Y-77575801D01*
X70717087Y-77786173D01*
X70777338Y-77869103D01*
X70777340Y-77869104D01*
X71476212Y-77170232D01*
X71487482Y-77212291D01*
X71559890Y-77337707D01*
X71662292Y-77440109D01*
X71787708Y-77512517D01*
X71829765Y-77523786D01*
X71130893Y-78222657D01*
X71213828Y-78282913D01*
X71424195Y-78390101D01*
X71477956Y-78407569D01*
X71535631Y-78447007D01*
X71562829Y-78511366D01*
X71550914Y-78580212D01*
X71503670Y-78631688D01*
X71439637Y-78649500D01*
X68061986Y-78649500D01*
X67994947Y-78629815D01*
X67949192Y-78577011D01*
X67939248Y-78507853D01*
X67968273Y-78444297D01*
X68023665Y-78407569D01*
X68075992Y-78390568D01*
X68286433Y-78283343D01*
X68477510Y-78144517D01*
X68644517Y-77977510D01*
X68783343Y-77786433D01*
X68890568Y-77575992D01*
X68963553Y-77351368D01*
X68965717Y-77337707D01*
X69000500Y-77118097D01*
X69000500Y-76881902D01*
X68963553Y-76648631D01*
X68911192Y-76487481D01*
X68890568Y-76424008D01*
X68890566Y-76424005D01*
X68890566Y-76424003D01*
X68810755Y-76267366D01*
X68783343Y-76213567D01*
X68644517Y-76022490D01*
X68477510Y-75855483D01*
X68286433Y-75716657D01*
X68276049Y-75711366D01*
X68075996Y-75609433D01*
X67851368Y-75536446D01*
X67618097Y-75499500D01*
X67618092Y-75499500D01*
X67381908Y-75499500D01*
X67381903Y-75499500D01*
X67148631Y-75536446D01*
X66924003Y-75609433D01*
X66713566Y-75716657D01*
X66629410Y-75777801D01*
X66522490Y-75855483D01*
X66522488Y-75855485D01*
X66522487Y-75855485D01*
X66355485Y-76022487D01*
X66355485Y-76022488D01*
X66355483Y-76022490D01*
X66346168Y-76035311D01*
X66216657Y-76213566D01*
X66109433Y-76424003D01*
X66036446Y-76648631D01*
X65999500Y-76881902D01*
X65999500Y-77118097D01*
X66036446Y-77351368D01*
X66109433Y-77575996D01*
X66216519Y-77786162D01*
X66216657Y-77786433D01*
X66355483Y-77977510D01*
X66522490Y-78144517D01*
X66713567Y-78283343D01*
X66812991Y-78334002D01*
X66924003Y-78390566D01*
X66924005Y-78390566D01*
X66924008Y-78390568D01*
X66976334Y-78407569D01*
X67034008Y-78447007D01*
X67061206Y-78511366D01*
X67049291Y-78580212D01*
X67002047Y-78631688D01*
X66938014Y-78649500D01*
X66560807Y-78649500D01*
X66493768Y-78629815D01*
X66473126Y-78613181D01*
X65547137Y-77687191D01*
X65513652Y-77625868D01*
X65512345Y-77580112D01*
X65540500Y-77402351D01*
X65540500Y-77197648D01*
X65508477Y-76995465D01*
X65470541Y-76878711D01*
X65445220Y-76800781D01*
X65445218Y-76800778D01*
X65445218Y-76800776D01*
X65411503Y-76734607D01*
X65352287Y-76618390D01*
X65308504Y-76558127D01*
X65231971Y-76452786D01*
X65087213Y-76308028D01*
X64921614Y-76187715D01*
X64906050Y-76179785D01*
X64828917Y-76140483D01*
X64778123Y-76092511D01*
X64761328Y-76024690D01*
X64783865Y-75958555D01*
X64828917Y-75919516D01*
X64921610Y-75872287D01*
X64971034Y-75836379D01*
X65087213Y-75751971D01*
X65087215Y-75751968D01*
X65087219Y-75751966D01*
X65231966Y-75607219D01*
X65231968Y-75607215D01*
X65231971Y-75607213D01*
X65309865Y-75499999D01*
X65352287Y-75441610D01*
X65445220Y-75259219D01*
X65508477Y-75064534D01*
X65540500Y-74862352D01*
X65540500Y-74657648D01*
X65508477Y-74455465D01*
X65445218Y-74260776D01*
X65411503Y-74194607D01*
X65352287Y-74078390D01*
X65344556Y-74067749D01*
X65231971Y-73912786D01*
X65087213Y-73768028D01*
X64921614Y-73647715D01*
X64915006Y-73644348D01*
X64828917Y-73600483D01*
X64778123Y-73552511D01*
X64761328Y-73484690D01*
X64783865Y-73418555D01*
X64828917Y-73379516D01*
X64921610Y-73332287D01*
X64942770Y-73316913D01*
X65087213Y-73211971D01*
X65087215Y-73211968D01*
X65087219Y-73211966D01*
X65231966Y-73067219D01*
X65231968Y-73067215D01*
X65231971Y-73067213D01*
X65286640Y-72991966D01*
X65352287Y-72901610D01*
X65445220Y-72719219D01*
X65508477Y-72524534D01*
X65540500Y-72322352D01*
X65540500Y-72117648D01*
X65508477Y-71915466D01*
X65445220Y-71720781D01*
X65445218Y-71720778D01*
X65445218Y-71720776D01*
X65411503Y-71654607D01*
X65352287Y-71538390D01*
X65324959Y-71500776D01*
X65231971Y-71372786D01*
X65087213Y-71228028D01*
X64921614Y-71107715D01*
X64915006Y-71104348D01*
X64828917Y-71060483D01*
X64778123Y-71012511D01*
X64761328Y-70944690D01*
X64783865Y-70878555D01*
X64828917Y-70839516D01*
X64921610Y-70792287D01*
X64942770Y-70776913D01*
X65087213Y-70671971D01*
X65087215Y-70671968D01*
X65087219Y-70671966D01*
X65231966Y-70527219D01*
X65231968Y-70527215D01*
X65231971Y-70527213D01*
X65284732Y-70454590D01*
X65352287Y-70361610D01*
X65445220Y-70179219D01*
X65508477Y-69984534D01*
X65540500Y-69782352D01*
X65540500Y-69577648D01*
X65508477Y-69375466D01*
X65445220Y-69180781D01*
X65445218Y-69180778D01*
X65445218Y-69180776D01*
X65378838Y-69050500D01*
X65352287Y-68998390D01*
X65330055Y-68967790D01*
X65231971Y-68832786D01*
X65087213Y-68688028D01*
X64921614Y-68567715D01*
X64898555Y-68555966D01*
X64828917Y-68520483D01*
X64778123Y-68472511D01*
X64761328Y-68404690D01*
X64783865Y-68338555D01*
X64828917Y-68299516D01*
X64921610Y-68252287D01*
X65022705Y-68178838D01*
X65087213Y-68131971D01*
X65087215Y-68131968D01*
X65087219Y-68131966D01*
X65231966Y-67987219D01*
X65231968Y-67987215D01*
X65231971Y-67987213D01*
X65318195Y-67868534D01*
X65352287Y-67821610D01*
X65445220Y-67639219D01*
X65502916Y-67461648D01*
X66009500Y-67461648D01*
X66009500Y-67666351D01*
X66041522Y-67868534D01*
X66104781Y-68063223D01*
X66163691Y-68178838D01*
X66195856Y-68241966D01*
X66197715Y-68245613D01*
X66318028Y-68411213D01*
X66462786Y-68555971D01*
X66617749Y-68668556D01*
X66628390Y-68676287D01*
X66744607Y-68735503D01*
X66810776Y-68769218D01*
X66810778Y-68769218D01*
X66810781Y-68769220D01*
X66915137Y-68803127D01*
X67005465Y-68832477D01*
X67106557Y-68848488D01*
X67207648Y-68864500D01*
X67207649Y-68864500D01*
X67412351Y-68864500D01*
X67412352Y-68864500D01*
X67614534Y-68832477D01*
X67809219Y-68769220D01*
X67991610Y-68676287D01*
X68120790Y-68582433D01*
X68157213Y-68555971D01*
X68157215Y-68555968D01*
X68157219Y-68555966D01*
X68301966Y-68411219D01*
X68301968Y-68411215D01*
X68301971Y-68411213D01*
X68381336Y-68301974D01*
X68422287Y-68245610D01*
X68515220Y-68063219D01*
X68578477Y-67868534D01*
X68610500Y-67666352D01*
X68610500Y-67461648D01*
X68578477Y-67259466D01*
X68575653Y-67250776D01*
X68517178Y-67070807D01*
X68515220Y-67064781D01*
X68515218Y-67064778D01*
X68515218Y-67064776D01*
X68459855Y-66956121D01*
X68422287Y-66882390D01*
X68388195Y-66835466D01*
X68301971Y-66716786D01*
X68157217Y-66572032D01*
X68157212Y-66572028D01*
X68048646Y-66493150D01*
X68048623Y-66493135D01*
X67991609Y-66451712D01*
X67885570Y-66397682D01*
X69312000Y-66397682D01*
X69312000Y-66602317D01*
X69344009Y-66804417D01*
X69407244Y-66999031D01*
X69500141Y-67181350D01*
X69500147Y-67181359D01*
X69532523Y-67225921D01*
X69532524Y-67225922D01*
X70212000Y-66546446D01*
X70212000Y-66552661D01*
X70239259Y-66654394D01*
X70291920Y-66745606D01*
X70366394Y-66820080D01*
X70457606Y-66872741D01*
X70559339Y-66900000D01*
X70565553Y-66900000D01*
X69886076Y-67579474D01*
X69930650Y-67611859D01*
X70112968Y-67704755D01*
X70307582Y-67767990D01*
X70509683Y-67800000D01*
X70714317Y-67800000D01*
X70916417Y-67767990D01*
X71111031Y-67704755D01*
X71293349Y-67611859D01*
X71337921Y-67579474D01*
X70658447Y-66900000D01*
X70664661Y-66900000D01*
X70766394Y-66872741D01*
X70857606Y-66820080D01*
X70932080Y-66745606D01*
X70984741Y-66654394D01*
X71012000Y-66552661D01*
X71012000Y-66546447D01*
X71691474Y-67225921D01*
X71723859Y-67181349D01*
X71816755Y-66999031D01*
X71879990Y-66804417D01*
X71912000Y-66602317D01*
X71912000Y-66397682D01*
X71879990Y-66195582D01*
X71816755Y-66000968D01*
X71723859Y-65818650D01*
X71691474Y-65774077D01*
X71691474Y-65774076D01*
X71012000Y-66453551D01*
X71012000Y-66447339D01*
X70984741Y-66345606D01*
X70932080Y-66254394D01*
X70857606Y-66179920D01*
X70766394Y-66127259D01*
X70664661Y-66100000D01*
X70658446Y-66100000D01*
X71337922Y-65420524D01*
X71337921Y-65420523D01*
X71293359Y-65388147D01*
X71293350Y-65388141D01*
X71111031Y-65295244D01*
X70916417Y-65232009D01*
X70714317Y-65200000D01*
X70509683Y-65200000D01*
X70307582Y-65232009D01*
X70112968Y-65295244D01*
X69930644Y-65388143D01*
X69886077Y-65420523D01*
X69886077Y-65420524D01*
X70565554Y-66100000D01*
X70559339Y-66100000D01*
X70457606Y-66127259D01*
X70366394Y-66179920D01*
X70291920Y-66254394D01*
X70239259Y-66345606D01*
X70212000Y-66447339D01*
X70212000Y-66453553D01*
X69532524Y-65774077D01*
X69532523Y-65774077D01*
X69500143Y-65818644D01*
X69407244Y-66000968D01*
X69344009Y-66195582D01*
X69312000Y-66397682D01*
X67885570Y-66397682D01*
X67809223Y-66358781D01*
X67614534Y-66295522D01*
X67439995Y-66267878D01*
X67412352Y-66263500D01*
X67207648Y-66263500D01*
X67183329Y-66267351D01*
X67005465Y-66295522D01*
X66810776Y-66358781D01*
X66628386Y-66451715D01*
X66462786Y-66572028D01*
X66318028Y-66716786D01*
X66197715Y-66882386D01*
X66104781Y-67064776D01*
X66041522Y-67259465D01*
X66009500Y-67461648D01*
X65502916Y-67461648D01*
X65508477Y-67444534D01*
X65540500Y-67242352D01*
X65540500Y-67037648D01*
X65508477Y-66835466D01*
X65445220Y-66640781D01*
X65445218Y-66640778D01*
X65445218Y-66640776D01*
X65408333Y-66568386D01*
X65352287Y-66458390D01*
X65311885Y-66402781D01*
X65231971Y-66292786D01*
X65087213Y-66148028D01*
X64921614Y-66027715D01*
X64868743Y-66000776D01*
X64828917Y-65980483D01*
X64778123Y-65932511D01*
X64761328Y-65864690D01*
X64783865Y-65798555D01*
X64828917Y-65759516D01*
X64921610Y-65712287D01*
X64966050Y-65680000D01*
X65087213Y-65591971D01*
X65087215Y-65591968D01*
X65087219Y-65591966D01*
X65231966Y-65447219D01*
X65231968Y-65447215D01*
X65231971Y-65447213D01*
X65269980Y-65394898D01*
X65342381Y-65295244D01*
X65352287Y-65281610D01*
X65445220Y-65099219D01*
X65508477Y-64904534D01*
X65540500Y-64702352D01*
X65540500Y-64497648D01*
X65508477Y-64295466D01*
X65485880Y-64225921D01*
X65463086Y-64155768D01*
X65445220Y-64100781D01*
X65445218Y-64100778D01*
X65445218Y-64100776D01*
X65403258Y-64018427D01*
X65352287Y-63918390D01*
X65338926Y-63900000D01*
X65231971Y-63752786D01*
X65087219Y-63608034D01*
X65011004Y-63552661D01*
X64921610Y-63487713D01*
X64827683Y-63439854D01*
X64826466Y-63439200D01*
X64802563Y-63415593D01*
X64783562Y-63397648D01*
X69311500Y-63397648D01*
X69311500Y-63602351D01*
X69343522Y-63804534D01*
X69406781Y-63999223D01*
X69470691Y-64124653D01*
X69499585Y-64181359D01*
X69499715Y-64181613D01*
X69620028Y-64347213D01*
X69764786Y-64491971D01*
X69861636Y-64562335D01*
X69930390Y-64612287D01*
X70046607Y-64671503D01*
X70112776Y-64705218D01*
X70112778Y-64705218D01*
X70112781Y-64705220D01*
X70199981Y-64733553D01*
X70307465Y-64768477D01*
X70380218Y-64780000D01*
X70509648Y-64800500D01*
X70509649Y-64800500D01*
X70714351Y-64800500D01*
X70714352Y-64800500D01*
X70916534Y-64768477D01*
X71111219Y-64705220D01*
X71239656Y-64639778D01*
X78599500Y-64639778D01*
X78599500Y-64860221D01*
X78633985Y-65077952D01*
X78702103Y-65287603D01*
X78702104Y-65287606D01*
X78802187Y-65484025D01*
X78931752Y-65662358D01*
X78931756Y-65662363D01*
X79087636Y-65818243D01*
X79087641Y-65818247D01*
X79222770Y-65916423D01*
X79265978Y-65947815D01*
X79369919Y-66000776D01*
X79462393Y-66047895D01*
X79462396Y-66047896D01*
X79567221Y-66081955D01*
X79672049Y-66116015D01*
X79889778Y-66150500D01*
X79889779Y-66150500D01*
X80110221Y-66150500D01*
X80110222Y-66150500D01*
X80327951Y-66116015D01*
X80537606Y-66047895D01*
X80734022Y-65947815D01*
X80912365Y-65818242D01*
X81068242Y-65662365D01*
X81197815Y-65484022D01*
X81297895Y-65287606D01*
X81366015Y-65077951D01*
X81400500Y-64860222D01*
X81400500Y-64639778D01*
X81366015Y-64422049D01*
X81319108Y-64277682D01*
X81297896Y-64212396D01*
X81297895Y-64212393D01*
X81258152Y-64134394D01*
X81197815Y-64015978D01*
X81171676Y-63980000D01*
X81068247Y-63837641D01*
X81068243Y-63837636D01*
X80912363Y-63681756D01*
X80912358Y-63681752D01*
X80734025Y-63552187D01*
X80734024Y-63552186D01*
X80734022Y-63552185D01*
X80671096Y-63520122D01*
X80537606Y-63452104D01*
X80537603Y-63452103D01*
X80327952Y-63383985D01*
X80159494Y-63357304D01*
X80110222Y-63349500D01*
X79889778Y-63349500D01*
X79840506Y-63357304D01*
X79672047Y-63383985D01*
X79462396Y-63452103D01*
X79462393Y-63452104D01*
X79265974Y-63552187D01*
X79087641Y-63681752D01*
X79087636Y-63681756D01*
X78931756Y-63837636D01*
X78931752Y-63837641D01*
X78802187Y-64015974D01*
X78702104Y-64212393D01*
X78702103Y-64212396D01*
X78633985Y-64422047D01*
X78599500Y-64639778D01*
X71239656Y-64639778D01*
X71293610Y-64612287D01*
X71400556Y-64534587D01*
X71400558Y-64534586D01*
X71459212Y-64491971D01*
X71459210Y-64491971D01*
X71459219Y-64491966D01*
X71603966Y-64347219D01*
X71603968Y-64347215D01*
X71603971Y-64347213D01*
X71656732Y-64274590D01*
X71724287Y-64181610D01*
X71817220Y-63999219D01*
X71880477Y-63804534D01*
X71912500Y-63602352D01*
X71912500Y-63397648D01*
X71900729Y-63323329D01*
X71880477Y-63195465D01*
X71842960Y-63080000D01*
X71817220Y-63000781D01*
X71817218Y-63000778D01*
X71817218Y-63000776D01*
X71783503Y-62934607D01*
X71724287Y-62818390D01*
X71692092Y-62774077D01*
X71603971Y-62652786D01*
X71459213Y-62508028D01*
X71293613Y-62387715D01*
X71293612Y-62387714D01*
X71293610Y-62387713D01*
X71236653Y-62358691D01*
X71111223Y-62294781D01*
X70916534Y-62231522D01*
X70741995Y-62203878D01*
X70714352Y-62199500D01*
X70509648Y-62199500D01*
X70485329Y-62203351D01*
X70307465Y-62231522D01*
X70112776Y-62294781D01*
X69930386Y-62387715D01*
X69764786Y-62508028D01*
X69620028Y-62652786D01*
X69499715Y-62818386D01*
X69406781Y-63000776D01*
X69343522Y-63195465D01*
X69311500Y-63397648D01*
X64783562Y-63397648D01*
X64778123Y-63392511D01*
X64777777Y-63391114D01*
X64776754Y-63390104D01*
X64769404Y-63357304D01*
X64761328Y-63324690D01*
X64761791Y-63323329D01*
X64761477Y-63321925D01*
X64773027Y-63290358D01*
X64783865Y-63258555D01*
X64785035Y-63257540D01*
X64785486Y-63256309D01*
X64793264Y-63250409D01*
X64828917Y-63219516D01*
X64921610Y-63172287D01*
X64983586Y-63127259D01*
X65087213Y-63051971D01*
X65087215Y-63051968D01*
X65087219Y-63051966D01*
X65231966Y-62907219D01*
X65231968Y-62907215D01*
X65231971Y-62907213D01*
X65291078Y-62825857D01*
X65352287Y-62741610D01*
X65445220Y-62559219D01*
X65508477Y-62364534D01*
X65540500Y-62162352D01*
X65540500Y-61957648D01*
X65523755Y-61851927D01*
X65508477Y-61755465D01*
X65462367Y-61613555D01*
X65445220Y-61560781D01*
X65445218Y-61560778D01*
X65445218Y-61560776D01*
X65409025Y-61489744D01*
X65352287Y-61378390D01*
X65341882Y-61364069D01*
X65231971Y-61212786D01*
X65087218Y-61068033D01*
X65087211Y-61068027D01*
X64921614Y-60947715D01*
X64915006Y-60944348D01*
X64828917Y-60900483D01*
X64778123Y-60852511D01*
X64761328Y-60784690D01*
X64783865Y-60718555D01*
X64828917Y-60679516D01*
X64921610Y-60632287D01*
X64942770Y-60616913D01*
X65087213Y-60511971D01*
X65087215Y-60511968D01*
X65087219Y-60511966D01*
X65231966Y-60367219D01*
X65231968Y-60367215D01*
X65231971Y-60367213D01*
X65289810Y-60287603D01*
X65352287Y-60201610D01*
X65445220Y-60019219D01*
X65502905Y-59841682D01*
X66010000Y-59841682D01*
X66010000Y-60046317D01*
X66042009Y-60248417D01*
X66105244Y-60443031D01*
X66198141Y-60625350D01*
X66198147Y-60625359D01*
X66230523Y-60669921D01*
X66230524Y-60669922D01*
X66910000Y-59990446D01*
X66910000Y-59996661D01*
X66937259Y-60098394D01*
X66989920Y-60189606D01*
X67064394Y-60264080D01*
X67155606Y-60316741D01*
X67257339Y-60344000D01*
X67263553Y-60344000D01*
X66584076Y-61023474D01*
X66628650Y-61055859D01*
X66810968Y-61148755D01*
X67005582Y-61211990D01*
X67207683Y-61244000D01*
X67412317Y-61244000D01*
X67614417Y-61211990D01*
X67809031Y-61148755D01*
X67991349Y-61055859D01*
X68035921Y-61023474D01*
X67356447Y-60344000D01*
X67362661Y-60344000D01*
X67464394Y-60316741D01*
X67555606Y-60264080D01*
X67630080Y-60189606D01*
X67682741Y-60098394D01*
X67710000Y-59996661D01*
X67710000Y-59990448D01*
X68389474Y-60669922D01*
X68389474Y-60669921D01*
X68421859Y-60625349D01*
X68514755Y-60443031D01*
X68577990Y-60248417D01*
X68610000Y-60046317D01*
X68610000Y-59841682D01*
X68577990Y-59639582D01*
X68552487Y-59561095D01*
X68552486Y-59561093D01*
X68541619Y-59527648D01*
X73199500Y-59527648D01*
X73199500Y-59732352D01*
X73202632Y-59752127D01*
X73231522Y-59934534D01*
X73294781Y-60129223D01*
X73358691Y-60254653D01*
X73375482Y-60287606D01*
X73387715Y-60311613D01*
X73508028Y-60477213D01*
X73652786Y-60621971D01*
X73798409Y-60727770D01*
X73818390Y-60742287D01*
X73909043Y-60788477D01*
X74000776Y-60835218D01*
X74000778Y-60835218D01*
X74000781Y-60835220D01*
X74082358Y-60861726D01*
X74195465Y-60898477D01*
X74296557Y-60914488D01*
X74397648Y-60930500D01*
X74397649Y-60930500D01*
X74602351Y-60930500D01*
X74602352Y-60930500D01*
X74804534Y-60898477D01*
X74999219Y-60835220D01*
X75181610Y-60742287D01*
X75291624Y-60662358D01*
X75347213Y-60621971D01*
X75347215Y-60621968D01*
X75347219Y-60621966D01*
X75491966Y-60477219D01*
X75491968Y-60477215D01*
X75491971Y-60477213D01*
X75605604Y-60320808D01*
X75612287Y-60311610D01*
X75705220Y-60129219D01*
X75768477Y-59934534D01*
X75800500Y-59732352D01*
X75800500Y-59639778D01*
X78599500Y-59639778D01*
X78599500Y-59860222D01*
X78611270Y-59934534D01*
X78633985Y-60077952D01*
X78702103Y-60287603D01*
X78702104Y-60287606D01*
X78802187Y-60484025D01*
X78931752Y-60662358D01*
X78931756Y-60662363D01*
X79087636Y-60818243D01*
X79087641Y-60818247D01*
X79200833Y-60900485D01*
X79265978Y-60947815D01*
X79379288Y-61005550D01*
X79462393Y-61047895D01*
X79462396Y-61047896D01*
X79524358Y-61068028D01*
X79672049Y-61116015D01*
X79889778Y-61150500D01*
X79889779Y-61150500D01*
X80110221Y-61150500D01*
X80110222Y-61150500D01*
X80327951Y-61116015D01*
X80537606Y-61047895D01*
X80734022Y-60947815D01*
X80912365Y-60818242D01*
X81068242Y-60662365D01*
X81197815Y-60484022D01*
X81297895Y-60287606D01*
X81366015Y-60077951D01*
X81400500Y-59860222D01*
X81400500Y-59639778D01*
X81366015Y-59422049D01*
X81326197Y-59299500D01*
X81297896Y-59212396D01*
X81297895Y-59212393D01*
X81256308Y-59130776D01*
X81197815Y-59015978D01*
X81116822Y-58904500D01*
X81068247Y-58837641D01*
X81068243Y-58837636D01*
X80912363Y-58681756D01*
X80912358Y-58681752D01*
X80734025Y-58552187D01*
X80734024Y-58552186D01*
X80734022Y-58552185D01*
X80654139Y-58511482D01*
X80537606Y-58452104D01*
X80537603Y-58452103D01*
X80327952Y-58383985D01*
X80186132Y-58361523D01*
X80110222Y-58349500D01*
X79889778Y-58349500D01*
X79822202Y-58360203D01*
X79672047Y-58383985D01*
X79462396Y-58452103D01*
X79462393Y-58452104D01*
X79265974Y-58552187D01*
X79087641Y-58681752D01*
X79087636Y-58681756D01*
X78931756Y-58837636D01*
X78931752Y-58837641D01*
X78802187Y-59015974D01*
X78702104Y-59212393D01*
X78702103Y-59212396D01*
X78633985Y-59422047D01*
X78611962Y-59561095D01*
X78599500Y-59639778D01*
X75800500Y-59639778D01*
X75800500Y-59527648D01*
X75787006Y-59442452D01*
X75768477Y-59325465D01*
X75732736Y-59215466D01*
X75705220Y-59130781D01*
X75705218Y-59130778D01*
X75705218Y-59130776D01*
X75649172Y-59020781D01*
X75612287Y-58948390D01*
X75595134Y-58924781D01*
X75491971Y-58782786D01*
X75347213Y-58638028D01*
X75181613Y-58517715D01*
X75181612Y-58517714D01*
X75181610Y-58517713D01*
X75124653Y-58488691D01*
X74999223Y-58424781D01*
X74804534Y-58361522D01*
X74629995Y-58333878D01*
X74602352Y-58329500D01*
X74397648Y-58329500D01*
X74373329Y-58333351D01*
X74195465Y-58361522D01*
X74000776Y-58424781D01*
X73818386Y-58517715D01*
X73652786Y-58638028D01*
X73508028Y-58782786D01*
X73387715Y-58948386D01*
X73294781Y-59130776D01*
X73231522Y-59325465D01*
X73212993Y-59442455D01*
X73199500Y-59527648D01*
X68541619Y-59527648D01*
X68514755Y-59444970D01*
X68421859Y-59262650D01*
X68389474Y-59218077D01*
X68389474Y-59218076D01*
X67710000Y-59897551D01*
X67710000Y-59891339D01*
X67682741Y-59789606D01*
X67630080Y-59698394D01*
X67555606Y-59623920D01*
X67464394Y-59571259D01*
X67362661Y-59544000D01*
X67356446Y-59544000D01*
X68035922Y-58864524D01*
X68035921Y-58864523D01*
X67991359Y-58832147D01*
X67991350Y-58832141D01*
X67809031Y-58739244D01*
X67614417Y-58676009D01*
X67412317Y-58644000D01*
X67207683Y-58644000D01*
X67005582Y-58676009D01*
X66810968Y-58739244D01*
X66628644Y-58832143D01*
X66584077Y-58864523D01*
X66584077Y-58864524D01*
X67263554Y-59544000D01*
X67257339Y-59544000D01*
X67155606Y-59571259D01*
X67064394Y-59623920D01*
X66989920Y-59698394D01*
X66937259Y-59789606D01*
X66910000Y-59891339D01*
X66910000Y-59897553D01*
X66230524Y-59218077D01*
X66230523Y-59218077D01*
X66198143Y-59262644D01*
X66105244Y-59444968D01*
X66042009Y-59639582D01*
X66010000Y-59841682D01*
X65502905Y-59841682D01*
X65508477Y-59824534D01*
X65540500Y-59622352D01*
X65540500Y-59417648D01*
X65515950Y-59262650D01*
X65508477Y-59215465D01*
X65480961Y-59130781D01*
X65445220Y-59020781D01*
X65445217Y-59020777D01*
X65445217Y-59020774D01*
X65418367Y-58968079D01*
X65418366Y-58968078D01*
X65352287Y-58838390D01*
X65352285Y-58838387D01*
X65352284Y-58838385D01*
X65231971Y-58672786D01*
X65087213Y-58528028D01*
X64921611Y-58407713D01*
X64828369Y-58360203D01*
X64777574Y-58312229D01*
X64760779Y-58244407D01*
X64783317Y-58178273D01*
X64828371Y-58139234D01*
X64921347Y-58091861D01*
X65086894Y-57971582D01*
X65086895Y-57971582D01*
X65231582Y-57826895D01*
X65231582Y-57826894D01*
X65351859Y-57661349D01*
X65444755Y-57479029D01*
X65507990Y-57284413D01*
X65516609Y-57230000D01*
X64673012Y-57230000D01*
X64705925Y-57172993D01*
X64740000Y-57045826D01*
X64740000Y-56914174D01*
X64705925Y-56787007D01*
X64673012Y-56730000D01*
X65516609Y-56730000D01*
X65507990Y-56675586D01*
X65444755Y-56480970D01*
X65351859Y-56298650D01*
X65231582Y-56133105D01*
X65231582Y-56133104D01*
X65086895Y-55988417D01*
X64921349Y-55868140D01*
X64828370Y-55820765D01*
X64777574Y-55772790D01*
X64760779Y-55704969D01*
X64783316Y-55638835D01*
X64828370Y-55599795D01*
X64832788Y-55597544D01*
X64921610Y-55552287D01*
X65008448Y-55489196D01*
X65087213Y-55431971D01*
X65087215Y-55431968D01*
X65087219Y-55431966D01*
X65231966Y-55287219D01*
X65231968Y-55287215D01*
X65231971Y-55287213D01*
X65328086Y-55154920D01*
X65352287Y-55121610D01*
X65445220Y-54939219D01*
X65508477Y-54744534D01*
X65540500Y-54542352D01*
X65540500Y-54337648D01*
X65508477Y-54135466D01*
X65502430Y-54116856D01*
X65459967Y-53986169D01*
X65445220Y-53940781D01*
X65445218Y-53940778D01*
X65445218Y-53940776D01*
X65385820Y-53824202D01*
X65352287Y-53758390D01*
X65344556Y-53747749D01*
X65231971Y-53592786D01*
X65087213Y-53448028D01*
X64921613Y-53327715D01*
X64921612Y-53327714D01*
X64921610Y-53327713D01*
X64847987Y-53290200D01*
X64739223Y-53234781D01*
X64544534Y-53171522D01*
X64369995Y-53143878D01*
X64342352Y-53139500D01*
X64137648Y-53139500D01*
X64113329Y-53143351D01*
X63935465Y-53171522D01*
X63740776Y-53234781D01*
X63558386Y-53327715D01*
X63392786Y-53448028D01*
X63248028Y-53592786D01*
X63127715Y-53758386D01*
X63034781Y-53940776D01*
X62971522Y-54135465D01*
X62939500Y-54337648D01*
X62939500Y-54542351D01*
X62971522Y-54744534D01*
X63034781Y-54939223D01*
X63098219Y-55063725D01*
X63109976Y-55086800D01*
X63127715Y-55121613D01*
X63248028Y-55287213D01*
X63392786Y-55431971D01*
X63505725Y-55514024D01*
X63558390Y-55552287D01*
X63626163Y-55586819D01*
X63651629Y-55599795D01*
X63702425Y-55647770D01*
X63719220Y-55715591D01*
X63696682Y-55781726D01*
X63651629Y-55820765D01*
X63558650Y-55868140D01*
X63393105Y-55988417D01*
X63393104Y-55988417D01*
X63248417Y-56133104D01*
X63248417Y-56133105D01*
X63128140Y-56298650D01*
X63035244Y-56480970D01*
X62972009Y-56675586D01*
X62963391Y-56730000D01*
X63806988Y-56730000D01*
X63774075Y-56787007D01*
X63740000Y-56914174D01*
X63740000Y-57045826D01*
X63774075Y-57172993D01*
X63806988Y-57230000D01*
X62963391Y-57230000D01*
X62972009Y-57284413D01*
X63035244Y-57479029D01*
X63128140Y-57661349D01*
X63248417Y-57826894D01*
X63248417Y-57826895D01*
X63393104Y-57971582D01*
X63558652Y-58091861D01*
X63651628Y-58139234D01*
X63702425Y-58187208D01*
X63719220Y-58255029D01*
X63696683Y-58321164D01*
X63651630Y-58360203D01*
X63558388Y-58407713D01*
X63392786Y-58528028D01*
X63248028Y-58672786D01*
X63127715Y-58838386D01*
X63034781Y-59020776D01*
X62971522Y-59215465D01*
X62939500Y-59417648D01*
X62939500Y-59622352D01*
X62940834Y-59630776D01*
X62971522Y-59824534D01*
X63034781Y-60019223D01*
X63127715Y-60201613D01*
X63248028Y-60367213D01*
X63392786Y-60511971D01*
X63544184Y-60621966D01*
X63558390Y-60632287D01*
X63632251Y-60669921D01*
X63651080Y-60679515D01*
X63701876Y-60727490D01*
X63718671Y-60795311D01*
X63696134Y-60861446D01*
X63651080Y-60900485D01*
X63558386Y-60947715D01*
X63392786Y-61068028D01*
X63248028Y-61212786D01*
X63127715Y-61378386D01*
X63034781Y-61560776D01*
X62971522Y-61755465D01*
X62939500Y-61957648D01*
X62939500Y-62162351D01*
X62971522Y-62364534D01*
X63034781Y-62559223D01*
X63127715Y-62741613D01*
X63248028Y-62907213D01*
X63392786Y-63051971D01*
X63547749Y-63164556D01*
X63558390Y-63172287D01*
X63649840Y-63218883D01*
X63651080Y-63219515D01*
X63701876Y-63267490D01*
X63718671Y-63335311D01*
X63696134Y-63401446D01*
X63651080Y-63440485D01*
X63558386Y-63487715D01*
X63392786Y-63608028D01*
X63248028Y-63752786D01*
X63127715Y-63918386D01*
X63034781Y-64100776D01*
X62971522Y-64295465D01*
X62939500Y-64497648D01*
X62939500Y-64702351D01*
X62971522Y-64904534D01*
X63034781Y-65099223D01*
X63127715Y-65281613D01*
X63248028Y-65447213D01*
X63392786Y-65591971D01*
X63513950Y-65680000D01*
X63558390Y-65712287D01*
X63649840Y-65758883D01*
X63651080Y-65759515D01*
X63701876Y-65807490D01*
X63718671Y-65875311D01*
X63696134Y-65941446D01*
X63651080Y-65980485D01*
X63558386Y-66027715D01*
X63392786Y-66148028D01*
X63248028Y-66292786D01*
X63127715Y-66458386D01*
X63034781Y-66640776D01*
X62971522Y-66835465D01*
X62945586Y-66999223D01*
X62939500Y-67037648D01*
X62939500Y-67242352D01*
X62942211Y-67259466D01*
X62971522Y-67444534D01*
X63034781Y-67639223D01*
X63127715Y-67821613D01*
X63248028Y-67987213D01*
X63392786Y-68131971D01*
X63535759Y-68235845D01*
X63558390Y-68252287D01*
X63638003Y-68292852D01*
X63651080Y-68299515D01*
X63701876Y-68347490D01*
X63718671Y-68415311D01*
X63696134Y-68481446D01*
X63651080Y-68520485D01*
X63558386Y-68567715D01*
X63392786Y-68688028D01*
X63248028Y-68832786D01*
X63127715Y-68998386D01*
X63034781Y-69180776D01*
X62971522Y-69375465D01*
X62939500Y-69577648D01*
X62939500Y-69782351D01*
X62971522Y-69984534D01*
X63034781Y-70179223D01*
X63089906Y-70287410D01*
X63121797Y-70350000D01*
X63127715Y-70361613D01*
X63248028Y-70527213D01*
X63392786Y-70671971D01*
X63547749Y-70784556D01*
X63558390Y-70792287D01*
X63649840Y-70838883D01*
X63651080Y-70839515D01*
X63701876Y-70887490D01*
X63718671Y-70955311D01*
X63696134Y-71021446D01*
X63651080Y-71060485D01*
X63558386Y-71107715D01*
X63392786Y-71228028D01*
X63248028Y-71372786D01*
X63127715Y-71538386D01*
X63034781Y-71720776D01*
X62971522Y-71915465D01*
X62941923Y-72102351D01*
X62939500Y-72117648D01*
X62939500Y-72322352D01*
X62941330Y-72333905D01*
X62971522Y-72524534D01*
X63034781Y-72719223D01*
X63127715Y-72901613D01*
X63248028Y-73067213D01*
X63392786Y-73211971D01*
X63547749Y-73324556D01*
X63558390Y-73332287D01*
X63649840Y-73378883D01*
X63651080Y-73379515D01*
X63701876Y-73427490D01*
X63718671Y-73495311D01*
X63696134Y-73561446D01*
X63651080Y-73600485D01*
X63558386Y-73647715D01*
X63392786Y-73768028D01*
X63248028Y-73912786D01*
X63127715Y-74078386D01*
X63034781Y-74260776D01*
X62971522Y-74455465D01*
X62939500Y-74657648D01*
X62939500Y-74862351D01*
X62971522Y-75064534D01*
X63034781Y-75259223D01*
X63098691Y-75384653D01*
X63111737Y-75410256D01*
X63127715Y-75441613D01*
X63248028Y-75607213D01*
X63392786Y-75751971D01*
X63508966Y-75836379D01*
X63558390Y-75872287D01*
X63644081Y-75915949D01*
X63651080Y-75919515D01*
X63701876Y-75967490D01*
X63718671Y-76035311D01*
X63696134Y-76101446D01*
X63651080Y-76140485D01*
X63558386Y-76187715D01*
X63392786Y-76308028D01*
X63248028Y-76452786D01*
X63127715Y-76618386D01*
X63034781Y-76800776D01*
X62971522Y-76995465D01*
X62939500Y-77197648D01*
X62939500Y-77402351D01*
X62971522Y-77604534D01*
X63034781Y-77799223D01*
X63070388Y-77869104D01*
X63125624Y-77977511D01*
X63127715Y-77981613D01*
X63248028Y-78147213D01*
X63392786Y-78291971D01*
X63533586Y-78394266D01*
X63558390Y-78412287D01*
X63626532Y-78447007D01*
X63651080Y-78459515D01*
X63701876Y-78507490D01*
X63718671Y-78575311D01*
X63696134Y-78641446D01*
X63651080Y-78680485D01*
X63558386Y-78727715D01*
X63392786Y-78848028D01*
X63248028Y-78992786D01*
X63127715Y-79158386D01*
X63034781Y-79340776D01*
X62971522Y-79535465D01*
X62939500Y-79737648D01*
X62939500Y-79942351D01*
X62971522Y-80144534D01*
X63034781Y-80339223D01*
X63127715Y-80521613D01*
X63248028Y-80687213D01*
X63392786Y-80831971D01*
X63547749Y-80944556D01*
X63558390Y-80952287D01*
X63649840Y-80998883D01*
X63651080Y-80999515D01*
X63701876Y-81047490D01*
X63718671Y-81115311D01*
X63696134Y-81181446D01*
X63651080Y-81220485D01*
X63558386Y-81267715D01*
X63392786Y-81388028D01*
X63248028Y-81532786D01*
X63127715Y-81698386D01*
X63034781Y-81880776D01*
X62971522Y-82075465D01*
X62939500Y-82277648D01*
X62939500Y-82482351D01*
X62967654Y-82660111D01*
X62958699Y-82729405D01*
X62932862Y-82767190D01*
X57636873Y-88063181D01*
X57575550Y-88096666D01*
X57549192Y-88099500D01*
X50330311Y-88099500D01*
X50263272Y-88079815D01*
X50217517Y-88027011D01*
X50207573Y-87957853D01*
X50212378Y-87937187D01*
X50268477Y-87764534D01*
X50300500Y-87562352D01*
X50300500Y-87357648D01*
X50268477Y-87155466D01*
X50205220Y-86960781D01*
X50205218Y-86960778D01*
X50205218Y-86960776D01*
X50171503Y-86894607D01*
X50112287Y-86778390D01*
X50104556Y-86767749D01*
X49991971Y-86612786D01*
X49847213Y-86468028D01*
X49681614Y-86347715D01*
X49675006Y-86344348D01*
X49588917Y-86300483D01*
X49538123Y-86252511D01*
X49521328Y-86184690D01*
X49543865Y-86118555D01*
X49588917Y-86079516D01*
X49681610Y-86032287D01*
X49702770Y-86016913D01*
X49847213Y-85911971D01*
X49847215Y-85911968D01*
X49847219Y-85911966D01*
X49991966Y-85767219D01*
X49991968Y-85767215D01*
X49991971Y-85767213D01*
X50044732Y-85694590D01*
X50112287Y-85601610D01*
X50205220Y-85419219D01*
X50268477Y-85224534D01*
X50300500Y-85022352D01*
X50300500Y-84817648D01*
X50268477Y-84615466D01*
X50249846Y-84558127D01*
X50211381Y-84439744D01*
X50205220Y-84420781D01*
X50205218Y-84420778D01*
X50205218Y-84420776D01*
X50136634Y-84286174D01*
X50112287Y-84238390D01*
X50071635Y-84182437D01*
X49991971Y-84072786D01*
X49847213Y-83928028D01*
X49681614Y-83807715D01*
X49675006Y-83804348D01*
X49588917Y-83760483D01*
X49538123Y-83712511D01*
X49521328Y-83644690D01*
X49543865Y-83578555D01*
X49588917Y-83539516D01*
X49681610Y-83492287D01*
X49702770Y-83476913D01*
X49847213Y-83371971D01*
X49847215Y-83371968D01*
X49847219Y-83371966D01*
X49991966Y-83227219D01*
X50097753Y-83081613D01*
X50153082Y-83038949D01*
X50198071Y-83030500D01*
X51807236Y-83030500D01*
X51808525Y-83030751D01*
X51871465Y-83030500D01*
X51934069Y-83030500D01*
X51934123Y-83030500D01*
X51935351Y-83030374D01*
X51936649Y-83030240D01*
X51936662Y-83030240D01*
X51976777Y-83022093D01*
X51998078Y-83017768D01*
X51998429Y-83017696D01*
X52059744Y-83005501D01*
X52059756Y-83005495D01*
X52061280Y-83005033D01*
X52061432Y-83004987D01*
X52062217Y-83004748D01*
X52065936Y-83003189D01*
X52120182Y-82980466D01*
X52178127Y-82956465D01*
X52179210Y-82955740D01*
X52180422Y-82955233D01*
X52232432Y-82920180D01*
X52232433Y-82920178D01*
X52232500Y-82920134D01*
X52284669Y-82885276D01*
X52285584Y-82884359D01*
X52286673Y-82883626D01*
X52304854Y-82865299D01*
X52330927Y-82839017D01*
X52375276Y-82794669D01*
X52376002Y-82793582D01*
X52376925Y-82792652D01*
X52411643Y-82740241D01*
X52446465Y-82688127D01*
X52446469Y-82688114D01*
X52447210Y-82686731D01*
X52447210Y-82686730D01*
X52447218Y-82686716D01*
X52447674Y-82685862D01*
X52447687Y-82685829D01*
X52447689Y-82685827D01*
X52471481Y-82627732D01*
X52495501Y-82569744D01*
X52495504Y-82569724D01*
X52495914Y-82568378D01*
X52495914Y-82568376D01*
X52496244Y-82567288D01*
X52504970Y-82522488D01*
X52508239Y-82505702D01*
X52520500Y-82444069D01*
X52520500Y-82444056D01*
X52520630Y-82442742D01*
X52520630Y-82442741D01*
X52520631Y-82442732D01*
X52520749Y-82441525D01*
X52520748Y-82441482D01*
X52520750Y-82441476D01*
X52520500Y-82378763D01*
X52520500Y-82315931D01*
X52520500Y-82312988D01*
X52520215Y-82307427D01*
X52520096Y-82277648D01*
X52478717Y-71897648D01*
X59199500Y-71897648D01*
X59199500Y-72102351D01*
X59231522Y-72304534D01*
X59294781Y-72499223D01*
X59343185Y-72594219D01*
X59386765Y-72679750D01*
X59387715Y-72681613D01*
X59508028Y-72847213D01*
X59652786Y-72991971D01*
X59807749Y-73104556D01*
X59818390Y-73112287D01*
X59934607Y-73171503D01*
X60000776Y-73205218D01*
X60000778Y-73205218D01*
X60000781Y-73205220D01*
X60105137Y-73239127D01*
X60195465Y-73268477D01*
X60296557Y-73284488D01*
X60397648Y-73300500D01*
X60397649Y-73300500D01*
X60602351Y-73300500D01*
X60602352Y-73300500D01*
X60804534Y-73268477D01*
X60999219Y-73205220D01*
X61181610Y-73112287D01*
X61274590Y-73044732D01*
X61347213Y-72991971D01*
X61347215Y-72991968D01*
X61347219Y-72991966D01*
X61491966Y-72847219D01*
X61491968Y-72847215D01*
X61491971Y-72847213D01*
X61544732Y-72774590D01*
X61612287Y-72681610D01*
X61705220Y-72499219D01*
X61768477Y-72304534D01*
X61800500Y-72102352D01*
X61800500Y-71897648D01*
X61768477Y-71695466D01*
X61705220Y-71500781D01*
X61705218Y-71500778D01*
X61705218Y-71500776D01*
X61640003Y-71372786D01*
X61612287Y-71318390D01*
X61604556Y-71307749D01*
X61491971Y-71152786D01*
X61347213Y-71008028D01*
X61181613Y-70887715D01*
X61181612Y-70887714D01*
X61181610Y-70887713D01*
X61124653Y-70858691D01*
X60999223Y-70794781D01*
X60804534Y-70731522D01*
X60629995Y-70703878D01*
X60602352Y-70699500D01*
X60397648Y-70699500D01*
X60373329Y-70703351D01*
X60195465Y-70731522D01*
X60000776Y-70794781D01*
X59818386Y-70887715D01*
X59652786Y-71008028D01*
X59508028Y-71152786D01*
X59387715Y-71318386D01*
X59294781Y-71500776D01*
X59231522Y-71695465D01*
X59199500Y-71897648D01*
X52478717Y-71897648D01*
X52467141Y-68993782D01*
X52477384Y-68943942D01*
X53001516Y-67735845D01*
X54674279Y-67735845D01*
X55568498Y-67735845D01*
X55535585Y-67792852D01*
X55501510Y-67920019D01*
X55501510Y-68051671D01*
X55535585Y-68178838D01*
X55568498Y-68235845D01*
X54674279Y-68235845D01*
X54684752Y-68301971D01*
X54684752Y-68301974D01*
X54750414Y-68504062D01*
X54846889Y-68693402D01*
X54971782Y-68865304D01*
X54971786Y-68865309D01*
X55122045Y-69015568D01*
X55122050Y-69015572D01*
X55293952Y-69140465D01*
X55483292Y-69236940D01*
X55685381Y-69302602D01*
X55751510Y-69313076D01*
X55751510Y-68418857D01*
X55808517Y-68451770D01*
X55935684Y-68485845D01*
X56067336Y-68485845D01*
X56194503Y-68451770D01*
X56251510Y-68418857D01*
X56251510Y-69313075D01*
X56317636Y-69302602D01*
X56317639Y-69302602D01*
X56519727Y-69236940D01*
X56709067Y-69140465D01*
X56880969Y-69015572D01*
X56880974Y-69015568D01*
X57031233Y-68865309D01*
X57031237Y-68865304D01*
X57156130Y-68693402D01*
X57252605Y-68504062D01*
X57318267Y-68301974D01*
X57318267Y-68301971D01*
X57328741Y-68235845D01*
X56434522Y-68235845D01*
X56467435Y-68178838D01*
X56501510Y-68051671D01*
X56501510Y-67920019D01*
X56467435Y-67792852D01*
X56434522Y-67735845D01*
X57382356Y-67735845D01*
X57449395Y-67755530D01*
X57470036Y-67772163D01*
X57477505Y-67779632D01*
X57477509Y-67779635D01*
X57477511Y-67779637D01*
X57524187Y-67817253D01*
X57655101Y-67877040D01*
X57655102Y-67877040D01*
X57655104Y-67877041D01*
X57797561Y-67897522D01*
X57940018Y-67877041D01*
X58070934Y-67817253D01*
X58117617Y-67779634D01*
X59387399Y-66509850D01*
X59425020Y-66463167D01*
X59484808Y-66332251D01*
X59505289Y-66189794D01*
X59484808Y-66047337D01*
X59483640Y-66044780D01*
X59425021Y-65916423D01*
X59425020Y-65916422D01*
X59425020Y-65916421D01*
X59387401Y-65869738D01*
X59387396Y-65869733D01*
X59387392Y-65869728D01*
X59017559Y-65499896D01*
X58117620Y-64599959D01*
X58117614Y-64599954D01*
X58117610Y-64599950D01*
X58070934Y-64562334D01*
X57940020Y-64502547D01*
X57940016Y-64502546D01*
X57797561Y-64482066D01*
X57655105Y-64502546D01*
X57655101Y-64502547D01*
X57524190Y-64562333D01*
X57477495Y-64599962D01*
X56207726Y-65869734D01*
X56207717Y-65869744D01*
X56170101Y-65916420D01*
X56110314Y-66047334D01*
X56110313Y-66047338D01*
X56089833Y-66189794D01*
X56110313Y-66332249D01*
X56110314Y-66332253D01*
X56170101Y-66463166D01*
X56170102Y-66463168D01*
X56207712Y-66509839D01*
X56207712Y-66509840D01*
X56207715Y-66509843D01*
X56207721Y-66509850D01*
X56215189Y-66517318D01*
X56248675Y-66578636D01*
X56251510Y-66605000D01*
X56251510Y-67552833D01*
X56194503Y-67519920D01*
X56067336Y-67485845D01*
X55935684Y-67485845D01*
X55808517Y-67519920D01*
X55751510Y-67552833D01*
X55751510Y-66658613D01*
X55751509Y-66658613D01*
X55685385Y-66669086D01*
X55483294Y-66734748D01*
X55293952Y-66831224D01*
X55122050Y-66956117D01*
X55122045Y-66956121D01*
X54971786Y-67106380D01*
X54971782Y-67106385D01*
X54846889Y-67278287D01*
X54750414Y-67467627D01*
X54684752Y-67669715D01*
X54684752Y-67669718D01*
X54674279Y-67735845D01*
X53001516Y-67735845D01*
X54501839Y-64277682D01*
X59200000Y-64277682D01*
X59200000Y-64482317D01*
X59232009Y-64684417D01*
X59295244Y-64879031D01*
X59388141Y-65061350D01*
X59388147Y-65061359D01*
X59420523Y-65105921D01*
X59420524Y-65105922D01*
X60100000Y-64426446D01*
X60100000Y-64432661D01*
X60127259Y-64534394D01*
X60179920Y-64625606D01*
X60254394Y-64700080D01*
X60345606Y-64752741D01*
X60447339Y-64780000D01*
X60453553Y-64780000D01*
X59774076Y-65459474D01*
X59818650Y-65491859D01*
X60000968Y-65584755D01*
X60195582Y-65647990D01*
X60397683Y-65680000D01*
X60602317Y-65680000D01*
X60804417Y-65647990D01*
X60999031Y-65584755D01*
X61181349Y-65491859D01*
X61225921Y-65459474D01*
X60546447Y-64780000D01*
X60552661Y-64780000D01*
X60654394Y-64752741D01*
X60745606Y-64700080D01*
X60820080Y-64625606D01*
X60872741Y-64534394D01*
X60900000Y-64432661D01*
X60900000Y-64426447D01*
X61579474Y-65105921D01*
X61611859Y-65061349D01*
X61704755Y-64879031D01*
X61767990Y-64684417D01*
X61800000Y-64482317D01*
X61800000Y-64277682D01*
X61767990Y-64075582D01*
X61704755Y-63880968D01*
X61611859Y-63698650D01*
X61579474Y-63654077D01*
X61579474Y-63654076D01*
X60900000Y-64333551D01*
X60900000Y-64327339D01*
X60872741Y-64225606D01*
X60820080Y-64134394D01*
X60745606Y-64059920D01*
X60654394Y-64007259D01*
X60552661Y-63980000D01*
X60546446Y-63980000D01*
X61225922Y-63300524D01*
X61225921Y-63300523D01*
X61181359Y-63268147D01*
X61181350Y-63268141D01*
X60999031Y-63175244D01*
X60804417Y-63112009D01*
X60602317Y-63080000D01*
X60397683Y-63080000D01*
X60195582Y-63112009D01*
X60000968Y-63175244D01*
X59818644Y-63268143D01*
X59774077Y-63300523D01*
X59774077Y-63300524D01*
X60453554Y-63980000D01*
X60447339Y-63980000D01*
X60345606Y-64007259D01*
X60254394Y-64059920D01*
X60179920Y-64134394D01*
X60127259Y-64225606D01*
X60100000Y-64327339D01*
X60100000Y-64333553D01*
X59420524Y-63654077D01*
X59420523Y-63654077D01*
X59388143Y-63698644D01*
X59295244Y-63880968D01*
X59232009Y-64075582D01*
X59200000Y-64277682D01*
X54501839Y-64277682D01*
X54538104Y-64194092D01*
X54564173Y-64155771D01*
X56383127Y-62336818D01*
X56444450Y-62303333D01*
X56470808Y-62300499D01*
X58047871Y-62300499D01*
X58047872Y-62300499D01*
X58107483Y-62294091D01*
X58242331Y-62243796D01*
X58357546Y-62157546D01*
X58443796Y-62042331D01*
X58494091Y-61907483D01*
X58500500Y-61847873D01*
X58500499Y-59752128D01*
X58494091Y-59692517D01*
X58483227Y-59663390D01*
X58443797Y-59557671D01*
X58443793Y-59557664D01*
X58357547Y-59442455D01*
X58357544Y-59442452D01*
X58242335Y-59356206D01*
X58242328Y-59356202D01*
X58107482Y-59305908D01*
X58107483Y-59305908D01*
X58047883Y-59299501D01*
X58047881Y-59299500D01*
X58047873Y-59299500D01*
X58047864Y-59299500D01*
X55952129Y-59299500D01*
X55952123Y-59299501D01*
X55892516Y-59305908D01*
X55757671Y-59356202D01*
X55757664Y-59356206D01*
X55642455Y-59442452D01*
X55642452Y-59442455D01*
X55556206Y-59557664D01*
X55556202Y-59557671D01*
X55505908Y-59692517D01*
X55501626Y-59732351D01*
X55499501Y-59752123D01*
X55499500Y-59752135D01*
X55499500Y-61329191D01*
X55479815Y-61396230D01*
X55463181Y-61416872D01*
X54087680Y-62792372D01*
X54026357Y-62825857D01*
X53956665Y-62820873D01*
X53912318Y-62792372D01*
X52186819Y-61066873D01*
X52153334Y-61005550D01*
X52150500Y-60979192D01*
X52150500Y-57285947D01*
X52428000Y-57285947D01*
X52428000Y-57522052D01*
X52464934Y-57755247D01*
X52537897Y-57979802D01*
X52645087Y-58190174D01*
X52705338Y-58273104D01*
X52705340Y-58273105D01*
X53445037Y-57533408D01*
X53462075Y-57596993D01*
X53527901Y-57711007D01*
X53620993Y-57804099D01*
X53735007Y-57869925D01*
X53798590Y-57886962D01*
X53058893Y-58626658D01*
X53141828Y-58686914D01*
X53352197Y-58794102D01*
X53576752Y-58867065D01*
X53576751Y-58867065D01*
X53809948Y-58904000D01*
X54046052Y-58904000D01*
X54279247Y-58867065D01*
X54503802Y-58794102D01*
X54714163Y-58686918D01*
X54714169Y-58686914D01*
X54797104Y-58626658D01*
X54797105Y-58626658D01*
X54057408Y-57886962D01*
X54120993Y-57869925D01*
X54235007Y-57804099D01*
X54328099Y-57711007D01*
X54393925Y-57596993D01*
X54410962Y-57533408D01*
X55150658Y-58273105D01*
X55150658Y-58273104D01*
X55210914Y-58190169D01*
X55210918Y-58190163D01*
X55318102Y-57979802D01*
X55391065Y-57755247D01*
X55428000Y-57522052D01*
X55428000Y-57285947D01*
X55391065Y-57052752D01*
X55318102Y-56828197D01*
X55210914Y-56617828D01*
X55150658Y-56534894D01*
X55150658Y-56534893D01*
X54410962Y-57274590D01*
X54393925Y-57211007D01*
X54328099Y-57096993D01*
X54235007Y-57003901D01*
X54120993Y-56938075D01*
X54057409Y-56921037D01*
X54622311Y-56356135D01*
X57427500Y-56356135D01*
X57427500Y-58451870D01*
X57427501Y-58451876D01*
X57433908Y-58511483D01*
X57484202Y-58646328D01*
X57484206Y-58646335D01*
X57570452Y-58761544D01*
X57570455Y-58761547D01*
X57685664Y-58847793D01*
X57685671Y-58847797D01*
X57820517Y-58898091D01*
X57820516Y-58898091D01*
X57827444Y-58898835D01*
X57880127Y-58904500D01*
X59975872Y-58904499D01*
X60035483Y-58898091D01*
X60170331Y-58847796D01*
X60285546Y-58761546D01*
X60371796Y-58646331D01*
X60422091Y-58511483D01*
X60428500Y-58451873D01*
X60428499Y-56356128D01*
X60422091Y-56296517D01*
X60388514Y-56206493D01*
X60371797Y-56161671D01*
X60371793Y-56161664D01*
X60285547Y-56046455D01*
X60285544Y-56046452D01*
X60170335Y-55960206D01*
X60170328Y-55960202D01*
X60035482Y-55909908D01*
X60035483Y-55909908D01*
X59975883Y-55903501D01*
X59975881Y-55903500D01*
X59975873Y-55903500D01*
X59975864Y-55903500D01*
X57880129Y-55903500D01*
X57880123Y-55903501D01*
X57820516Y-55909908D01*
X57685671Y-55960202D01*
X57685664Y-55960206D01*
X57570455Y-56046452D01*
X57570452Y-56046455D01*
X57484206Y-56161664D01*
X57484202Y-56161671D01*
X57433908Y-56296517D01*
X57427501Y-56356116D01*
X57427501Y-56356123D01*
X57427500Y-56356135D01*
X54622311Y-56356135D01*
X54713321Y-56265125D01*
X54797105Y-56181340D01*
X54797104Y-56181338D01*
X54714174Y-56121087D01*
X54503802Y-56013897D01*
X54279247Y-55940934D01*
X54279248Y-55940934D01*
X54046052Y-55904000D01*
X53809948Y-55904000D01*
X53576752Y-55940934D01*
X53352197Y-56013897D01*
X53141830Y-56121084D01*
X53058894Y-56181340D01*
X53798591Y-56921037D01*
X53735007Y-56938075D01*
X53620993Y-57003901D01*
X53527901Y-57096993D01*
X53462075Y-57211007D01*
X53445037Y-57274591D01*
X52705340Y-56534894D01*
X52645084Y-56617830D01*
X52537897Y-56828197D01*
X52464934Y-57052752D01*
X52428000Y-57285947D01*
X52150500Y-57285947D01*
X52150500Y-55653804D01*
X52152883Y-55629611D01*
X52157842Y-55604685D01*
X52163974Y-55573857D01*
X52169750Y-55544820D01*
X52169750Y-53081947D01*
X55500000Y-53081947D01*
X55500000Y-53318052D01*
X55536934Y-53551247D01*
X55609897Y-53775802D01*
X55717087Y-53986174D01*
X55777338Y-54069104D01*
X55777340Y-54069105D01*
X56476212Y-53370233D01*
X56487482Y-53412292D01*
X56559890Y-53537708D01*
X56662292Y-53640110D01*
X56787708Y-53712518D01*
X56829765Y-53723787D01*
X56130893Y-54422658D01*
X56213828Y-54482914D01*
X56424197Y-54590102D01*
X56648752Y-54663065D01*
X56648751Y-54663065D01*
X56881948Y-54700000D01*
X57118052Y-54700000D01*
X57351247Y-54663065D01*
X57575802Y-54590102D01*
X57786163Y-54482918D01*
X57786169Y-54482914D01*
X57869104Y-54422658D01*
X57869105Y-54422658D01*
X57866904Y-54420457D01*
X57170233Y-53723787D01*
X57212292Y-53712518D01*
X57337708Y-53640110D01*
X57440110Y-53537708D01*
X57512518Y-53412292D01*
X57523787Y-53370233D01*
X58222658Y-54069105D01*
X58222658Y-54069104D01*
X58282914Y-53986169D01*
X58282918Y-53986163D01*
X58390102Y-53775802D01*
X58463065Y-53551247D01*
X58500000Y-53318052D01*
X58500000Y-53081947D01*
X58463065Y-52848752D01*
X58390102Y-52624197D01*
X58282914Y-52413828D01*
X58222658Y-52330894D01*
X58222658Y-52330893D01*
X57523787Y-53029765D01*
X57512518Y-52987708D01*
X57440110Y-52862292D01*
X57337708Y-52759890D01*
X57212292Y-52687482D01*
X57170234Y-52676212D01*
X57869105Y-51977340D01*
X57869104Y-51977338D01*
X57786174Y-51917087D01*
X57575802Y-51809897D01*
X57351247Y-51736934D01*
X57351248Y-51736934D01*
X57118052Y-51700000D01*
X56881948Y-51700000D01*
X56648752Y-51736934D01*
X56424197Y-51809897D01*
X56213830Y-51917084D01*
X56130894Y-51977340D01*
X56829766Y-52676212D01*
X56787708Y-52687482D01*
X56662292Y-52759890D01*
X56559890Y-52862292D01*
X56487482Y-52987708D01*
X56476212Y-53029766D01*
X55777340Y-52330894D01*
X55717084Y-52413830D01*
X55609897Y-52624197D01*
X55536934Y-52848752D01*
X55500000Y-53081947D01*
X52169750Y-53081947D01*
X52169750Y-49009104D01*
X52189435Y-48942065D01*
X52220862Y-48908788D01*
X52271356Y-48872103D01*
X52399853Y-48743606D01*
X52506667Y-48596590D01*
X52589167Y-48434674D01*
X52633336Y-48298736D01*
X52645321Y-48261850D01*
X52645322Y-48261845D01*
X52646777Y-48252661D01*
X52676706Y-48189526D01*
X52736017Y-48152594D01*
X52805880Y-48153592D01*
X52864113Y-48192201D01*
X52891723Y-48252661D01*
X52893177Y-48261845D01*
X52893178Y-48261850D01*
X52949331Y-48434671D01*
X52949333Y-48434674D01*
X53031833Y-48596590D01*
X53138647Y-48743606D01*
X53267144Y-48872103D01*
X53414160Y-48978917D01*
X53576076Y-49061417D01*
X53576078Y-49061418D01*
X53701883Y-49102294D01*
X53748904Y-49117572D01*
X53928389Y-49146000D01*
X53928390Y-49146000D01*
X54110110Y-49146000D01*
X54110111Y-49146000D01*
X54289596Y-49117572D01*
X54289599Y-49117571D01*
X54289600Y-49117571D01*
X54462421Y-49061418D01*
X54462421Y-49061417D01*
X54462424Y-49061417D01*
X54624340Y-48978917D01*
X54771356Y-48872103D01*
X54899853Y-48743606D01*
X55006667Y-48596590D01*
X55089167Y-48434674D01*
X55133336Y-48298736D01*
X55145321Y-48261850D01*
X55145321Y-48261849D01*
X55145322Y-48261846D01*
X55173750Y-48082361D01*
X55173750Y-47243879D01*
X55568750Y-47243879D01*
X55568750Y-47431120D01*
X55605275Y-47614743D01*
X55605277Y-47614751D01*
X55676926Y-47787728D01*
X55676931Y-47787737D01*
X55780947Y-47943407D01*
X55780950Y-47943411D01*
X55913338Y-48075799D01*
X55913342Y-48075802D01*
X56069012Y-48179818D01*
X56069018Y-48179821D01*
X56069019Y-48179822D01*
X56241999Y-48251473D01*
X56425629Y-48287999D01*
X56425633Y-48288000D01*
X56425634Y-48288000D01*
X56612867Y-48288000D01*
X56612868Y-48287999D01*
X56796501Y-48251473D01*
X56969481Y-48179822D01*
X57125158Y-48075802D01*
X57257552Y-47943408D01*
X57361572Y-47787731D01*
X57433223Y-47614751D01*
X57469750Y-47431116D01*
X57469750Y-47243884D01*
X57433223Y-47060249D01*
X57361572Y-46887269D01*
X57361571Y-46887268D01*
X57361568Y-46887262D01*
X57257552Y-46731592D01*
X57257549Y-46731588D01*
X57125161Y-46599200D01*
X57125157Y-46599197D01*
X56969487Y-46495181D01*
X56969478Y-46495176D01*
X56796501Y-46423527D01*
X56796493Y-46423525D01*
X56612870Y-46387000D01*
X56612866Y-46387000D01*
X56425634Y-46387000D01*
X56425629Y-46387000D01*
X56242006Y-46423525D01*
X56241998Y-46423527D01*
X56069021Y-46495176D01*
X56069012Y-46495181D01*
X55913342Y-46599197D01*
X55913338Y-46599200D01*
X55780950Y-46731588D01*
X55780947Y-46731592D01*
X55676931Y-46887262D01*
X55676926Y-46887271D01*
X55605277Y-47060248D01*
X55605275Y-47060256D01*
X55568750Y-47243879D01*
X55173750Y-47243879D01*
X55173750Y-46592639D01*
X55145322Y-46413154D01*
X55145321Y-46413150D01*
X55145321Y-46413149D01*
X55089168Y-46240328D01*
X55089166Y-46240325D01*
X55006666Y-46078409D01*
X54899853Y-45931394D01*
X54771356Y-45802897D01*
X54624340Y-45696083D01*
X54462424Y-45613583D01*
X54462421Y-45613581D01*
X54289598Y-45557428D01*
X54169939Y-45538476D01*
X54110111Y-45529000D01*
X53928389Y-45529000D01*
X53868560Y-45538476D01*
X53748902Y-45557428D01*
X53748899Y-45557428D01*
X53576078Y-45613581D01*
X53576075Y-45613583D01*
X53414159Y-45696083D01*
X53359390Y-45735876D01*
X53267144Y-45802897D01*
X53267142Y-45802899D01*
X53267141Y-45802899D01*
X53138649Y-45931391D01*
X53138649Y-45931392D01*
X53138647Y-45931394D01*
X53092775Y-45994530D01*
X53031833Y-46078409D01*
X52949333Y-46240325D01*
X52949331Y-46240328D01*
X52893178Y-46413149D01*
X52893178Y-46413150D01*
X52891723Y-46422340D01*
X52861793Y-46485474D01*
X52802482Y-46522405D01*
X52732619Y-46521407D01*
X52674387Y-46482797D01*
X52646777Y-46422340D01*
X52645321Y-46413150D01*
X52645321Y-46413149D01*
X52589168Y-46240328D01*
X52589166Y-46240325D01*
X52506666Y-46078409D01*
X52399853Y-45931394D01*
X52271356Y-45802897D01*
X52124340Y-45696083D01*
X51962424Y-45613583D01*
X51962421Y-45613581D01*
X51789598Y-45557428D01*
X51669939Y-45538476D01*
X51610111Y-45529000D01*
X51428389Y-45529000D01*
X51368560Y-45538476D01*
X51248902Y-45557428D01*
X51248899Y-45557428D01*
X51076078Y-45613581D01*
X51076075Y-45613583D01*
X50914159Y-45696083D01*
X50859390Y-45735876D01*
X50767144Y-45802897D01*
X50767142Y-45802899D01*
X50767141Y-45802899D01*
X50638649Y-45931391D01*
X50638649Y-45931392D01*
X50638647Y-45931394D01*
X50592775Y-45994530D01*
X50531833Y-46078409D01*
X50449333Y-46240325D01*
X50449331Y-46240328D01*
X50393178Y-46413149D01*
X50393178Y-46413152D01*
X50364750Y-46592639D01*
X50364750Y-48082360D01*
X50393178Y-48261847D01*
X50393178Y-48261850D01*
X50449331Y-48434671D01*
X50449333Y-48434674D01*
X50531833Y-48596590D01*
X50638647Y-48743606D01*
X50767144Y-48872103D01*
X50817635Y-48908787D01*
X50860301Y-48964115D01*
X50868750Y-49009104D01*
X50868750Y-55326944D01*
X50866367Y-55351136D01*
X50849500Y-55435928D01*
X50849500Y-55435931D01*
X50849500Y-61364069D01*
X50863795Y-61435931D01*
X50874499Y-61489744D01*
X50923534Y-61608125D01*
X50994726Y-61714673D01*
X50994727Y-61714674D01*
X53167466Y-63887412D01*
X53200951Y-63948735D01*
X53195967Y-64018427D01*
X53193540Y-64024446D01*
X51246395Y-68512510D01*
X51246395Y-68512511D01*
X51242046Y-68522533D01*
X51238311Y-68528173D01*
X51216586Y-68581215D01*
X51216068Y-68582411D01*
X51216059Y-68582433D01*
X51193742Y-68633874D01*
X51192311Y-68640491D01*
X51189748Y-68646751D01*
X51178784Y-68703032D01*
X51178512Y-68704294D01*
X51166657Y-68759115D01*
X51165959Y-68765169D01*
X51165662Y-68765134D01*
X51165525Y-68766434D01*
X51165823Y-68766463D01*
X51165250Y-68772529D01*
X51165472Y-68828630D01*
X51165477Y-68829958D01*
X51164525Y-68887234D01*
X51165732Y-68893884D01*
X51165776Y-68904802D01*
X51165776Y-68904803D01*
X51194430Y-76092511D01*
X51214438Y-81111523D01*
X51216406Y-81605006D01*
X51196989Y-81672123D01*
X51144368Y-81718088D01*
X51092407Y-81729500D01*
X50198071Y-81729500D01*
X50131032Y-81709815D01*
X50097754Y-81678386D01*
X49991966Y-81532781D01*
X49847219Y-81388034D01*
X49847213Y-81388028D01*
X49681614Y-81267715D01*
X49675006Y-81264348D01*
X49588917Y-81220483D01*
X49538123Y-81172511D01*
X49521328Y-81104690D01*
X49543865Y-81038555D01*
X49588917Y-80999516D01*
X49681610Y-80952287D01*
X49702770Y-80936913D01*
X49847213Y-80831971D01*
X49847215Y-80831968D01*
X49847219Y-80831966D01*
X49991966Y-80687219D01*
X49991968Y-80687215D01*
X49991971Y-80687213D01*
X50044732Y-80614590D01*
X50112287Y-80521610D01*
X50205220Y-80339219D01*
X50268477Y-80144534D01*
X50300500Y-79942352D01*
X50300500Y-79737648D01*
X50268477Y-79535466D01*
X50205220Y-79340781D01*
X50205218Y-79340778D01*
X50205218Y-79340776D01*
X50171503Y-79274607D01*
X50112287Y-79158390D01*
X50104556Y-79147749D01*
X49991971Y-78992786D01*
X49847213Y-78848028D01*
X49681614Y-78727715D01*
X49675006Y-78724348D01*
X49588917Y-78680483D01*
X49538123Y-78632511D01*
X49521328Y-78564690D01*
X49543865Y-78498555D01*
X49588917Y-78459516D01*
X49681610Y-78412287D01*
X49747977Y-78364069D01*
X49847213Y-78291971D01*
X49847215Y-78291968D01*
X49847219Y-78291966D01*
X49991966Y-78147219D01*
X49991968Y-78147215D01*
X49991971Y-78147213D01*
X50076920Y-78030289D01*
X50112287Y-77981610D01*
X50205220Y-77799219D01*
X50268477Y-77604534D01*
X50300500Y-77402352D01*
X50300500Y-77197648D01*
X50268477Y-76995466D01*
X50205220Y-76800781D01*
X50205218Y-76800778D01*
X50205218Y-76800776D01*
X50171503Y-76734607D01*
X50112287Y-76618390D01*
X50068504Y-76558127D01*
X49991971Y-76452786D01*
X49847213Y-76308028D01*
X49681614Y-76187715D01*
X49666050Y-76179785D01*
X49588917Y-76140483D01*
X49538123Y-76092511D01*
X49521328Y-76024690D01*
X49543865Y-75958555D01*
X49588917Y-75919516D01*
X49681610Y-75872287D01*
X49731034Y-75836379D01*
X49847213Y-75751971D01*
X49847215Y-75751968D01*
X49847219Y-75751966D01*
X49991966Y-75607219D01*
X49991968Y-75607215D01*
X49991971Y-75607213D01*
X50069865Y-75499999D01*
X50112287Y-75441610D01*
X50205220Y-75259219D01*
X50268477Y-75064534D01*
X50300500Y-74862352D01*
X50300500Y-74657648D01*
X50268477Y-74455465D01*
X50205218Y-74260776D01*
X50171503Y-74194607D01*
X50112287Y-74078390D01*
X50104556Y-74067749D01*
X49991971Y-73912786D01*
X49847213Y-73768028D01*
X49681614Y-73647715D01*
X49675006Y-73644348D01*
X49588917Y-73600483D01*
X49538123Y-73552511D01*
X49521328Y-73484690D01*
X49543865Y-73418555D01*
X49588917Y-73379516D01*
X49681610Y-73332287D01*
X49702770Y-73316913D01*
X49847213Y-73211971D01*
X49847215Y-73211968D01*
X49847219Y-73211966D01*
X49991966Y-73067219D01*
X49991968Y-73067215D01*
X49991971Y-73067213D01*
X50046640Y-72991966D01*
X50112287Y-72901610D01*
X50205220Y-72719219D01*
X50268477Y-72524534D01*
X50300500Y-72322352D01*
X50300500Y-72117648D01*
X50268477Y-71915466D01*
X50205220Y-71720781D01*
X50205218Y-71720778D01*
X50205218Y-71720776D01*
X50171503Y-71654607D01*
X50112287Y-71538390D01*
X50084959Y-71500776D01*
X49991971Y-71372786D01*
X49847213Y-71228028D01*
X49681614Y-71107715D01*
X49675006Y-71104348D01*
X49588917Y-71060483D01*
X49538123Y-71012511D01*
X49521328Y-70944690D01*
X49543865Y-70878555D01*
X49588917Y-70839516D01*
X49681610Y-70792287D01*
X49702770Y-70776913D01*
X49847213Y-70671971D01*
X49847215Y-70671968D01*
X49847219Y-70671966D01*
X49991966Y-70527219D01*
X49991968Y-70527215D01*
X49991971Y-70527213D01*
X50044732Y-70454590D01*
X50112287Y-70361610D01*
X50205220Y-70179219D01*
X50268477Y-69984534D01*
X50300500Y-69782352D01*
X50300500Y-69577648D01*
X50268477Y-69375466D01*
X50205220Y-69180781D01*
X50205218Y-69180778D01*
X50205218Y-69180776D01*
X50138838Y-69050500D01*
X50112287Y-68998390D01*
X50090055Y-68967790D01*
X49991971Y-68832786D01*
X49847213Y-68688028D01*
X49681614Y-68567715D01*
X49658555Y-68555966D01*
X49588917Y-68520483D01*
X49538123Y-68472511D01*
X49521328Y-68404690D01*
X49543865Y-68338555D01*
X49588917Y-68299516D01*
X49681610Y-68252287D01*
X49782705Y-68178838D01*
X49847213Y-68131971D01*
X49847215Y-68131968D01*
X49847219Y-68131966D01*
X49991966Y-67987219D01*
X49991968Y-67987215D01*
X49991971Y-67987213D01*
X50078195Y-67868534D01*
X50112287Y-67821610D01*
X50205220Y-67639219D01*
X50268477Y-67444534D01*
X50300500Y-67242352D01*
X50300500Y-67037648D01*
X50268477Y-66835466D01*
X50205220Y-66640781D01*
X50205218Y-66640778D01*
X50205218Y-66640776D01*
X50168333Y-66568386D01*
X50112287Y-66458390D01*
X50071885Y-66402781D01*
X49991971Y-66292786D01*
X49847213Y-66148028D01*
X49681614Y-66027715D01*
X49628743Y-66000776D01*
X49588917Y-65980483D01*
X49538123Y-65932511D01*
X49521328Y-65864690D01*
X49543865Y-65798555D01*
X49588917Y-65759516D01*
X49681610Y-65712287D01*
X49726050Y-65680000D01*
X49847213Y-65591971D01*
X49847215Y-65591968D01*
X49847219Y-65591966D01*
X49991966Y-65447219D01*
X49991968Y-65447215D01*
X49991971Y-65447213D01*
X50102381Y-65295244D01*
X50112287Y-65281610D01*
X50205220Y-65099219D01*
X50268477Y-64904534D01*
X50300500Y-64702352D01*
X50300500Y-64497648D01*
X50268477Y-64295466D01*
X50245880Y-64225921D01*
X50223086Y-64155768D01*
X50205220Y-64100781D01*
X50205218Y-64100778D01*
X50205218Y-64100776D01*
X50163258Y-64018427D01*
X50112287Y-63918390D01*
X50098926Y-63900000D01*
X49991971Y-63752786D01*
X49847213Y-63608028D01*
X49681611Y-63487713D01*
X49588369Y-63440203D01*
X49537574Y-63392229D01*
X49520779Y-63324407D01*
X49543317Y-63258273D01*
X49588371Y-63219234D01*
X49681347Y-63171861D01*
X49846894Y-63051582D01*
X49846895Y-63051582D01*
X49991582Y-62906895D01*
X49991582Y-62906894D01*
X50111859Y-62741349D01*
X50204755Y-62559029D01*
X50267990Y-62364413D01*
X50276609Y-62310000D01*
X49433012Y-62310000D01*
X49465925Y-62252993D01*
X49500000Y-62125826D01*
X49500000Y-61994174D01*
X49465925Y-61867007D01*
X49433012Y-61810000D01*
X50276609Y-61810000D01*
X50267990Y-61755586D01*
X50204755Y-61560970D01*
X50111859Y-61378650D01*
X49991582Y-61213105D01*
X49991582Y-61213104D01*
X49846895Y-61068417D01*
X49681349Y-60948140D01*
X49588370Y-60900765D01*
X49537574Y-60852790D01*
X49520779Y-60784969D01*
X49543316Y-60718835D01*
X49588370Y-60679795D01*
X49607747Y-60669922D01*
X49681610Y-60632287D01*
X49702770Y-60616913D01*
X49847213Y-60511971D01*
X49847215Y-60511968D01*
X49847219Y-60511966D01*
X49991966Y-60367219D01*
X49991968Y-60367215D01*
X49991971Y-60367213D01*
X50049810Y-60287603D01*
X50112287Y-60201610D01*
X50205220Y-60019219D01*
X50268477Y-59824534D01*
X50300500Y-59622352D01*
X50300500Y-59417648D01*
X50275950Y-59262650D01*
X50268477Y-59215465D01*
X50205218Y-59020776D01*
X50156305Y-58924780D01*
X50112287Y-58838390D01*
X50104556Y-58827749D01*
X49991971Y-58672786D01*
X49847213Y-58528028D01*
X49681614Y-58407715D01*
X49635041Y-58383985D01*
X49588917Y-58360483D01*
X49538123Y-58312511D01*
X49521328Y-58244690D01*
X49543865Y-58178555D01*
X49588917Y-58139516D01*
X49681610Y-58092287D01*
X49836434Y-57979802D01*
X49847213Y-57971971D01*
X49847215Y-57971968D01*
X49847219Y-57971966D01*
X49991966Y-57827219D01*
X49991968Y-57827215D01*
X49991971Y-57827213D01*
X50076398Y-57711007D01*
X50112287Y-57661610D01*
X50205220Y-57479219D01*
X50268477Y-57284534D01*
X50300500Y-57082352D01*
X50300500Y-56877648D01*
X50286144Y-56787007D01*
X50268477Y-56675465D01*
X50205218Y-56480776D01*
X50152655Y-56377617D01*
X50112287Y-56298390D01*
X50088119Y-56265125D01*
X49991971Y-56132786D01*
X49847219Y-55988034D01*
X49810930Y-55961669D01*
X49768264Y-55906339D01*
X49762285Y-55836726D01*
X49794890Y-55774931D01*
X49855728Y-55740573D01*
X49870562Y-55738060D01*
X49907483Y-55734091D01*
X50042328Y-55683797D01*
X50042327Y-55683797D01*
X50042331Y-55683796D01*
X50157546Y-55597546D01*
X50243796Y-55482331D01*
X50294091Y-55347483D01*
X50300500Y-55287873D01*
X50300499Y-53592128D01*
X50294091Y-53532517D01*
X50288548Y-53517656D01*
X50243797Y-53397671D01*
X50243793Y-53397664D01*
X50157547Y-53282455D01*
X50157544Y-53282452D01*
X50042335Y-53196206D01*
X50042328Y-53196202D01*
X49907482Y-53145908D01*
X49907483Y-53145908D01*
X49847883Y-53139501D01*
X49847881Y-53139500D01*
X49847873Y-53139500D01*
X49847865Y-53139500D01*
X48248724Y-53139500D01*
X48181685Y-53119815D01*
X48135930Y-53067012D01*
X48127511Y-53048578D01*
X48127510Y-53048577D01*
X48127510Y-53048576D01*
X48089891Y-53001893D01*
X48089886Y-53001888D01*
X48089882Y-53001883D01*
X46820110Y-51732114D01*
X46820104Y-51732109D01*
X46820100Y-51732105D01*
X46773424Y-51694489D01*
X46642510Y-51634702D01*
X46642506Y-51634701D01*
X46500051Y-51614221D01*
X46357595Y-51634701D01*
X46357591Y-51634702D01*
X46226680Y-51694488D01*
X46179985Y-51732117D01*
X44910216Y-53001889D01*
X44910194Y-53001914D01*
X44909943Y-53002226D01*
X44909866Y-53002279D01*
X44907989Y-53004369D01*
X44907494Y-53003925D01*
X44852544Y-53042065D01*
X44782719Y-53044547D01*
X44722636Y-53008884D01*
X44691371Y-52946400D01*
X44689405Y-52924404D01*
X44689405Y-50527454D01*
X44709090Y-50460415D01*
X44757110Y-50416969D01*
X44772927Y-50408910D01*
X44951270Y-50279337D01*
X45107147Y-50123460D01*
X45236720Y-49945117D01*
X45336800Y-49748701D01*
X45404920Y-49539046D01*
X45439405Y-49321317D01*
X45439405Y-49100873D01*
X45404920Y-48883144D01*
X45344676Y-48697728D01*
X45336801Y-48673491D01*
X45336800Y-48673488D01*
X45295175Y-48591797D01*
X45236720Y-48477073D01*
X45196215Y-48421322D01*
X45107152Y-48298736D01*
X45107148Y-48298731D01*
X44951268Y-48142851D01*
X44951263Y-48142847D01*
X44772930Y-48013282D01*
X44772929Y-48013281D01*
X44772927Y-48013280D01*
X44710001Y-47981217D01*
X44576511Y-47913199D01*
X44576508Y-47913198D01*
X44366857Y-47845080D01*
X44257991Y-47827837D01*
X44149127Y-47810595D01*
X43928683Y-47810595D01*
X43856106Y-47822090D01*
X43710952Y-47845080D01*
X43501301Y-47913198D01*
X43501298Y-47913199D01*
X43304879Y-48013282D01*
X43126546Y-48142847D01*
X43126541Y-48142851D01*
X42970661Y-48298731D01*
X42970657Y-48298736D01*
X42841092Y-48477069D01*
X42741009Y-48673488D01*
X42741008Y-48673491D01*
X42672890Y-48883142D01*
X42638405Y-49100873D01*
X42638405Y-49213239D01*
X42618720Y-49280278D01*
X42565916Y-49326033D01*
X42514405Y-49337239D01*
X42402039Y-49337239D01*
X42329462Y-49348734D01*
X42184308Y-49371724D01*
X41974657Y-49439842D01*
X41974654Y-49439843D01*
X41778235Y-49539926D01*
X41599902Y-49669491D01*
X41599897Y-49669495D01*
X41444017Y-49825375D01*
X41444013Y-49825380D01*
X41314448Y-50003713D01*
X41214365Y-50200132D01*
X41214364Y-50200135D01*
X41146246Y-50409786D01*
X41132461Y-50496824D01*
X41111761Y-50627517D01*
X41111761Y-50847961D01*
X41113607Y-50859618D01*
X41146246Y-51065693D01*
X41214362Y-51275337D01*
X41214365Y-51275344D01*
X41214366Y-51275345D01*
X41222102Y-51290529D01*
X41235618Y-51346823D01*
X41235618Y-51889104D01*
X41159312Y-51845049D01*
X41044862Y-51814382D01*
X40926374Y-51814382D01*
X40811924Y-51845049D01*
X40735618Y-51889104D01*
X40735618Y-50886526D01*
X40657782Y-50898855D01*
X40657779Y-50898855D01*
X40448207Y-50966949D01*
X40251857Y-51066995D01*
X40073576Y-51196524D01*
X39917760Y-51352340D01*
X39788231Y-51530621D01*
X39688184Y-51726973D01*
X39621553Y-51932048D01*
X39582116Y-51989724D01*
X39517758Y-52016923D01*
X39485976Y-52016469D01*
X39458975Y-52012587D01*
X39458974Y-52012587D01*
X39316517Y-52033068D01*
X39185603Y-52092855D01*
X39138908Y-52130484D01*
X37798432Y-53470962D01*
X37798426Y-53470969D01*
X37760804Y-53517654D01*
X37760803Y-53517656D01*
X37701016Y-53648569D01*
X37680535Y-53791026D01*
X37701016Y-53933482D01*
X37760803Y-54064396D01*
X37760804Y-54064397D01*
X37760805Y-54064399D01*
X37798424Y-54111082D01*
X37798427Y-54111085D01*
X37798432Y-54111091D01*
X38808953Y-55121610D01*
X39138918Y-55451575D01*
X39185601Y-55489195D01*
X39316517Y-55548983D01*
X39316516Y-55548983D01*
X39334423Y-55551557D01*
X39458974Y-55569465D01*
X39601431Y-55548983D01*
X39732347Y-55489195D01*
X39779030Y-55451576D01*
X41119523Y-54111082D01*
X41157143Y-54064399D01*
X41216931Y-53933483D01*
X41237413Y-53791026D01*
X41233531Y-53764026D01*
X41243473Y-53694869D01*
X41289226Y-53642064D01*
X41317951Y-53628447D01*
X41523026Y-53561815D01*
X41719378Y-53461768D01*
X41897659Y-53332239D01*
X42053475Y-53176423D01*
X42183004Y-52998142D01*
X42283050Y-52801792D01*
X42351144Y-52592220D01*
X42351144Y-52592217D01*
X42363473Y-52514382D01*
X41360896Y-52514382D01*
X41404951Y-52438076D01*
X41435618Y-52323626D01*
X41435618Y-52205138D01*
X41404951Y-52090688D01*
X41360896Y-52014382D01*
X41903175Y-52014382D01*
X41959470Y-52027897D01*
X41974654Y-52035634D01*
X41974657Y-52035635D01*
X42066541Y-52065489D01*
X42184310Y-52103754D01*
X42402039Y-52138239D01*
X42402040Y-52138239D01*
X42622482Y-52138239D01*
X42622483Y-52138239D01*
X42840212Y-52103754D01*
X43049867Y-52035634D01*
X43049867Y-52035633D01*
X43049872Y-52035632D01*
X43208109Y-51955005D01*
X43276779Y-51942108D01*
X43341519Y-51968384D01*
X43381777Y-52025490D01*
X43388405Y-52065489D01*
X43388405Y-54516975D01*
X43409214Y-54621586D01*
X43409219Y-54621610D01*
X43409518Y-54623111D01*
X43413404Y-54642649D01*
X43414597Y-54645529D01*
X43416511Y-54654042D01*
X43414540Y-54684553D01*
X43414810Y-54715124D01*
X43413461Y-54719556D01*
X43386754Y-54801753D01*
X43353500Y-55011713D01*
X43353500Y-55224286D01*
X43386753Y-55434240D01*
X43386754Y-55434243D01*
X43387301Y-55435928D01*
X43389984Y-55444183D01*
X43391979Y-55514024D01*
X43355898Y-55573857D01*
X43293197Y-55604685D01*
X43233735Y-55600432D01*
X43224071Y-55597292D01*
X43157949Y-55586819D01*
X43157949Y-56481039D01*
X43100942Y-56448126D01*
X42973775Y-56414051D01*
X42842123Y-56414051D01*
X42714956Y-56448126D01*
X42657949Y-56481039D01*
X42657949Y-55586819D01*
X42657948Y-55586819D01*
X42591824Y-55597292D01*
X42389733Y-55662954D01*
X42200391Y-55759430D01*
X42028489Y-55884323D01*
X42028484Y-55884327D01*
X41878225Y-56034586D01*
X41878221Y-56034591D01*
X41753328Y-56206493D01*
X41656853Y-56395833D01*
X41591191Y-56597921D01*
X41591191Y-56597924D01*
X41580718Y-56664051D01*
X42474937Y-56664051D01*
X42442024Y-56721058D01*
X42407949Y-56848225D01*
X42407949Y-56979877D01*
X42442024Y-57107044D01*
X42474937Y-57164051D01*
X41580718Y-57164051D01*
X41591191Y-57230177D01*
X41591191Y-57230180D01*
X41656853Y-57432268D01*
X41753328Y-57621608D01*
X41878221Y-57793510D01*
X41878225Y-57793515D01*
X42028484Y-57943774D01*
X42028489Y-57943778D01*
X42200391Y-58068671D01*
X42389731Y-58165146D01*
X42591820Y-58230808D01*
X42657949Y-58241282D01*
X42657949Y-57347063D01*
X42714956Y-57379976D01*
X42842123Y-57414051D01*
X42973775Y-57414051D01*
X43100942Y-57379976D01*
X43157949Y-57347063D01*
X43157949Y-58241281D01*
X43224075Y-58230808D01*
X43224078Y-58230808D01*
X43426166Y-58165146D01*
X43615506Y-58068671D01*
X43787408Y-57943778D01*
X43787413Y-57943774D01*
X43841819Y-57889369D01*
X43903142Y-57855884D01*
X43972834Y-57860868D01*
X44028767Y-57902740D01*
X44053184Y-57968204D01*
X44053500Y-57977050D01*
X44053500Y-58303612D01*
X44051118Y-58327801D01*
X44049501Y-58335930D01*
X44049501Y-58464073D01*
X44074497Y-58589736D01*
X44074499Y-58589744D01*
X44112612Y-58681758D01*
X44123535Y-58708127D01*
X44173420Y-58782786D01*
X44194726Y-58814673D01*
X44194727Y-58814674D01*
X45613181Y-60233127D01*
X45646666Y-60294450D01*
X45649500Y-60320808D01*
X45649500Y-72164069D01*
X45649500Y-72164071D01*
X45649499Y-72164071D01*
X45674497Y-72289738D01*
X45674499Y-72289744D01*
X45723533Y-72408124D01*
X45723538Y-72408133D01*
X45794723Y-72514668D01*
X45794726Y-72514672D01*
X45885327Y-72605273D01*
X45885335Y-72605279D01*
X45995720Y-72679036D01*
X46014511Y-72694457D01*
X47692862Y-74372808D01*
X47726347Y-74434131D01*
X47727654Y-74479886D01*
X47720902Y-74522518D01*
X47690973Y-74585653D01*
X47631662Y-74622585D01*
X47561799Y-74621587D01*
X47510748Y-74590802D01*
X42186819Y-69266873D01*
X42153334Y-69205550D01*
X42150500Y-69179192D01*
X42150500Y-67546305D01*
X42170185Y-67479266D01*
X42222989Y-67433511D01*
X42292147Y-67423567D01*
X42355703Y-67452592D01*
X42362181Y-67458624D01*
X42395528Y-67491971D01*
X42515968Y-67579474D01*
X42561132Y-67612287D01*
X42673841Y-67669715D01*
X42743518Y-67705218D01*
X42743520Y-67705218D01*
X42743523Y-67705220D01*
X42837777Y-67735845D01*
X42938207Y-67768477D01*
X43008649Y-67779634D01*
X43140390Y-67800500D01*
X43140391Y-67800500D01*
X43345093Y-67800500D01*
X43345094Y-67800500D01*
X43547276Y-67768477D01*
X43741961Y-67705220D01*
X43924352Y-67612287D01*
X44017332Y-67544732D01*
X44089955Y-67491971D01*
X44089957Y-67491968D01*
X44089961Y-67491966D01*
X44234708Y-67347219D01*
X44234710Y-67347215D01*
X44234713Y-67347213D01*
X44304777Y-67250776D01*
X44355029Y-67181610D01*
X44447962Y-66999219D01*
X44511219Y-66804534D01*
X44543242Y-66602352D01*
X44543242Y-66397648D01*
X44526633Y-66292786D01*
X44511219Y-66195465D01*
X44475385Y-66085180D01*
X44447962Y-66000781D01*
X44447960Y-66000778D01*
X44447960Y-66000776D01*
X44404978Y-65916420D01*
X44355029Y-65818390D01*
X44322834Y-65774077D01*
X44234713Y-65652786D01*
X44089955Y-65508028D01*
X43924355Y-65387715D01*
X43924354Y-65387714D01*
X43924352Y-65387713D01*
X43867395Y-65358691D01*
X43741965Y-65294781D01*
X43547276Y-65231522D01*
X43372737Y-65203878D01*
X43345094Y-65199500D01*
X43140390Y-65199500D01*
X43116071Y-65203351D01*
X42938207Y-65231522D01*
X42743518Y-65294781D01*
X42561128Y-65387715D01*
X42395528Y-65508028D01*
X42250770Y-65652786D01*
X42130457Y-65818386D01*
X42037523Y-66000776D01*
X42010099Y-66085180D01*
X41970661Y-66142855D01*
X41906302Y-66170053D01*
X41837456Y-66158138D01*
X41804487Y-66134542D01*
X40289842Y-64619896D01*
X39067628Y-63397682D01*
X41942742Y-63397682D01*
X41942742Y-63602317D01*
X41974751Y-63804417D01*
X42037986Y-63999031D01*
X42130883Y-64181350D01*
X42130889Y-64181359D01*
X42163265Y-64225921D01*
X42163266Y-64225922D01*
X42842742Y-63546446D01*
X42842742Y-63552661D01*
X42870001Y-63654394D01*
X42922662Y-63745606D01*
X42997136Y-63820080D01*
X43088348Y-63872741D01*
X43190081Y-63900000D01*
X43196295Y-63900000D01*
X42516818Y-64579474D01*
X42561392Y-64611859D01*
X42743710Y-64704755D01*
X42938324Y-64767990D01*
X43140425Y-64800000D01*
X43345059Y-64800000D01*
X43547159Y-64767990D01*
X43741773Y-64704755D01*
X43924091Y-64611859D01*
X43968663Y-64579474D01*
X43289189Y-63900000D01*
X43295403Y-63900000D01*
X43397136Y-63872741D01*
X43488348Y-63820080D01*
X43562822Y-63745606D01*
X43615483Y-63654394D01*
X43642742Y-63552661D01*
X43642742Y-63546448D01*
X44322216Y-64225922D01*
X44322216Y-64225921D01*
X44354601Y-64181349D01*
X44447497Y-63999031D01*
X44510732Y-63804417D01*
X44542742Y-63602317D01*
X44542742Y-63397682D01*
X44510732Y-63195582D01*
X44447497Y-63000968D01*
X44354601Y-62818650D01*
X44322216Y-62774077D01*
X44322216Y-62774076D01*
X43642742Y-63453551D01*
X43642742Y-63447339D01*
X43615483Y-63345606D01*
X43562822Y-63254394D01*
X43488348Y-63179920D01*
X43397136Y-63127259D01*
X43295403Y-63100000D01*
X43289188Y-63100000D01*
X43968664Y-62420524D01*
X43968663Y-62420523D01*
X43924101Y-62388147D01*
X43924092Y-62388141D01*
X43741773Y-62295244D01*
X43547159Y-62232009D01*
X43345059Y-62200000D01*
X43140425Y-62200000D01*
X42938324Y-62232009D01*
X42743710Y-62295244D01*
X42561386Y-62388143D01*
X42516819Y-62420523D01*
X42516819Y-62420524D01*
X43196296Y-63100000D01*
X43190081Y-63100000D01*
X43088348Y-63127259D01*
X42997136Y-63179920D01*
X42922662Y-63254394D01*
X42870001Y-63345606D01*
X42842742Y-63447339D01*
X42842742Y-63453553D01*
X42163266Y-62774077D01*
X42163265Y-62774077D01*
X42130885Y-62818644D01*
X42037986Y-63000968D01*
X41974751Y-63195582D01*
X41942742Y-63397682D01*
X39067628Y-63397682D01*
X36886630Y-61216684D01*
X36853145Y-61155361D01*
X36851921Y-61148921D01*
X36671890Y-60042694D01*
X36669441Y-60027648D01*
X37949500Y-60027648D01*
X37949500Y-60232352D01*
X37953878Y-60259995D01*
X37981522Y-60434534D01*
X38044781Y-60629223D01*
X38102391Y-60742287D01*
X38129408Y-60795311D01*
X38137715Y-60811613D01*
X38258028Y-60977213D01*
X38402786Y-61121971D01*
X38528224Y-61213105D01*
X38568390Y-61242287D01*
X38684607Y-61301503D01*
X38750776Y-61335218D01*
X38750778Y-61335218D01*
X38750781Y-61335220D01*
X38839569Y-61364069D01*
X38945465Y-61398477D01*
X39046557Y-61414488D01*
X39147648Y-61430500D01*
X39147649Y-61430500D01*
X39352351Y-61430500D01*
X39352352Y-61430500D01*
X39554534Y-61398477D01*
X39749219Y-61335220D01*
X39931610Y-61242287D01*
X40024590Y-61174732D01*
X40097213Y-61121971D01*
X40097215Y-61121968D01*
X40097219Y-61121966D01*
X40241966Y-60977219D01*
X40241968Y-60977215D01*
X40241971Y-60977213D01*
X40332368Y-60852790D01*
X40362287Y-60811610D01*
X40455220Y-60629219D01*
X40518477Y-60434534D01*
X40550500Y-60232352D01*
X40550500Y-60027648D01*
X40535752Y-59934534D01*
X40518477Y-59825465D01*
X40458143Y-59639778D01*
X40455220Y-59630781D01*
X40455218Y-59630778D01*
X40455218Y-59630776D01*
X40419712Y-59561093D01*
X40362287Y-59448390D01*
X40339952Y-59417648D01*
X40241971Y-59282786D01*
X40097213Y-59138028D01*
X39931613Y-59017715D01*
X39931612Y-59017714D01*
X39931610Y-59017713D01*
X39874653Y-58988691D01*
X39749223Y-58924781D01*
X39554534Y-58861522D01*
X39369026Y-58832141D01*
X39352352Y-58829500D01*
X39147648Y-58829500D01*
X39130974Y-58832141D01*
X38945465Y-58861522D01*
X38750776Y-58924781D01*
X38568386Y-59017715D01*
X38402786Y-59138028D01*
X38258028Y-59282786D01*
X38137715Y-59448386D01*
X38044781Y-59630776D01*
X37981522Y-59825465D01*
X37954408Y-59996661D01*
X37949500Y-60027648D01*
X36669441Y-60027648D01*
X36362159Y-58139515D01*
X35503775Y-52865059D01*
X35512436Y-52795728D01*
X35538481Y-52757463D01*
X41768429Y-46527515D01*
X41829750Y-46494032D01*
X41898109Y-46498528D01*
X44709990Y-47510805D01*
X47761679Y-48609413D01*
X47796836Y-48625278D01*
X47821813Y-48631061D01*
X47845945Y-48639749D01*
X47879292Y-48644760D01*
X47879293Y-48644761D01*
X47884098Y-48645483D01*
X47921670Y-48654184D01*
X47947296Y-48654982D01*
X47948534Y-48655169D01*
X47972659Y-48658796D01*
X48006344Y-48657205D01*
X48016031Y-48657128D01*
X48049744Y-48658181D01*
X48075037Y-48653965D01*
X48100653Y-48652757D01*
X48138084Y-48643458D01*
X48176139Y-48637116D01*
X48200129Y-48628044D01*
X48225010Y-48621864D01*
X48259908Y-48605441D01*
X48295994Y-48591797D01*
X48311538Y-48582097D01*
X48324366Y-48575108D01*
X48340952Y-48567304D01*
X48371981Y-48544383D01*
X48404705Y-48523966D01*
X48423394Y-48506407D01*
X48444020Y-48491173D01*
X48466715Y-48466228D01*
X48473511Y-48459324D01*
X48498094Y-48436231D01*
X48513002Y-48415359D01*
X48530256Y-48396397D01*
X48550148Y-48363354D01*
X50807955Y-45202426D01*
X50862939Y-45159316D01*
X50908858Y-45150500D01*
X62070958Y-45150500D01*
X62137997Y-45170185D01*
X62183752Y-45222989D01*
X62193893Y-45258283D01*
X62229985Y-45531888D01*
X62219237Y-45600926D01*
X62172870Y-45653194D01*
X62105606Y-45672097D01*
X62050756Y-45658590D01*
X62020245Y-45643044D01*
X61962424Y-45613582D01*
X61962421Y-45613581D01*
X61789598Y-45557428D01*
X61669939Y-45538476D01*
X61610111Y-45529000D01*
X61428389Y-45529000D01*
X61368560Y-45538476D01*
X61248902Y-45557428D01*
X61248899Y-45557428D01*
X61076078Y-45613581D01*
X61076075Y-45613583D01*
X60914159Y-45696083D01*
X60859390Y-45735876D01*
X60767144Y-45802897D01*
X60767142Y-45802899D01*
X60767141Y-45802899D01*
X60638649Y-45931391D01*
X60638649Y-45931392D01*
X60638647Y-45931394D01*
X60592775Y-45994530D01*
X60531833Y-46078409D01*
X60449333Y-46240325D01*
X60449331Y-46240328D01*
X60393178Y-46413149D01*
X60393178Y-46413150D01*
X60391723Y-46422340D01*
X60361793Y-46485474D01*
X60302482Y-46522405D01*
X60232619Y-46521407D01*
X60174387Y-46482797D01*
X60146777Y-46422340D01*
X60145321Y-46413150D01*
X60145321Y-46413149D01*
X60089168Y-46240328D01*
X60089166Y-46240325D01*
X60006666Y-46078409D01*
X59899853Y-45931394D01*
X59771356Y-45802897D01*
X59624340Y-45696083D01*
X59462424Y-45613583D01*
X59462421Y-45613581D01*
X59289598Y-45557428D01*
X59169939Y-45538476D01*
X59110111Y-45529000D01*
X58928389Y-45529000D01*
X58868560Y-45538476D01*
X58748902Y-45557428D01*
X58748899Y-45557428D01*
X58576078Y-45613581D01*
X58576075Y-45613583D01*
X58414159Y-45696083D01*
X58359390Y-45735876D01*
X58267144Y-45802897D01*
X58267142Y-45802899D01*
X58267141Y-45802899D01*
X58138649Y-45931391D01*
X58138649Y-45931392D01*
X58138647Y-45931394D01*
X58092775Y-45994530D01*
X58031833Y-46078409D01*
X57949333Y-46240325D01*
X57949331Y-46240328D01*
X57893178Y-46413149D01*
X57893178Y-46413152D01*
X57864750Y-46592639D01*
X57864750Y-48082360D01*
X57893178Y-48261847D01*
X57893178Y-48261850D01*
X57949331Y-48434671D01*
X57949333Y-48434674D01*
X58031833Y-48596590D01*
X58138647Y-48743606D01*
X58267144Y-48872103D01*
X58414160Y-48978917D01*
X58576076Y-49061417D01*
X58576078Y-49061418D01*
X58701883Y-49102294D01*
X58748904Y-49117572D01*
X58928389Y-49146000D01*
X58928390Y-49146000D01*
X59110110Y-49146000D01*
X59110111Y-49146000D01*
X59289596Y-49117572D01*
X59289599Y-49117571D01*
X59289600Y-49117571D01*
X59462421Y-49061418D01*
X59462421Y-49061417D01*
X59462424Y-49061417D01*
X59624340Y-48978917D01*
X59771356Y-48872103D01*
X59899853Y-48743606D01*
X60006667Y-48596590D01*
X60089167Y-48434674D01*
X60133336Y-48298736D01*
X60145321Y-48261850D01*
X60145322Y-48261845D01*
X60146777Y-48252661D01*
X60176706Y-48189526D01*
X60236017Y-48152594D01*
X60305880Y-48153592D01*
X60364113Y-48192201D01*
X60391723Y-48252661D01*
X60393177Y-48261845D01*
X60393178Y-48261850D01*
X60449331Y-48434671D01*
X60449333Y-48434674D01*
X60531833Y-48596590D01*
X60638647Y-48743606D01*
X60767144Y-48872103D01*
X60914160Y-48978917D01*
X61076076Y-49061417D01*
X61076078Y-49061418D01*
X61201883Y-49102294D01*
X61248904Y-49117572D01*
X61428389Y-49146000D01*
X61428390Y-49146000D01*
X61610110Y-49146000D01*
X61610111Y-49146000D01*
X61789596Y-49117572D01*
X61789599Y-49117571D01*
X61789600Y-49117571D01*
X61962421Y-49061418D01*
X61962421Y-49061417D01*
X61962424Y-49061417D01*
X62124340Y-48978917D01*
X62271356Y-48872103D01*
X62399853Y-48743606D01*
X62496150Y-48611065D01*
X62520730Y-48592111D01*
X62544009Y-48571595D01*
X62548156Y-48570963D01*
X62551479Y-48568401D01*
X62582398Y-48565745D01*
X62613082Y-48561070D01*
X62616913Y-48562780D01*
X62621093Y-48562422D01*
X62648542Y-48576905D01*
X62676879Y-48589560D01*
X62680293Y-48593658D01*
X62682888Y-48595028D01*
X62700215Y-48616038D01*
X62702107Y-48618928D01*
X62714784Y-48640872D01*
X62721428Y-48648444D01*
X62726210Y-48655749D01*
X62726366Y-48656265D01*
X62727614Y-48657943D01*
X63944666Y-50605228D01*
X63950481Y-50615609D01*
X63962463Y-50639637D01*
X63962464Y-50639638D01*
X63977872Y-50659535D01*
X63984981Y-50669734D01*
X63998329Y-50691091D01*
X63998333Y-50691095D01*
X64020830Y-50715005D01*
X64040921Y-50740948D01*
X64064620Y-50761546D01*
X64068886Y-50766080D01*
X64086135Y-50784413D01*
X64086142Y-50784419D01*
X64108003Y-50800008D01*
X64117335Y-50807362D01*
X64137634Y-50825005D01*
X64164906Y-50840589D01*
X64190466Y-50858817D01*
X64220383Y-50872290D01*
X66556378Y-52207144D01*
X71245877Y-54886858D01*
X71255255Y-54893372D01*
X71255434Y-54893110D01*
X71260471Y-54896534D01*
X71260474Y-54896535D01*
X71260477Y-54896538D01*
X71310954Y-54924044D01*
X71360889Y-54952579D01*
X71367175Y-54954681D01*
X71372993Y-54957852D01*
X71426794Y-54974647D01*
X71429059Y-54975381D01*
X71482404Y-54993225D01*
X71488340Y-54994581D01*
X71488268Y-54994892D01*
X71489281Y-54995113D01*
X71489346Y-54994801D01*
X71495307Y-54996037D01*
X71501394Y-54996686D01*
X71552499Y-55002136D01*
X71609523Y-55009386D01*
X71616132Y-55008923D01*
X71622722Y-55009626D01*
X71680008Y-55004450D01*
X71737347Y-55000436D01*
X71743735Y-54998693D01*
X71750340Y-54998097D01*
X71805531Y-54981840D01*
X71860969Y-54966721D01*
X71866895Y-54963765D01*
X72476522Y-54784197D01*
X72546391Y-54784138D01*
X72599239Y-54815464D01*
X72640923Y-54857148D01*
X72640928Y-54857152D01*
X72770005Y-54950931D01*
X72819265Y-54986720D01*
X72947662Y-55052142D01*
X73015680Y-55086800D01*
X73015683Y-55086801D01*
X73120508Y-55120860D01*
X73225336Y-55154920D01*
X73443065Y-55189405D01*
X73443066Y-55189405D01*
X73663508Y-55189405D01*
X73663509Y-55189405D01*
X73881238Y-55154920D01*
X74090893Y-55086800D01*
X74287309Y-54986720D01*
X74465652Y-54857147D01*
X74621529Y-54701270D01*
X74751102Y-54522927D01*
X74851182Y-54326511D01*
X74919302Y-54116856D01*
X74953787Y-53899127D01*
X74953787Y-53678683D01*
X74919302Y-53460954D01*
X74851182Y-53251299D01*
X74851179Y-53251291D01*
X74850065Y-53249105D01*
X74849777Y-53247908D01*
X74849317Y-53246796D01*
X74849493Y-53246723D01*
X74836551Y-53192813D01*
X74836551Y-51645101D01*
X74856236Y-51578062D01*
X74909040Y-51532307D01*
X74978198Y-51522363D01*
X75041754Y-51551388D01*
X75048232Y-51557420D01*
X75102637Y-51611825D01*
X75102642Y-51611829D01*
X75274544Y-51736722D01*
X75463884Y-51833197D01*
X75665973Y-51898859D01*
X75732102Y-51909333D01*
X75732102Y-51015114D01*
X75789109Y-51048027D01*
X75916276Y-51082102D01*
X76047928Y-51082102D01*
X76175095Y-51048027D01*
X76232102Y-51015114D01*
X76232102Y-51909332D01*
X76298228Y-51898859D01*
X76298231Y-51898859D01*
X76500319Y-51833197D01*
X76689659Y-51736722D01*
X76861561Y-51611829D01*
X76861566Y-51611825D01*
X77011825Y-51461566D01*
X77011829Y-51461561D01*
X77136722Y-51289659D01*
X77233197Y-51100319D01*
X77298859Y-50898231D01*
X77298859Y-50898228D01*
X77309333Y-50832102D01*
X76415114Y-50832102D01*
X76448027Y-50775095D01*
X76482102Y-50647928D01*
X76482102Y-50516276D01*
X76448027Y-50389109D01*
X76415114Y-50332102D01*
X77309333Y-50332102D01*
X77298859Y-50265975D01*
X77298859Y-50265972D01*
X77233197Y-50063884D01*
X77136722Y-49874544D01*
X77011829Y-49702642D01*
X77011825Y-49702637D01*
X76861566Y-49552378D01*
X76861561Y-49552374D01*
X76689659Y-49427481D01*
X76500317Y-49331005D01*
X76298226Y-49265343D01*
X76232102Y-49254870D01*
X76232102Y-50149090D01*
X76175095Y-50116177D01*
X76047928Y-50082102D01*
X75916276Y-50082102D01*
X75789109Y-50116177D01*
X75732102Y-50149090D01*
X75732102Y-49299556D01*
X75593909Y-49272190D01*
X75590412Y-49270364D01*
X75586471Y-49270477D01*
X75559697Y-49254331D01*
X75531970Y-49239857D01*
X75530015Y-49236431D01*
X75526639Y-49234395D01*
X75512843Y-49206335D01*
X75497345Y-49179171D01*
X75497552Y-49175232D01*
X75495813Y-49171694D01*
X75500067Y-49112233D01*
X75503297Y-49102294D01*
X75536551Y-48892338D01*
X75536551Y-48679764D01*
X75503297Y-48469808D01*
X75437608Y-48267639D01*
X75341102Y-48078235D01*
X75341100Y-48078232D01*
X75341099Y-48078230D01*
X75216160Y-47906264D01*
X75065837Y-47755941D01*
X74893871Y-47631002D01*
X74704465Y-47534495D01*
X74704464Y-47534494D01*
X74704463Y-47534494D01*
X74502294Y-47468805D01*
X74502292Y-47468804D01*
X74502291Y-47468804D01*
X74341008Y-47443259D01*
X74292338Y-47435551D01*
X74131776Y-47435551D01*
X74064737Y-47415866D01*
X74018982Y-47363062D01*
X74009038Y-47293904D01*
X74018982Y-47260039D01*
X74077246Y-47132459D01*
X74077245Y-47132459D01*
X74077247Y-47132457D01*
X74097728Y-46990000D01*
X74077247Y-46847543D01*
X74017459Y-46716627D01*
X73979840Y-46669944D01*
X73979835Y-46669939D01*
X73979831Y-46669934D01*
X72710059Y-45400165D01*
X72710053Y-45400160D01*
X72702739Y-45394265D01*
X72663373Y-45362540D01*
X72532459Y-45302753D01*
X72532455Y-45302752D01*
X72390000Y-45282272D01*
X72247544Y-45302752D01*
X72247540Y-45302753D01*
X72116629Y-45362539D01*
X72069934Y-45400168D01*
X70800165Y-46669940D01*
X70800156Y-46669950D01*
X70762540Y-46716626D01*
X70702753Y-46847540D01*
X70702752Y-46847544D01*
X70682272Y-46990000D01*
X70702752Y-47132455D01*
X70702753Y-47132459D01*
X70762539Y-47263370D01*
X70762540Y-47263371D01*
X70762541Y-47263373D01*
X70800160Y-47310056D01*
X70800163Y-47310059D01*
X70800168Y-47310065D01*
X71872814Y-48382708D01*
X72069944Y-48579838D01*
X72069948Y-48579841D01*
X72069950Y-48579843D01*
X72116626Y-48617459D01*
X72247540Y-48677246D01*
X72247541Y-48677246D01*
X72247543Y-48677247D01*
X72390000Y-48697728D01*
X72532457Y-48677247D01*
X72574205Y-48658181D01*
X72660039Y-48618982D01*
X72729198Y-48609038D01*
X72792753Y-48638063D01*
X72830528Y-48696841D01*
X72835551Y-48731776D01*
X72835551Y-48892337D01*
X72862330Y-49061417D01*
X72868805Y-49102294D01*
X72923451Y-49270477D01*
X72934495Y-49304465D01*
X73031002Y-49493871D01*
X73155941Y-49665837D01*
X73155947Y-49665843D01*
X73306259Y-49816155D01*
X73478235Y-49941102D01*
X73478239Y-49941104D01*
X73482177Y-49943965D01*
X73481197Y-49945313D01*
X73523211Y-49991741D01*
X73535551Y-50045668D01*
X73535551Y-51622293D01*
X73515866Y-51689332D01*
X73463062Y-51735087D01*
X73393904Y-51745031D01*
X73330348Y-51716006D01*
X73301067Y-51678589D01*
X73224457Y-51528237D01*
X73094890Y-51349902D01*
X73094886Y-51349897D01*
X72939006Y-51194017D01*
X72939001Y-51194013D01*
X72760668Y-51064448D01*
X72760667Y-51064447D01*
X72760665Y-51064446D01*
X72657586Y-51011924D01*
X72564249Y-50964365D01*
X72564246Y-50964364D01*
X72354595Y-50896246D01*
X72185872Y-50869523D01*
X72136865Y-50861761D01*
X71916421Y-50861761D01*
X71867414Y-50869523D01*
X71698690Y-50896246D01*
X71489039Y-50964364D01*
X71489036Y-50964365D01*
X71473852Y-50972103D01*
X71417557Y-50985618D01*
X70875278Y-50985618D01*
X70919333Y-50909312D01*
X70950000Y-50794862D01*
X70950000Y-50676374D01*
X70919333Y-50561924D01*
X70875278Y-50485618D01*
X71877855Y-50485618D01*
X71865526Y-50407782D01*
X71865526Y-50407779D01*
X71797432Y-50198207D01*
X71697386Y-50001857D01*
X71567857Y-49823576D01*
X71412041Y-49667760D01*
X71233760Y-49538231D01*
X71037407Y-49438184D01*
X71037409Y-49438184D01*
X70832333Y-49371553D01*
X70774657Y-49332116D01*
X70747458Y-49267758D01*
X70747913Y-49235972D01*
X70751795Y-49208976D01*
X70751795Y-49208974D01*
X70731313Y-49066517D01*
X70671526Y-48935603D01*
X70671525Y-48935602D01*
X70671525Y-48935601D01*
X70633906Y-48888918D01*
X70633901Y-48888913D01*
X70633897Y-48888908D01*
X69293419Y-47548432D01*
X69293412Y-47548425D01*
X69246729Y-47510805D01*
X69206106Y-47492253D01*
X69115811Y-47451016D01*
X69115813Y-47451016D01*
X68973356Y-47430535D01*
X68830899Y-47451016D01*
X68699985Y-47510803D01*
X68653290Y-47548432D01*
X67312814Y-48888910D01*
X67312808Y-48888917D01*
X67275186Y-48935602D01*
X67275185Y-48935604D01*
X67215398Y-49066517D01*
X67194917Y-49208974D01*
X67215398Y-49351430D01*
X67275185Y-49482344D01*
X67275186Y-49482345D01*
X67275187Y-49482347D01*
X67312806Y-49529030D01*
X67312809Y-49529033D01*
X67312814Y-49529039D01*
X68326356Y-50542579D01*
X68653300Y-50869523D01*
X68699983Y-50907143D01*
X68830899Y-50966931D01*
X68830898Y-50966931D01*
X68973356Y-50987413D01*
X68973358Y-50987413D01*
X68986216Y-50985563D01*
X69000355Y-50983531D01*
X69069513Y-50993473D01*
X69122318Y-51039226D01*
X69135935Y-51067951D01*
X69202566Y-51273026D01*
X69302613Y-51469378D01*
X69432142Y-51647659D01*
X69587958Y-51803475D01*
X69766239Y-51933004D01*
X69962589Y-52033050D01*
X70172163Y-52101144D01*
X70249999Y-52113472D01*
X70250000Y-52113472D01*
X70250000Y-51110895D01*
X70326306Y-51154951D01*
X70440756Y-51185618D01*
X70559244Y-51185618D01*
X70673694Y-51154951D01*
X70750000Y-51110895D01*
X70750000Y-51653175D01*
X70736485Y-51709470D01*
X70728747Y-51724654D01*
X70728746Y-51724657D01*
X70660628Y-51934308D01*
X70634204Y-52101144D01*
X70626143Y-52152039D01*
X70626143Y-52372483D01*
X70632692Y-52413830D01*
X70660628Y-52590213D01*
X70728746Y-52799864D01*
X70728750Y-52799873D01*
X70750897Y-52843339D01*
X70763793Y-52912008D01*
X70737516Y-52976748D01*
X70680409Y-53017005D01*
X70610604Y-53019997D01*
X70578891Y-53007295D01*
X65007956Y-49823904D01*
X64964327Y-49781964D01*
X63886711Y-48057777D01*
X63868929Y-48008275D01*
X63860372Y-47943411D01*
X63400500Y-44457279D01*
X63400500Y-44435931D01*
X63392139Y-44393900D01*
X63386534Y-44351408D01*
X63379665Y-44331190D01*
X63375501Y-44310256D01*
X63359103Y-44270669D01*
X63345314Y-44230081D01*
X63338707Y-44218644D01*
X63338707Y-44218643D01*
X63334631Y-44211588D01*
X63326465Y-44191873D01*
X63302655Y-44156239D01*
X63300633Y-44152738D01*
X63281219Y-44119132D01*
X63281216Y-44119128D01*
X63272508Y-44109203D01*
X63267136Y-44103081D01*
X63255276Y-44085331D01*
X63224968Y-44055023D01*
X63196705Y-44022812D01*
X63188131Y-44016236D01*
X63186221Y-44014771D01*
X63174006Y-44004060D01*
X63164674Y-43994728D01*
X63164667Y-43994722D01*
X63132386Y-43973153D01*
X63125832Y-43968459D01*
X63105503Y-43952867D01*
X63105502Y-43952867D01*
X63095030Y-43944835D01*
X63095028Y-43944834D01*
X63095027Y-43944833D01*
X63083171Y-43938990D01*
X63069104Y-43930870D01*
X63067515Y-43929808D01*
X63058127Y-43923535D01*
X63022266Y-43908681D01*
X63022266Y-43908680D01*
X63018511Y-43907124D01*
X62980089Y-43888189D01*
X62959472Y-43882670D01*
X62951955Y-43879556D01*
X62951951Y-43879555D01*
X62948905Y-43878293D01*
X62939744Y-43874499D01*
X62939742Y-43874498D01*
X62939741Y-43874498D01*
X62939740Y-43874497D01*
X62901679Y-43866927D01*
X62893807Y-43865093D01*
X62869300Y-43858533D01*
X65149500Y-43858533D01*
X65149500Y-44101110D01*
X65181161Y-44341607D01*
X65243947Y-44575926D01*
X65336773Y-44800027D01*
X65336776Y-44800034D01*
X65458064Y-45010111D01*
X65458066Y-45010114D01*
X65458067Y-45010115D01*
X65605733Y-45202558D01*
X65605739Y-45202565D01*
X65777256Y-45374082D01*
X65777263Y-45374088D01*
X65811251Y-45400168D01*
X65969711Y-45521758D01*
X66179788Y-45643046D01*
X66403900Y-45735876D01*
X66638211Y-45798660D01*
X66791481Y-45818838D01*
X66878711Y-45830322D01*
X66878712Y-45830322D01*
X67121289Y-45830322D01*
X67169388Y-45823989D01*
X67361789Y-45798660D01*
X67596100Y-45735876D01*
X67820212Y-45643046D01*
X68030289Y-45521758D01*
X68222738Y-45374087D01*
X68394265Y-45202560D01*
X68541936Y-45010111D01*
X68663224Y-44800034D01*
X68756054Y-44575922D01*
X68818838Y-44341611D01*
X68850500Y-44101110D01*
X68850500Y-43858534D01*
X68849170Y-43848435D01*
X68842440Y-43797312D01*
X68818838Y-43618033D01*
X68756054Y-43383722D01*
X68663224Y-43159610D01*
X68541936Y-42949533D01*
X68417779Y-42787728D01*
X68394266Y-42757085D01*
X68394260Y-42757078D01*
X68222743Y-42585561D01*
X68222736Y-42585555D01*
X68030293Y-42437889D01*
X68030292Y-42437888D01*
X68030289Y-42437886D01*
X67820212Y-42316598D01*
X67820205Y-42316595D01*
X67596104Y-42223769D01*
X67361785Y-42160983D01*
X67121289Y-42129322D01*
X67121288Y-42129322D01*
X66878712Y-42129322D01*
X66878711Y-42129322D01*
X66638214Y-42160983D01*
X66403895Y-42223769D01*
X66179794Y-42316595D01*
X66179785Y-42316599D01*
X65969706Y-42437889D01*
X65777263Y-42585555D01*
X65777256Y-42585561D01*
X65605739Y-42757078D01*
X65605733Y-42757085D01*
X65458067Y-42949528D01*
X65336777Y-43159607D01*
X65336773Y-43159616D01*
X65243947Y-43383717D01*
X65181161Y-43618036D01*
X65149500Y-43858533D01*
X62869300Y-43858533D01*
X62856310Y-43855056D01*
X62835008Y-43853665D01*
X62814069Y-43849500D01*
X62771210Y-43849500D01*
X62767179Y-43849236D01*
X62737729Y-43847314D01*
X62728445Y-43846708D01*
X62728443Y-43846708D01*
X62728441Y-43846708D01*
X62719216Y-43847925D01*
X62715351Y-43848435D01*
X62699136Y-43849500D01*
X50843528Y-43849500D01*
X50814010Y-43845935D01*
X50768824Y-43834860D01*
X50758663Y-43831905D01*
X50755159Y-43830721D01*
X50697626Y-43817399D01*
X50696081Y-43817031D01*
X50638630Y-43802949D01*
X50634918Y-43802418D01*
X50634849Y-43802408D01*
X50634136Y-43802305D01*
X50634016Y-43802295D01*
X50630334Y-43801816D01*
X50571229Y-43799970D01*
X50571229Y-43799969D01*
X50570353Y-43799941D01*
X50510612Y-43797312D01*
X50506460Y-43797949D01*
X50502256Y-43797818D01*
X50443961Y-43807533D01*
X50442398Y-43807784D01*
X50383955Y-43816757D01*
X50380365Y-43817676D01*
X50380364Y-43817675D01*
X50379562Y-43817880D01*
X50379464Y-43817912D01*
X50375865Y-43818882D01*
X50320485Y-43839821D01*
X50320484Y-43839820D01*
X50319626Y-43840144D01*
X50263534Y-43860537D01*
X50259942Y-43862713D01*
X50256004Y-43864203D01*
X50205821Y-43895514D01*
X50205075Y-43895979D01*
X50153962Y-43926970D01*
X50150865Y-43929804D01*
X50147296Y-43932032D01*
X50104225Y-43972495D01*
X50103064Y-43973571D01*
X50059455Y-44013501D01*
X50057002Y-44016235D01*
X50057003Y-44016236D01*
X50056423Y-44016882D01*
X50056349Y-44016975D01*
X50053906Y-44019769D01*
X50019538Y-44067883D01*
X50019537Y-44067882D01*
X50019001Y-44068632D01*
X49983650Y-44116809D01*
X49981876Y-44120606D01*
X49976004Y-44128828D01*
X49975994Y-44128844D01*
X47817504Y-47150730D01*
X47762520Y-47193840D01*
X47692957Y-47200381D01*
X47674600Y-47195326D01*
X41893510Y-45114135D01*
X41888058Y-45112026D01*
X41845742Y-45094498D01*
X41839680Y-45093292D01*
X41821881Y-45088348D01*
X41816055Y-45086251D01*
X41816051Y-45086250D01*
X41770750Y-45079440D01*
X41767860Y-45079006D01*
X41720069Y-45069500D01*
X41704616Y-45069500D01*
X41695450Y-45068122D01*
X41695449Y-45068122D01*
X41689342Y-45067204D01*
X41689341Y-45067204D01*
X41643604Y-45069362D01*
X41637760Y-45069500D01*
X41591926Y-45069500D01*
X41585847Y-45070709D01*
X41585846Y-45070708D01*
X41576758Y-45072515D01*
X41561347Y-45073243D01*
X41514091Y-45084981D01*
X41511218Y-45085553D01*
X41511194Y-45085559D01*
X41466253Y-45094499D01*
X41466247Y-45094501D01*
X41460540Y-45096864D01*
X41460541Y-45096865D01*
X41451977Y-45100412D01*
X41436990Y-45104136D01*
X41392914Y-45124877D01*
X41390194Y-45126004D01*
X41347871Y-45143534D01*
X41342731Y-45146968D01*
X41342732Y-45146969D01*
X41335026Y-45152118D01*
X41321049Y-45158696D01*
X41281872Y-45187632D01*
X41279427Y-45189267D01*
X41241333Y-45214720D01*
X41241324Y-45214728D01*
X41230399Y-45225652D01*
X41217980Y-45234827D01*
X41185202Y-45270849D01*
X34347607Y-52108445D01*
X34344486Y-52111460D01*
X34307552Y-52145894D01*
X34306693Y-52147088D01*
X34293776Y-52162278D01*
X34292726Y-52163327D01*
X34292716Y-52163340D01*
X34264651Y-52205340D01*
X34264652Y-52205341D01*
X34263437Y-52207157D01*
X34232677Y-52249878D01*
X34227916Y-52260319D01*
X34222357Y-52268640D01*
X34222356Y-52268643D01*
X34221536Y-52269870D01*
X34221533Y-52269875D01*
X34202204Y-52316538D01*
X34201367Y-52318557D01*
X34179526Y-52366472D01*
X34176894Y-52377638D01*
X34173065Y-52386885D01*
X34173064Y-52386890D01*
X34172500Y-52388251D01*
X34172498Y-52388256D01*
X34162645Y-52437791D01*
X34161724Y-52442030D01*
X34150144Y-52491187D01*
X34150141Y-52491206D01*
X34150090Y-52492652D01*
X34150091Y-52492653D01*
X34149789Y-52501246D01*
X34149740Y-52502670D01*
X34147501Y-52513931D01*
X34147501Y-52566594D01*
X34147425Y-52568764D01*
X34145656Y-52619250D01*
X34145656Y-52619257D01*
X34145891Y-52620697D01*
X34145891Y-52620698D01*
X34147501Y-52630592D01*
X34147501Y-52642069D01*
X34157767Y-52693683D01*
X34158120Y-52695852D01*
X34158124Y-52695871D01*
X35597891Y-61542702D01*
X35599501Y-61562620D01*
X35599501Y-61564072D01*
X35609344Y-61613555D01*
X35610116Y-61617825D01*
X35618238Y-61667727D01*
X35622260Y-61678488D01*
X35624499Y-61689744D01*
X35644651Y-61738397D01*
X35645417Y-61740446D01*
X35645417Y-61740447D01*
X35663099Y-61787752D01*
X35663100Y-61787756D01*
X35663872Y-61789003D01*
X35672972Y-61806771D01*
X35673531Y-61808120D01*
X35673533Y-61808124D01*
X35673534Y-61808126D01*
X35673535Y-61808127D01*
X35702800Y-61851927D01*
X35730515Y-61896724D01*
X35738339Y-61905116D01*
X35743908Y-61913450D01*
X35743911Y-61913453D01*
X35744725Y-61914672D01*
X35744727Y-61914673D01*
X35781986Y-61951932D01*
X35817894Y-61990447D01*
X35827207Y-61997153D01*
X38332601Y-64502547D01*
X40813181Y-66983126D01*
X40846666Y-67044449D01*
X40849500Y-67070807D01*
X40849500Y-69564069D01*
X40849500Y-69564071D01*
X40849499Y-69564071D01*
X40874497Y-69689738D01*
X40874499Y-69689744D01*
X40923534Y-69808125D01*
X40994726Y-69914673D01*
X40994727Y-69914674D01*
X46563181Y-75483127D01*
X46596666Y-75544450D01*
X46599500Y-75570808D01*
X46599500Y-76006732D01*
X46579815Y-76073771D01*
X46527011Y-76119526D01*
X46474795Y-76128755D01*
X45773787Y-76829764D01*
X45762518Y-76787707D01*
X45690110Y-76662291D01*
X45587708Y-76559889D01*
X45462292Y-76487481D01*
X45420234Y-76476211D01*
X46119105Y-75777339D01*
X46119104Y-75777337D01*
X46036174Y-75717086D01*
X45825802Y-75609896D01*
X45601247Y-75536933D01*
X45601248Y-75536933D01*
X45368052Y-75499999D01*
X45131948Y-75499999D01*
X44898752Y-75536933D01*
X44674197Y-75609896D01*
X44463830Y-75717083D01*
X44380894Y-75777339D01*
X45079766Y-76476211D01*
X45037708Y-76487481D01*
X44912292Y-76559889D01*
X44809890Y-76662291D01*
X44737482Y-76787707D01*
X44726212Y-76829765D01*
X44027340Y-76130893D01*
X43967084Y-76213829D01*
X43884985Y-76374958D01*
X43837010Y-76425754D01*
X43769189Y-76442549D01*
X43703054Y-76420011D01*
X43659603Y-76365296D01*
X43650500Y-76318663D01*
X43650500Y-74685928D01*
X43625502Y-74560261D01*
X43625501Y-74560260D01*
X43625501Y-74560256D01*
X43587356Y-74468165D01*
X43576466Y-74441874D01*
X43571292Y-74434131D01*
X43505278Y-74335332D01*
X43505272Y-74335325D01*
X36900403Y-67730457D01*
X36817594Y-67647648D01*
X37949500Y-67647648D01*
X37949500Y-67852351D01*
X37981522Y-68054534D01*
X38044781Y-68249223D01*
X38102391Y-68362287D01*
X38129408Y-68415311D01*
X38137715Y-68431613D01*
X38258028Y-68597213D01*
X38402786Y-68741971D01*
X38527778Y-68832781D01*
X38568390Y-68862287D01*
X38684607Y-68921503D01*
X38750776Y-68955218D01*
X38750778Y-68955218D01*
X38750781Y-68955220D01*
X38855137Y-68989127D01*
X38945465Y-69018477D01*
X39046557Y-69034488D01*
X39147648Y-69050500D01*
X39147649Y-69050500D01*
X39352351Y-69050500D01*
X39352352Y-69050500D01*
X39554534Y-69018477D01*
X39749219Y-68955220D01*
X39931610Y-68862287D01*
X40024590Y-68794732D01*
X40097213Y-68741971D01*
X40097215Y-68741968D01*
X40097219Y-68741966D01*
X40241966Y-68597219D01*
X40241968Y-68597215D01*
X40241971Y-68597213D01*
X40330922Y-68474780D01*
X40362287Y-68431610D01*
X40455220Y-68249219D01*
X40518477Y-68054534D01*
X40550500Y-67852352D01*
X40550500Y-67647648D01*
X40544899Y-67612284D01*
X40518477Y-67445465D01*
X40458042Y-67259466D01*
X40455220Y-67250781D01*
X40455218Y-67250778D01*
X40455218Y-67250776D01*
X40381646Y-67106385D01*
X40362287Y-67068390D01*
X40312032Y-66999219D01*
X40241971Y-66902786D01*
X40097213Y-66758028D01*
X39931613Y-66637715D01*
X39931612Y-66637714D01*
X39931610Y-66637713D01*
X39862142Y-66602317D01*
X39749223Y-66544781D01*
X39554534Y-66481522D01*
X39379995Y-66453878D01*
X39352352Y-66449500D01*
X39147648Y-66449500D01*
X39123329Y-66453351D01*
X38945465Y-66481522D01*
X38750776Y-66544781D01*
X38568386Y-66637715D01*
X38402786Y-66758028D01*
X38258028Y-66902786D01*
X38137715Y-67068386D01*
X38044781Y-67250776D01*
X37981522Y-67445465D01*
X37949500Y-67647648D01*
X36817594Y-67647648D01*
X34390779Y-65220833D01*
X34357294Y-65159510D01*
X34360531Y-65094829D01*
X34366013Y-65077957D01*
X34366012Y-65077957D01*
X34366015Y-65077951D01*
X34400500Y-64860222D01*
X34400500Y-64639778D01*
X34366015Y-64422049D01*
X34319108Y-64277682D01*
X34297896Y-64212396D01*
X34297895Y-64212393D01*
X34258152Y-64134394D01*
X34197815Y-64015978D01*
X34171676Y-63980000D01*
X34068247Y-63837641D01*
X34068243Y-63837636D01*
X33912363Y-63681756D01*
X33912358Y-63681752D01*
X33734025Y-63552187D01*
X33734024Y-63552186D01*
X33734022Y-63552185D01*
X33671096Y-63520122D01*
X33537606Y-63452104D01*
X33537603Y-63452103D01*
X33327952Y-63383985D01*
X33159494Y-63357304D01*
X33110222Y-63349500D01*
X32889778Y-63349500D01*
X32840506Y-63357304D01*
X32672047Y-63383985D01*
X32462396Y-63452103D01*
X32462393Y-63452104D01*
X32265974Y-63552187D01*
X32087641Y-63681752D01*
X32087636Y-63681756D01*
X31931756Y-63837636D01*
X31931752Y-63837641D01*
X31802187Y-64015974D01*
X31702104Y-64212393D01*
X31702103Y-64212396D01*
X31633985Y-64422047D01*
X31599500Y-64639778D01*
X31599500Y-64860221D01*
X31633985Y-65077952D01*
X31702103Y-65287603D01*
X31702104Y-65287606D01*
X31802187Y-65484025D01*
X31931752Y-65662358D01*
X31931756Y-65662363D01*
X32087636Y-65818243D01*
X32087641Y-65818247D01*
X32222770Y-65916423D01*
X32265978Y-65947815D01*
X32369919Y-66000776D01*
X32462393Y-66047895D01*
X32462396Y-66047896D01*
X32567221Y-66081955D01*
X32672049Y-66116015D01*
X32889778Y-66150500D01*
X32889779Y-66150500D01*
X33110221Y-66150500D01*
X33110222Y-66150500D01*
X33327951Y-66116015D01*
X33344829Y-66110531D01*
X33414670Y-66108532D01*
X33470833Y-66140779D01*
X42313181Y-74983127D01*
X42346666Y-75044450D01*
X42349500Y-75070808D01*
X42349500Y-76317562D01*
X42329815Y-76384601D01*
X42277011Y-76430356D01*
X42207853Y-76440300D01*
X42144297Y-76411275D01*
X42115015Y-76373857D01*
X42060755Y-76267366D01*
X42033343Y-76213567D01*
X41894517Y-76022490D01*
X41727510Y-75855483D01*
X41536433Y-75716657D01*
X41526049Y-75711366D01*
X41325996Y-75609433D01*
X41101368Y-75536446D01*
X40868097Y-75499500D01*
X40868092Y-75499500D01*
X40631908Y-75499500D01*
X40631903Y-75499500D01*
X40398631Y-75536446D01*
X40174003Y-75609433D01*
X39963566Y-75716657D01*
X39879410Y-75777801D01*
X39772490Y-75855483D01*
X39772488Y-75855485D01*
X39772487Y-75855485D01*
X39605485Y-76022487D01*
X39605485Y-76022488D01*
X39605483Y-76022490D01*
X39596168Y-76035311D01*
X39466657Y-76213566D01*
X39359433Y-76424003D01*
X39286446Y-76648631D01*
X39249500Y-76881902D01*
X39249500Y-77118097D01*
X39286446Y-77351368D01*
X39359433Y-77575996D01*
X39466519Y-77786162D01*
X39466657Y-77786433D01*
X39605483Y-77977510D01*
X39772490Y-78144517D01*
X39880040Y-78222657D01*
X39963568Y-78283344D01*
X40031794Y-78318106D01*
X40082590Y-78366080D01*
X40099500Y-78428591D01*
X40099500Y-82071407D01*
X40079815Y-82138446D01*
X40031796Y-82181891D01*
X39963569Y-82216655D01*
X39880047Y-82277338D01*
X39772490Y-82355483D01*
X39772488Y-82355485D01*
X39772487Y-82355485D01*
X39605485Y-82522487D01*
X39605485Y-82522488D01*
X39605483Y-82522490D01*
X39572085Y-82568458D01*
X39466657Y-82713566D01*
X39359433Y-82924003D01*
X39286446Y-83148631D01*
X39249500Y-83381902D01*
X39249500Y-83618097D01*
X39286447Y-83851369D01*
X39286447Y-83851372D01*
X39336246Y-84004635D01*
X39338241Y-84074476D01*
X39302161Y-84134309D01*
X39239460Y-84165137D01*
X39170046Y-84157172D01*
X39130634Y-84130634D01*
X31906558Y-76906558D01*
X34149537Y-76906558D01*
X34149537Y-77149135D01*
X34181198Y-77389632D01*
X34243984Y-77623951D01*
X34325278Y-77820212D01*
X34336813Y-77848059D01*
X34458101Y-78058136D01*
X34458103Y-78058139D01*
X34458104Y-78058140D01*
X34605770Y-78250583D01*
X34605776Y-78250590D01*
X34777293Y-78422107D01*
X34777300Y-78422113D01*
X34879456Y-78500500D01*
X34969748Y-78569783D01*
X35179825Y-78691071D01*
X35403937Y-78783901D01*
X35638248Y-78846685D01*
X35818623Y-78870431D01*
X35878748Y-78878347D01*
X35878749Y-78878347D01*
X36121326Y-78878347D01*
X36169425Y-78872014D01*
X36361826Y-78846685D01*
X36596137Y-78783901D01*
X36820249Y-78691071D01*
X37030326Y-78569783D01*
X37222775Y-78422112D01*
X37394302Y-78250585D01*
X37541973Y-78058136D01*
X37663261Y-77848059D01*
X37756091Y-77623947D01*
X37818875Y-77389636D01*
X37850537Y-77149135D01*
X37850537Y-76906559D01*
X37818875Y-76666058D01*
X37756091Y-76431747D01*
X37663261Y-76207635D01*
X37541973Y-75997558D01*
X37418296Y-75836379D01*
X37394303Y-75805110D01*
X37394297Y-75805103D01*
X37222780Y-75633586D01*
X37222773Y-75633580D01*
X37030330Y-75485914D01*
X37030329Y-75485913D01*
X37030326Y-75485911D01*
X36820249Y-75364623D01*
X36753023Y-75336777D01*
X36596141Y-75271794D01*
X36478981Y-75240401D01*
X36361826Y-75209009D01*
X36361825Y-75209008D01*
X36361822Y-75209008D01*
X36121326Y-75177347D01*
X36121325Y-75177347D01*
X35878749Y-75177347D01*
X35878748Y-75177347D01*
X35638251Y-75209008D01*
X35403932Y-75271794D01*
X35179831Y-75364620D01*
X35179822Y-75364624D01*
X34969743Y-75485914D01*
X34777300Y-75633580D01*
X34777293Y-75633586D01*
X34605776Y-75805103D01*
X34605770Y-75805110D01*
X34458104Y-75997553D01*
X34458101Y-75997557D01*
X34458101Y-75997558D01*
X34443708Y-76022487D01*
X34336814Y-76207632D01*
X34336810Y-76207641D01*
X34243984Y-76431742D01*
X34181198Y-76666061D01*
X34149537Y-76906558D01*
X31906558Y-76906558D01*
X31036319Y-76036319D01*
X31002834Y-75974996D01*
X31000000Y-75948638D01*
X31000000Y-69639818D01*
X31600000Y-69639818D01*
X31600000Y-69860181D01*
X31634473Y-70077835D01*
X31702567Y-70287410D01*
X31802611Y-70483756D01*
X31848932Y-70547513D01*
X32435387Y-69961058D01*
X32440889Y-69981591D01*
X32519881Y-70118408D01*
X32631592Y-70230119D01*
X32768409Y-70309111D01*
X32788939Y-70314612D01*
X32202485Y-70901065D01*
X32202485Y-70901066D01*
X32266243Y-70947388D01*
X32462589Y-71047432D01*
X32672164Y-71115526D01*
X32889819Y-71150000D01*
X33110181Y-71150000D01*
X33327835Y-71115526D01*
X33537410Y-71047432D01*
X33733760Y-70947386D01*
X33797513Y-70901066D01*
X33797514Y-70901066D01*
X33211059Y-70314612D01*
X33231591Y-70309111D01*
X33368408Y-70230119D01*
X33480119Y-70118408D01*
X33559111Y-69981591D01*
X33564612Y-69961060D01*
X34151066Y-70547514D01*
X34151066Y-70547513D01*
X34197386Y-70483760D01*
X34297432Y-70287410D01*
X34365526Y-70077835D01*
X34400000Y-69860181D01*
X34400000Y-69639818D01*
X34365526Y-69422164D01*
X34297432Y-69212589D01*
X34197388Y-69016243D01*
X34151066Y-68952485D01*
X34151065Y-68952485D01*
X33564612Y-69538939D01*
X33559111Y-69518409D01*
X33480119Y-69381592D01*
X33368408Y-69269881D01*
X33231591Y-69190889D01*
X33211057Y-69185387D01*
X33797513Y-68598932D01*
X33733756Y-68552611D01*
X33537410Y-68452567D01*
X33327835Y-68384473D01*
X33110181Y-68350000D01*
X32889819Y-68350000D01*
X32672164Y-68384473D01*
X32462589Y-68452567D01*
X32266233Y-68552616D01*
X32202485Y-68598931D01*
X32202485Y-68598932D01*
X32788940Y-69185387D01*
X32768409Y-69190889D01*
X32631592Y-69269881D01*
X32519881Y-69381592D01*
X32440889Y-69518409D01*
X32435387Y-69538940D01*
X31848932Y-68952485D01*
X31848931Y-68952485D01*
X31802616Y-69016233D01*
X31702567Y-69212589D01*
X31634473Y-69422164D01*
X31600000Y-69639818D01*
X31000000Y-69639818D01*
X31000000Y-59639778D01*
X31599500Y-59639778D01*
X31599500Y-59860222D01*
X31611270Y-59934534D01*
X31633985Y-60077952D01*
X31702103Y-60287603D01*
X31702104Y-60287606D01*
X31802187Y-60484025D01*
X31931752Y-60662358D01*
X31931756Y-60662363D01*
X32087636Y-60818243D01*
X32087641Y-60818247D01*
X32200833Y-60900485D01*
X32265978Y-60947815D01*
X32379288Y-61005550D01*
X32462393Y-61047895D01*
X32462396Y-61047896D01*
X32524358Y-61068028D01*
X32672049Y-61116015D01*
X32889778Y-61150500D01*
X32889779Y-61150500D01*
X33110221Y-61150500D01*
X33110222Y-61150500D01*
X33327951Y-61116015D01*
X33537606Y-61047895D01*
X33734022Y-60947815D01*
X33912365Y-60818242D01*
X34068242Y-60662365D01*
X34197815Y-60484022D01*
X34297895Y-60287606D01*
X34366015Y-60077951D01*
X34400500Y-59860222D01*
X34400500Y-59639778D01*
X34366015Y-59422049D01*
X34326197Y-59299500D01*
X34297896Y-59212396D01*
X34297895Y-59212393D01*
X34256308Y-59130776D01*
X34197815Y-59015978D01*
X34116822Y-58904500D01*
X34068247Y-58837641D01*
X34068243Y-58837636D01*
X33912363Y-58681756D01*
X33912358Y-58681752D01*
X33734025Y-58552187D01*
X33734024Y-58552186D01*
X33734022Y-58552185D01*
X33654139Y-58511482D01*
X33537606Y-58452104D01*
X33537603Y-58452103D01*
X33327952Y-58383985D01*
X33186132Y-58361523D01*
X33110222Y-58349500D01*
X32889778Y-58349500D01*
X32822202Y-58360203D01*
X32672047Y-58383985D01*
X32462396Y-58452103D01*
X32462393Y-58452104D01*
X32265974Y-58552187D01*
X32087641Y-58681752D01*
X32087636Y-58681756D01*
X31931756Y-58837636D01*
X31931752Y-58837641D01*
X31802187Y-59015974D01*
X31702104Y-59212393D01*
X31702103Y-59212396D01*
X31633985Y-59422047D01*
X31611962Y-59561095D01*
X31599500Y-59639778D01*
X31000000Y-59639778D01*
X31000000Y-54051362D01*
X31019685Y-53984323D01*
X31036319Y-53963681D01*
X41121289Y-43878711D01*
X44149500Y-43878711D01*
X44149500Y-44121288D01*
X44181161Y-44361785D01*
X44243947Y-44596104D01*
X44328415Y-44800027D01*
X44336776Y-44820212D01*
X44458064Y-45030289D01*
X44458066Y-45030292D01*
X44458067Y-45030293D01*
X44605733Y-45222736D01*
X44605739Y-45222743D01*
X44777256Y-45394260D01*
X44777263Y-45394266D01*
X44784947Y-45400162D01*
X44969711Y-45541936D01*
X45179788Y-45663224D01*
X45403900Y-45756054D01*
X45638211Y-45818838D01*
X45818586Y-45842584D01*
X45878711Y-45850500D01*
X45878712Y-45850500D01*
X46121289Y-45850500D01*
X46169388Y-45844167D01*
X46361789Y-45818838D01*
X46596100Y-45756054D01*
X46820212Y-45663224D01*
X47030289Y-45541936D01*
X47222738Y-45394265D01*
X47394265Y-45222738D01*
X47541936Y-45030289D01*
X47663224Y-44820212D01*
X47756054Y-44596100D01*
X47818838Y-44361789D01*
X47850500Y-44121288D01*
X47850500Y-43878712D01*
X47848844Y-43866137D01*
X47818838Y-43638214D01*
X47818838Y-43638211D01*
X47756054Y-43403900D01*
X47663224Y-43179788D01*
X47541936Y-42969711D01*
X47402296Y-42787728D01*
X47394266Y-42777263D01*
X47394260Y-42777256D01*
X47222743Y-42605739D01*
X47222736Y-42605733D01*
X47030293Y-42458067D01*
X47030292Y-42458066D01*
X47030289Y-42458064D01*
X46834765Y-42345178D01*
X46820219Y-42336779D01*
X46820205Y-42336773D01*
X46596104Y-42243947D01*
X46595850Y-42243879D01*
X50568750Y-42243879D01*
X50568750Y-42431120D01*
X50605275Y-42614743D01*
X50605277Y-42614751D01*
X50676926Y-42787728D01*
X50676931Y-42787737D01*
X50780947Y-42943407D01*
X50780950Y-42943411D01*
X50913338Y-43075799D01*
X50913342Y-43075802D01*
X51069012Y-43179818D01*
X51069018Y-43179821D01*
X51069019Y-43179822D01*
X51241999Y-43251473D01*
X51425629Y-43287999D01*
X51425633Y-43288000D01*
X51425634Y-43288000D01*
X51612867Y-43288000D01*
X51612868Y-43287999D01*
X51796501Y-43251473D01*
X51969481Y-43179822D01*
X52125158Y-43075802D01*
X52257552Y-42943408D01*
X52361572Y-42787731D01*
X52433223Y-42614751D01*
X52469750Y-42431116D01*
X52469750Y-42243884D01*
X52438644Y-42087500D01*
X54736462Y-42087500D01*
X55853564Y-42087500D01*
X55849170Y-42091894D01*
X55796509Y-42183106D01*
X55769250Y-42284839D01*
X55769250Y-42390161D01*
X55796509Y-42491894D01*
X55849170Y-42583106D01*
X55853564Y-42587500D01*
X54736462Y-42587500D01*
X54739665Y-42607725D01*
X54795798Y-42780484D01*
X54878261Y-42942328D01*
X54985030Y-43089281D01*
X54985030Y-43089282D01*
X55113467Y-43217719D01*
X55260421Y-43324488D01*
X55422265Y-43406951D01*
X55595024Y-43463084D01*
X55774429Y-43491500D01*
X56269250Y-43491500D01*
X56269250Y-42737500D01*
X56769250Y-42737500D01*
X56769250Y-43491500D01*
X57264071Y-43491500D01*
X57443475Y-43463084D01*
X57616234Y-43406951D01*
X57778078Y-43324488D01*
X57925031Y-43217719D01*
X57925032Y-43217719D01*
X58053469Y-43089282D01*
X58053469Y-43089281D01*
X58160238Y-42942328D01*
X58242701Y-42780484D01*
X58298834Y-42607725D01*
X58302038Y-42587500D01*
X57184936Y-42587500D01*
X57189330Y-42583106D01*
X57241991Y-42491894D01*
X57269250Y-42390161D01*
X57269250Y-42284839D01*
X57258275Y-42243879D01*
X60568750Y-42243879D01*
X60568750Y-42431120D01*
X60605275Y-42614743D01*
X60605277Y-42614751D01*
X60676926Y-42787728D01*
X60676931Y-42787737D01*
X60780947Y-42943407D01*
X60780950Y-42943411D01*
X60913338Y-43075799D01*
X60913342Y-43075802D01*
X61069012Y-43179818D01*
X61069018Y-43179821D01*
X61069019Y-43179822D01*
X61241999Y-43251473D01*
X61425629Y-43287999D01*
X61425633Y-43288000D01*
X61425634Y-43288000D01*
X61612867Y-43288000D01*
X61612868Y-43287999D01*
X61796501Y-43251473D01*
X61969481Y-43179822D01*
X62125158Y-43075802D01*
X62257552Y-42943408D01*
X62361572Y-42787731D01*
X62433223Y-42614751D01*
X62469750Y-42431116D01*
X62469750Y-42243884D01*
X62433223Y-42060249D01*
X62377804Y-41926456D01*
X62361573Y-41887271D01*
X62361568Y-41887262D01*
X62257552Y-41731592D01*
X62257549Y-41731588D01*
X62125161Y-41599200D01*
X62125157Y-41599197D01*
X61969487Y-41495181D01*
X61969478Y-41495176D01*
X61796501Y-41423527D01*
X61796493Y-41423525D01*
X61612870Y-41387000D01*
X61612866Y-41387000D01*
X61425634Y-41387000D01*
X61425629Y-41387000D01*
X61242006Y-41423525D01*
X61241998Y-41423527D01*
X61069021Y-41495176D01*
X61069012Y-41495181D01*
X60913342Y-41599197D01*
X60913338Y-41599200D01*
X60780950Y-41731588D01*
X60780947Y-41731592D01*
X60676931Y-41887262D01*
X60676926Y-41887271D01*
X60605277Y-42060248D01*
X60605275Y-42060256D01*
X60568750Y-42243879D01*
X57258275Y-42243879D01*
X57241991Y-42183106D01*
X57189330Y-42091894D01*
X57184936Y-42087500D01*
X58302038Y-42087500D01*
X58298834Y-42067274D01*
X58242701Y-41894515D01*
X58160238Y-41732671D01*
X58053469Y-41585718D01*
X58053469Y-41585717D01*
X57925032Y-41457280D01*
X57778078Y-41350511D01*
X57616234Y-41268048D01*
X57443475Y-41211915D01*
X57264071Y-41183500D01*
X56769250Y-41183500D01*
X56769250Y-41937500D01*
X56269250Y-41937500D01*
X56269250Y-41183500D01*
X55774429Y-41183500D01*
X55595024Y-41211915D01*
X55422265Y-41268048D01*
X55260421Y-41350511D01*
X55113468Y-41457280D01*
X55113467Y-41457280D01*
X54985030Y-41585717D01*
X54985030Y-41585718D01*
X54878261Y-41732671D01*
X54795798Y-41894515D01*
X54739665Y-42067274D01*
X54736462Y-42087500D01*
X52438644Y-42087500D01*
X52433223Y-42060249D01*
X52377804Y-41926456D01*
X52361573Y-41887271D01*
X52361568Y-41887262D01*
X52257552Y-41731592D01*
X52257549Y-41731588D01*
X52125161Y-41599200D01*
X52125157Y-41599197D01*
X51969487Y-41495181D01*
X51969478Y-41495176D01*
X51796501Y-41423527D01*
X51796493Y-41423525D01*
X51612870Y-41387000D01*
X51612866Y-41387000D01*
X51425634Y-41387000D01*
X51425629Y-41387000D01*
X51242006Y-41423525D01*
X51241998Y-41423527D01*
X51069021Y-41495176D01*
X51069012Y-41495181D01*
X50913342Y-41599197D01*
X50913338Y-41599200D01*
X50780950Y-41731588D01*
X50780947Y-41731592D01*
X50676931Y-41887262D01*
X50676926Y-41887271D01*
X50605277Y-42060248D01*
X50605275Y-42060256D01*
X50568750Y-42243879D01*
X46595850Y-42243879D01*
X46361785Y-42181161D01*
X46121289Y-42149500D01*
X46121288Y-42149500D01*
X45878712Y-42149500D01*
X45878711Y-42149500D01*
X45638214Y-42181161D01*
X45403895Y-42243947D01*
X45179794Y-42336773D01*
X45179785Y-42336777D01*
X44969706Y-42458067D01*
X44777263Y-42605733D01*
X44777256Y-42605739D01*
X44605739Y-42777256D01*
X44605733Y-42777263D01*
X44458067Y-42969706D01*
X44336777Y-43179785D01*
X44336773Y-43179794D01*
X44243947Y-43403895D01*
X44181161Y-43638214D01*
X44149500Y-43878711D01*
X41121289Y-43878711D01*
X45928921Y-39071079D01*
X45990244Y-39037594D01*
X46016602Y-39034760D01*
X49118504Y-39034760D01*
X50680479Y-39034760D01*
X50747518Y-39054445D01*
G37*
%TD.AperFunction*%
%TA.AperFunction,Conductor*%
G36*
X46955203Y-76875595D02*
G01*
X46961681Y-76881627D01*
X47733062Y-77653008D01*
X47763312Y-77702370D01*
X47794781Y-77799223D01*
X47830388Y-77869104D01*
X47885624Y-77977511D01*
X47887715Y-77981613D01*
X48008028Y-78147213D01*
X48152786Y-78291971D01*
X48293586Y-78394266D01*
X48318390Y-78412287D01*
X48386532Y-78447007D01*
X48411080Y-78459515D01*
X48461876Y-78507490D01*
X48478671Y-78575311D01*
X48456134Y-78641446D01*
X48411080Y-78680485D01*
X48318386Y-78727715D01*
X48152786Y-78848028D01*
X48008028Y-78992786D01*
X47887715Y-79158386D01*
X47794781Y-79340776D01*
X47731522Y-79535465D01*
X47699500Y-79737648D01*
X47699500Y-79942351D01*
X47731522Y-80144534D01*
X47794781Y-80339223D01*
X47887715Y-80521613D01*
X48008028Y-80687213D01*
X48152786Y-80831971D01*
X48307749Y-80944556D01*
X48318390Y-80952287D01*
X48409840Y-80998883D01*
X48411080Y-80999515D01*
X48461876Y-81047490D01*
X48478671Y-81115311D01*
X48456134Y-81181446D01*
X48411080Y-81220485D01*
X48318386Y-81267715D01*
X48152786Y-81388028D01*
X48008028Y-81532786D01*
X47887715Y-81698386D01*
X47794781Y-81880776D01*
X47731522Y-82075465D01*
X47699500Y-82277648D01*
X47699500Y-82482351D01*
X47731522Y-82684534D01*
X47794781Y-82879223D01*
X47846368Y-82980466D01*
X47871797Y-83030374D01*
X47887715Y-83061613D01*
X48008028Y-83227213D01*
X48152786Y-83371971D01*
X48307749Y-83484556D01*
X48318390Y-83492287D01*
X48409840Y-83538883D01*
X48411080Y-83539515D01*
X48461876Y-83587490D01*
X48478671Y-83655311D01*
X48456134Y-83721446D01*
X48411080Y-83760485D01*
X48318386Y-83807715D01*
X48152786Y-83928028D01*
X48008028Y-84072786D01*
X47887715Y-84238386D01*
X47794781Y-84420776D01*
X47731522Y-84615465D01*
X47699500Y-84817648D01*
X47699500Y-85022351D01*
X47731522Y-85224534D01*
X47794781Y-85419223D01*
X47887715Y-85601613D01*
X48008028Y-85767213D01*
X48152786Y-85911971D01*
X48307749Y-86024556D01*
X48318390Y-86032287D01*
X48409840Y-86078883D01*
X48411080Y-86079515D01*
X48461876Y-86127490D01*
X48478671Y-86195311D01*
X48456134Y-86261446D01*
X48411080Y-86300485D01*
X48318386Y-86347715D01*
X48152786Y-86468028D01*
X48008028Y-86612786D01*
X47887715Y-86778386D01*
X47794781Y-86960776D01*
X47731522Y-87155465D01*
X47699500Y-87357648D01*
X47699500Y-87562351D01*
X47727723Y-87740544D01*
X47718768Y-87809838D01*
X47673772Y-87863290D01*
X47607021Y-87883929D01*
X47539707Y-87865204D01*
X47517569Y-87847623D01*
X44852855Y-85182909D01*
X44819370Y-85121586D01*
X44824354Y-85051894D01*
X44866226Y-84995961D01*
X44931690Y-84971544D01*
X44959934Y-84972755D01*
X45131949Y-85000000D01*
X45368053Y-85000000D01*
X45601248Y-84963065D01*
X45825803Y-84890102D01*
X46036164Y-84782918D01*
X46036170Y-84782914D01*
X46119105Y-84722658D01*
X46119106Y-84722658D01*
X45420234Y-84023787D01*
X45462293Y-84012518D01*
X45587709Y-83940110D01*
X45690111Y-83837708D01*
X45762519Y-83712292D01*
X45773788Y-83670234D01*
X46472659Y-84369105D01*
X46472659Y-84369104D01*
X46532915Y-84286169D01*
X46532919Y-84286163D01*
X46640103Y-84075802D01*
X46713066Y-83851247D01*
X46750001Y-83618052D01*
X46750001Y-83381947D01*
X46713066Y-83148752D01*
X46640103Y-82924197D01*
X46532915Y-82713828D01*
X46472659Y-82630894D01*
X46472659Y-82630893D01*
X45773788Y-83329765D01*
X45762519Y-83287708D01*
X45690111Y-83162292D01*
X45587709Y-83059890D01*
X45462293Y-82987482D01*
X45420235Y-82976212D01*
X46119106Y-82277340D01*
X46119105Y-82277338D01*
X46036175Y-82217087D01*
X45825803Y-82109897D01*
X45601248Y-82036934D01*
X45601249Y-82036934D01*
X45368053Y-82000000D01*
X45131949Y-82000000D01*
X44898753Y-82036934D01*
X44674198Y-82109897D01*
X44463831Y-82217084D01*
X44380895Y-82277340D01*
X45079767Y-82976212D01*
X45037709Y-82987482D01*
X44912293Y-83059890D01*
X44809891Y-83162292D01*
X44737483Y-83287708D01*
X44726213Y-83329766D01*
X44027341Y-82630894D01*
X43967085Y-82713830D01*
X43884985Y-82874961D01*
X43837010Y-82925757D01*
X43769189Y-82942552D01*
X43703054Y-82920014D01*
X43659603Y-82865299D01*
X43650500Y-82818666D01*
X43650500Y-77681334D01*
X43670185Y-77614295D01*
X43722989Y-77568540D01*
X43792147Y-77558596D01*
X43855703Y-77587621D01*
X43884985Y-77625039D01*
X43967087Y-77786173D01*
X44027338Y-77869103D01*
X44027340Y-77869104D01*
X44726212Y-77170232D01*
X44737482Y-77212291D01*
X44809890Y-77337707D01*
X44912292Y-77440109D01*
X45037708Y-77512517D01*
X45079765Y-77523786D01*
X44380893Y-78222657D01*
X44463828Y-78282913D01*
X44674197Y-78390101D01*
X44898752Y-78463064D01*
X44898751Y-78463064D01*
X45131948Y-78499999D01*
X45368052Y-78499999D01*
X45601247Y-78463064D01*
X45825802Y-78390101D01*
X46036163Y-78282917D01*
X46036169Y-78282913D01*
X46119104Y-78222657D01*
X46119105Y-78222657D01*
X45420233Y-77523786D01*
X45462292Y-77512517D01*
X45587708Y-77440109D01*
X45690110Y-77337707D01*
X45762518Y-77212291D01*
X45773787Y-77170233D01*
X46472658Y-77869104D01*
X46472658Y-77869103D01*
X46532914Y-77786168D01*
X46532918Y-77786162D01*
X46640102Y-77575801D01*
X46713065Y-77351246D01*
X46750000Y-77118051D01*
X46750000Y-76969308D01*
X46769685Y-76902269D01*
X46822489Y-76856514D01*
X46891647Y-76846570D01*
X46955203Y-76875595D01*
G37*
%TD.AperFunction*%
%TA.AperFunction,Conductor*%
G36*
X47618833Y-54215574D02*
G01*
X47674767Y-54257445D01*
X47699184Y-54322910D01*
X47699500Y-54331756D01*
X47699500Y-55287870D01*
X47699501Y-55287876D01*
X47705908Y-55347483D01*
X47756202Y-55482328D01*
X47756206Y-55482335D01*
X47842452Y-55597544D01*
X47842455Y-55597547D01*
X47957664Y-55683793D01*
X47957671Y-55683797D01*
X48002618Y-55700561D01*
X48092517Y-55734091D01*
X48129441Y-55738060D01*
X48193989Y-55764796D01*
X48233838Y-55822188D01*
X48236333Y-55892013D01*
X48200681Y-55952102D01*
X48189071Y-55961666D01*
X48152784Y-55988030D01*
X48008028Y-56132786D01*
X47887715Y-56298386D01*
X47794781Y-56480776D01*
X47731522Y-56675465D01*
X47699500Y-56877648D01*
X47699500Y-57082351D01*
X47731522Y-57284534D01*
X47794781Y-57479223D01*
X47887715Y-57661613D01*
X48008028Y-57827213D01*
X48152786Y-57971971D01*
X48285885Y-58068671D01*
X48318390Y-58092287D01*
X48401344Y-58134554D01*
X48411080Y-58139515D01*
X48461876Y-58187490D01*
X48478671Y-58255311D01*
X48456134Y-58321446D01*
X48411080Y-58360485D01*
X48318386Y-58407715D01*
X48152786Y-58528028D01*
X48008028Y-58672786D01*
X47887715Y-58838386D01*
X47794781Y-59020776D01*
X47731522Y-59215465D01*
X47699500Y-59417648D01*
X47699500Y-59622352D01*
X47700834Y-59630776D01*
X47731522Y-59824534D01*
X47794781Y-60019223D01*
X47887715Y-60201613D01*
X48008028Y-60367213D01*
X48152786Y-60511971D01*
X48304184Y-60621966D01*
X48318390Y-60632287D01*
X48390424Y-60668990D01*
X48411629Y-60679795D01*
X48462425Y-60727770D01*
X48479220Y-60795591D01*
X48456682Y-60861726D01*
X48411629Y-60900765D01*
X48318650Y-60948140D01*
X48153105Y-61068417D01*
X48153104Y-61068417D01*
X48008417Y-61213104D01*
X48008417Y-61213105D01*
X47888140Y-61378650D01*
X47795244Y-61560970D01*
X47732009Y-61755586D01*
X47723391Y-61810000D01*
X48566988Y-61810000D01*
X48534075Y-61867007D01*
X48500000Y-61994174D01*
X48500000Y-62125826D01*
X48534075Y-62252993D01*
X48566988Y-62310000D01*
X47723391Y-62310000D01*
X47732009Y-62364413D01*
X47795244Y-62559029D01*
X47888140Y-62741349D01*
X48008417Y-62906894D01*
X48008417Y-62906895D01*
X48153104Y-63051582D01*
X48318652Y-63171861D01*
X48411628Y-63219234D01*
X48462425Y-63267208D01*
X48479220Y-63335029D01*
X48456683Y-63401164D01*
X48411630Y-63440203D01*
X48318388Y-63487713D01*
X48152786Y-63608028D01*
X48008028Y-63752786D01*
X47887715Y-63918386D01*
X47794781Y-64100776D01*
X47731522Y-64295465D01*
X47699500Y-64497648D01*
X47699500Y-64702351D01*
X47731522Y-64904534D01*
X47794781Y-65099223D01*
X47887715Y-65281613D01*
X48008028Y-65447213D01*
X48152786Y-65591971D01*
X48273950Y-65680000D01*
X48318390Y-65712287D01*
X48409840Y-65758883D01*
X48411080Y-65759515D01*
X48461876Y-65807490D01*
X48478671Y-65875311D01*
X48456134Y-65941446D01*
X48411080Y-65980485D01*
X48318386Y-66027715D01*
X48152786Y-66148028D01*
X48008028Y-66292786D01*
X47887715Y-66458386D01*
X47794781Y-66640776D01*
X47731522Y-66835465D01*
X47705586Y-66999223D01*
X47699500Y-67037648D01*
X47699500Y-67242352D01*
X47702211Y-67259466D01*
X47731522Y-67444534D01*
X47794781Y-67639223D01*
X47887715Y-67821613D01*
X48008028Y-67987213D01*
X48152786Y-68131971D01*
X48295759Y-68235845D01*
X48318390Y-68252287D01*
X48398003Y-68292852D01*
X48411080Y-68299515D01*
X48461876Y-68347490D01*
X48478671Y-68415311D01*
X48456134Y-68481446D01*
X48411080Y-68520485D01*
X48318386Y-68567715D01*
X48152786Y-68688028D01*
X48008028Y-68832786D01*
X47887715Y-68998386D01*
X47794781Y-69180776D01*
X47731522Y-69375465D01*
X47699500Y-69577648D01*
X47699500Y-69782351D01*
X47731522Y-69984534D01*
X47794781Y-70179223D01*
X47849906Y-70287410D01*
X47881797Y-70350000D01*
X47887715Y-70361613D01*
X48008028Y-70527213D01*
X48152786Y-70671971D01*
X48307749Y-70784556D01*
X48318390Y-70792287D01*
X48409840Y-70838883D01*
X48411080Y-70839515D01*
X48461876Y-70887490D01*
X48478671Y-70955311D01*
X48456134Y-71021446D01*
X48411080Y-71060485D01*
X48318386Y-71107715D01*
X48152786Y-71228028D01*
X48008028Y-71372786D01*
X47887715Y-71538386D01*
X47794781Y-71720776D01*
X47731522Y-71915465D01*
X47699500Y-72117648D01*
X47699500Y-72240192D01*
X47679815Y-72307231D01*
X47627011Y-72352986D01*
X47557853Y-72362930D01*
X47494297Y-72333905D01*
X47487819Y-72327873D01*
X46986819Y-71826873D01*
X46953334Y-71765550D01*
X46950500Y-71739192D01*
X46950500Y-59935928D01*
X46925502Y-59810261D01*
X46925501Y-59810260D01*
X46925501Y-59810256D01*
X46876465Y-59691873D01*
X46857433Y-59663389D01*
X46835645Y-59630781D01*
X46805275Y-59585328D01*
X45390819Y-58170872D01*
X45357334Y-58109549D01*
X45354500Y-58083191D01*
X45354500Y-56377617D01*
X45374185Y-56310578D01*
X45408592Y-56276902D01*
X45407874Y-56275914D01*
X45411811Y-56273053D01*
X45411816Y-56273051D01*
X45583792Y-56148104D01*
X45734104Y-55997792D01*
X45734106Y-55997788D01*
X45734109Y-55997786D01*
X45859048Y-55825820D01*
X45859047Y-55825820D01*
X45859051Y-55825816D01*
X45955557Y-55636412D01*
X46021246Y-55434243D01*
X46054500Y-55224287D01*
X46054500Y-55063725D01*
X46074185Y-54996686D01*
X46126989Y-54950931D01*
X46196147Y-54940987D01*
X46230012Y-54950931D01*
X46357591Y-55009195D01*
X46357592Y-55009195D01*
X46357594Y-55009196D01*
X46500051Y-55029677D01*
X46642508Y-55009196D01*
X46773424Y-54949408D01*
X46820107Y-54911789D01*
X47487820Y-54244074D01*
X47549142Y-54210590D01*
X47618833Y-54215574D01*
G37*
%TD.AperFunction*%
%TD*%
M02*
