%TF.GenerationSoftware,KiCad,Pcbnew,9.0.1*%
%TF.CreationDate,2025-04-22T23:28:07+02:00*%
%TF.ProjectId,micro-lse_1,6d696372-6f2d-46c7-9365-5f312e6b6963,0*%
%TF.SameCoordinates,Original*%
%TF.FileFunction,Legend,Top*%
%TF.FilePolarity,Positive*%
%FSLAX46Y46*%
G04 Gerber Fmt 4.6, Leading zero omitted, Abs format (unit mm)*
G04 Created by KiCad (PCBNEW 9.0.1) date 2025-04-22 23:28:07*
%MOMM*%
%LPD*%
G01*
G04 APERTURE LIST*
%ADD10C,0.150000*%
%ADD11C,0.100000*%
%ADD12C,0.120000*%
%ADD13C,0.127000*%
%ADD14C,0.200000*%
G04 APERTURE END LIST*
D10*
X66392588Y-55305438D02*
X66297350Y-55257819D01*
X66297350Y-55257819D02*
X66154493Y-55257819D01*
X66154493Y-55257819D02*
X66011636Y-55305438D01*
X66011636Y-55305438D02*
X65916398Y-55400676D01*
X65916398Y-55400676D02*
X65868779Y-55495914D01*
X65868779Y-55495914D02*
X65821160Y-55686390D01*
X65821160Y-55686390D02*
X65821160Y-55829247D01*
X65821160Y-55829247D02*
X65868779Y-56019723D01*
X65868779Y-56019723D02*
X65916398Y-56114961D01*
X65916398Y-56114961D02*
X66011636Y-56210200D01*
X66011636Y-56210200D02*
X66154493Y-56257819D01*
X66154493Y-56257819D02*
X66249731Y-56257819D01*
X66249731Y-56257819D02*
X66392588Y-56210200D01*
X66392588Y-56210200D02*
X66440207Y-56162580D01*
X66440207Y-56162580D02*
X66440207Y-55829247D01*
X66440207Y-55829247D02*
X66249731Y-55829247D01*
X66868779Y-56257819D02*
X66868779Y-55257819D01*
X66868779Y-55257819D02*
X67440207Y-56257819D01*
X67440207Y-56257819D02*
X67440207Y-55257819D01*
X67916398Y-56257819D02*
X67916398Y-55257819D01*
X67916398Y-55257819D02*
X68154493Y-55257819D01*
X68154493Y-55257819D02*
X68297350Y-55305438D01*
X68297350Y-55305438D02*
X68392588Y-55400676D01*
X68392588Y-55400676D02*
X68440207Y-55495914D01*
X68440207Y-55495914D02*
X68487826Y-55686390D01*
X68487826Y-55686390D02*
X68487826Y-55829247D01*
X68487826Y-55829247D02*
X68440207Y-56019723D01*
X68440207Y-56019723D02*
X68392588Y-56114961D01*
X68392588Y-56114961D02*
X68297350Y-56210200D01*
X68297350Y-56210200D02*
X68154493Y-56257819D01*
X68154493Y-56257819D02*
X67916398Y-56257819D01*
D11*
X54654762Y-74375920D02*
X54654762Y-75375920D01*
X55130952Y-74899729D02*
X55178571Y-74994968D01*
X55178571Y-74994968D02*
X55273809Y-75042587D01*
X54654762Y-74899729D02*
X54702381Y-74994968D01*
X54702381Y-74994968D02*
X54797619Y-75042587D01*
X54797619Y-75042587D02*
X54988095Y-75042587D01*
X54988095Y-75042587D02*
X55083333Y-74994968D01*
X55083333Y-74994968D02*
X55130952Y-74899729D01*
X55130952Y-74899729D02*
X55130952Y-74375920D01*
X56178571Y-75042587D02*
X55702381Y-75042587D01*
X55702381Y-75042587D02*
X55702381Y-74042587D01*
X56464286Y-74994968D02*
X56607143Y-75042587D01*
X56607143Y-75042587D02*
X56845238Y-75042587D01*
X56845238Y-75042587D02*
X56940476Y-74994968D01*
X56940476Y-74994968D02*
X56988095Y-74947348D01*
X56988095Y-74947348D02*
X57035714Y-74852110D01*
X57035714Y-74852110D02*
X57035714Y-74756872D01*
X57035714Y-74756872D02*
X56988095Y-74661634D01*
X56988095Y-74661634D02*
X56940476Y-74614015D01*
X56940476Y-74614015D02*
X56845238Y-74566396D01*
X56845238Y-74566396D02*
X56654762Y-74518777D01*
X56654762Y-74518777D02*
X56559524Y-74471158D01*
X56559524Y-74471158D02*
X56511905Y-74423539D01*
X56511905Y-74423539D02*
X56464286Y-74328301D01*
X56464286Y-74328301D02*
X56464286Y-74233063D01*
X56464286Y-74233063D02*
X56511905Y-74137825D01*
X56511905Y-74137825D02*
X56559524Y-74090206D01*
X56559524Y-74090206D02*
X56654762Y-74042587D01*
X56654762Y-74042587D02*
X56892857Y-74042587D01*
X56892857Y-74042587D02*
X57035714Y-74090206D01*
X57845238Y-74994968D02*
X57750000Y-75042587D01*
X57750000Y-75042587D02*
X57559524Y-75042587D01*
X57559524Y-75042587D02*
X57464286Y-74994968D01*
X57464286Y-74994968D02*
X57416667Y-74899729D01*
X57416667Y-74899729D02*
X57416667Y-74518777D01*
X57416667Y-74518777D02*
X57464286Y-74423539D01*
X57464286Y-74423539D02*
X57559524Y-74375920D01*
X57559524Y-74375920D02*
X57750000Y-74375920D01*
X57750000Y-74375920D02*
X57845238Y-74423539D01*
X57845238Y-74423539D02*
X57892857Y-74518777D01*
X57892857Y-74518777D02*
X57892857Y-74614015D01*
X57892857Y-74614015D02*
X57416667Y-74709253D01*
X55654762Y-76652531D02*
X55654762Y-75652531D01*
X55654762Y-76033483D02*
X55750000Y-75985864D01*
X55750000Y-75985864D02*
X55940476Y-75985864D01*
X55940476Y-75985864D02*
X56035714Y-76033483D01*
X56035714Y-76033483D02*
X56083333Y-76081102D01*
X56083333Y-76081102D02*
X56130952Y-76176340D01*
X56130952Y-76176340D02*
X56130952Y-76462054D01*
X56130952Y-76462054D02*
X56083333Y-76557292D01*
X56083333Y-76557292D02*
X56035714Y-76604912D01*
X56035714Y-76604912D02*
X55940476Y-76652531D01*
X55940476Y-76652531D02*
X55750000Y-76652531D01*
X55750000Y-76652531D02*
X55654762Y-76604912D01*
X56464286Y-75985864D02*
X56702381Y-76652531D01*
X56940476Y-75985864D02*
X56702381Y-76652531D01*
X56702381Y-76652531D02*
X56607143Y-76890626D01*
X56607143Y-76890626D02*
X56559524Y-76938245D01*
X56559524Y-76938245D02*
X56464286Y-76985864D01*
X54083332Y-78167236D02*
X54035713Y-78214856D01*
X54035713Y-78214856D02*
X53892856Y-78262475D01*
X53892856Y-78262475D02*
X53797618Y-78262475D01*
X53797618Y-78262475D02*
X53654761Y-78214856D01*
X53654761Y-78214856D02*
X53559523Y-78119617D01*
X53559523Y-78119617D02*
X53511904Y-78024379D01*
X53511904Y-78024379D02*
X53464285Y-77833903D01*
X53464285Y-77833903D02*
X53464285Y-77691046D01*
X53464285Y-77691046D02*
X53511904Y-77500570D01*
X53511904Y-77500570D02*
X53559523Y-77405332D01*
X53559523Y-77405332D02*
X53654761Y-77310094D01*
X53654761Y-77310094D02*
X53797618Y-77262475D01*
X53797618Y-77262475D02*
X53892856Y-77262475D01*
X53892856Y-77262475D02*
X54035713Y-77310094D01*
X54035713Y-77310094D02*
X54083332Y-77357713D01*
X54369047Y-77595808D02*
X54749999Y-77595808D01*
X54511904Y-77262475D02*
X54511904Y-78119617D01*
X54511904Y-78119617D02*
X54559523Y-78214856D01*
X54559523Y-78214856D02*
X54654761Y-78262475D01*
X54654761Y-78262475D02*
X54749999Y-78262475D01*
X55083333Y-78262475D02*
X55083333Y-77595808D01*
X55083333Y-77786284D02*
X55130952Y-77691046D01*
X55130952Y-77691046D02*
X55178571Y-77643427D01*
X55178571Y-77643427D02*
X55273809Y-77595808D01*
X55273809Y-77595808D02*
X55369047Y-77595808D01*
X55845238Y-78262475D02*
X55750000Y-78214856D01*
X55750000Y-78214856D02*
X55702381Y-78119617D01*
X55702381Y-78119617D02*
X55702381Y-77262475D01*
X56559524Y-77738665D02*
X56226191Y-77738665D01*
X56226191Y-78262475D02*
X56226191Y-77262475D01*
X56226191Y-77262475D02*
X56702381Y-77262475D01*
X57083334Y-78262475D02*
X57083334Y-77595808D01*
X57083334Y-77786284D02*
X57130953Y-77691046D01*
X57130953Y-77691046D02*
X57178572Y-77643427D01*
X57178572Y-77643427D02*
X57273810Y-77595808D01*
X57273810Y-77595808D02*
X57369048Y-77595808D01*
X58083334Y-78214856D02*
X57988096Y-78262475D01*
X57988096Y-78262475D02*
X57797620Y-78262475D01*
X57797620Y-78262475D02*
X57702382Y-78214856D01*
X57702382Y-78214856D02*
X57654763Y-78119617D01*
X57654763Y-78119617D02*
X57654763Y-77738665D01*
X57654763Y-77738665D02*
X57702382Y-77643427D01*
X57702382Y-77643427D02*
X57797620Y-77595808D01*
X57797620Y-77595808D02*
X57988096Y-77595808D01*
X57988096Y-77595808D02*
X58083334Y-77643427D01*
X58083334Y-77643427D02*
X58130953Y-77738665D01*
X58130953Y-77738665D02*
X58130953Y-77833903D01*
X58130953Y-77833903D02*
X57654763Y-77929141D01*
X58988096Y-77595808D02*
X58988096Y-78595808D01*
X58988096Y-78214856D02*
X58892858Y-78262475D01*
X58892858Y-78262475D02*
X58702382Y-78262475D01*
X58702382Y-78262475D02*
X58607144Y-78214856D01*
X58607144Y-78214856D02*
X58559525Y-78167236D01*
X58559525Y-78167236D02*
X58511906Y-78071998D01*
X58511906Y-78071998D02*
X58511906Y-77786284D01*
X58511906Y-77786284D02*
X58559525Y-77691046D01*
X58559525Y-77691046D02*
X58607144Y-77643427D01*
X58607144Y-77643427D02*
X58702382Y-77595808D01*
X58702382Y-77595808D02*
X58892858Y-77595808D01*
X58892858Y-77595808D02*
X58988096Y-77643427D01*
X54440476Y-79205752D02*
X54678571Y-79872419D01*
X54678571Y-79872419D02*
X54916666Y-79205752D01*
X56250000Y-78872419D02*
X56345238Y-78872419D01*
X56345238Y-78872419D02*
X56440476Y-78920038D01*
X56440476Y-78920038D02*
X56488095Y-78967657D01*
X56488095Y-78967657D02*
X56535714Y-79062895D01*
X56535714Y-79062895D02*
X56583333Y-79253371D01*
X56583333Y-79253371D02*
X56583333Y-79491466D01*
X56583333Y-79491466D02*
X56535714Y-79681942D01*
X56535714Y-79681942D02*
X56488095Y-79777180D01*
X56488095Y-79777180D02*
X56440476Y-79824800D01*
X56440476Y-79824800D02*
X56345238Y-79872419D01*
X56345238Y-79872419D02*
X56250000Y-79872419D01*
X56250000Y-79872419D02*
X56154762Y-79824800D01*
X56154762Y-79824800D02*
X56107143Y-79777180D01*
X56107143Y-79777180D02*
X56059524Y-79681942D01*
X56059524Y-79681942D02*
X56011905Y-79491466D01*
X56011905Y-79491466D02*
X56011905Y-79253371D01*
X56011905Y-79253371D02*
X56059524Y-79062895D01*
X56059524Y-79062895D02*
X56107143Y-78967657D01*
X56107143Y-78967657D02*
X56154762Y-78920038D01*
X56154762Y-78920038D02*
X56250000Y-78872419D01*
X57011905Y-79777180D02*
X57059524Y-79824800D01*
X57059524Y-79824800D02*
X57011905Y-79872419D01*
X57011905Y-79872419D02*
X56964286Y-79824800D01*
X56964286Y-79824800D02*
X57011905Y-79777180D01*
X57011905Y-79777180D02*
X57011905Y-79872419D01*
X57678571Y-78872419D02*
X57773809Y-78872419D01*
X57773809Y-78872419D02*
X57869047Y-78920038D01*
X57869047Y-78920038D02*
X57916666Y-78967657D01*
X57916666Y-78967657D02*
X57964285Y-79062895D01*
X57964285Y-79062895D02*
X58011904Y-79253371D01*
X58011904Y-79253371D02*
X58011904Y-79491466D01*
X58011904Y-79491466D02*
X57964285Y-79681942D01*
X57964285Y-79681942D02*
X57916666Y-79777180D01*
X57916666Y-79777180D02*
X57869047Y-79824800D01*
X57869047Y-79824800D02*
X57773809Y-79872419D01*
X57773809Y-79872419D02*
X57678571Y-79872419D01*
X57678571Y-79872419D02*
X57583333Y-79824800D01*
X57583333Y-79824800D02*
X57535714Y-79777180D01*
X57535714Y-79777180D02*
X57488095Y-79681942D01*
X57488095Y-79681942D02*
X57440476Y-79491466D01*
X57440476Y-79491466D02*
X57440476Y-79253371D01*
X57440476Y-79253371D02*
X57488095Y-79062895D01*
X57488095Y-79062895D02*
X57535714Y-78967657D01*
X57535714Y-78967657D02*
X57583333Y-78920038D01*
X57583333Y-78920038D02*
X57678571Y-78872419D01*
D10*
X73809523Y-65704819D02*
X73238095Y-65704819D01*
X73523809Y-65704819D02*
X73523809Y-64704819D01*
X73523809Y-64704819D02*
X73428571Y-64847676D01*
X73428571Y-64847676D02*
X73333333Y-64942914D01*
X73333333Y-64942914D02*
X73238095Y-64990533D01*
X74428571Y-64704819D02*
X74523809Y-64704819D01*
X74523809Y-64704819D02*
X74619047Y-64752438D01*
X74619047Y-64752438D02*
X74666666Y-64800057D01*
X74666666Y-64800057D02*
X74714285Y-64895295D01*
X74714285Y-64895295D02*
X74761904Y-65085771D01*
X74761904Y-65085771D02*
X74761904Y-65323866D01*
X74761904Y-65323866D02*
X74714285Y-65514342D01*
X74714285Y-65514342D02*
X74666666Y-65609580D01*
X74666666Y-65609580D02*
X74619047Y-65657200D01*
X74619047Y-65657200D02*
X74523809Y-65704819D01*
X74523809Y-65704819D02*
X74428571Y-65704819D01*
X74428571Y-65704819D02*
X74333333Y-65657200D01*
X74333333Y-65657200D02*
X74285714Y-65609580D01*
X74285714Y-65609580D02*
X74238095Y-65514342D01*
X74238095Y-65514342D02*
X74190476Y-65323866D01*
X74190476Y-65323866D02*
X74190476Y-65085771D01*
X74190476Y-65085771D02*
X74238095Y-64895295D01*
X74238095Y-64895295D02*
X74285714Y-64800057D01*
X74285714Y-64800057D02*
X74333333Y-64752438D01*
X74333333Y-64752438D02*
X74428571Y-64704819D01*
X75190476Y-65704819D02*
X75190476Y-64704819D01*
X75761904Y-65704819D02*
X75333333Y-65133390D01*
X75761904Y-64704819D02*
X75190476Y-65276247D01*
D11*
X37233183Y-54599978D02*
X36997481Y-54364275D01*
X36627091Y-54734665D02*
X37334198Y-54027558D01*
X37334198Y-54027558D02*
X37670916Y-54364275D01*
X37569901Y-55677474D02*
X37233183Y-55340756D01*
X37233183Y-55340756D02*
X37940290Y-54633650D01*
X37973962Y-55677474D02*
X38310679Y-56014192D01*
X37704588Y-55812161D02*
X38647397Y-55340757D01*
X38647397Y-55340757D02*
X38175992Y-56283566D01*
X39017786Y-55711146D02*
X39421847Y-56115207D01*
X38512710Y-56620283D02*
X39219817Y-55913176D01*
D10*
X66884779Y-59940866D02*
X67646684Y-59940866D01*
X67265731Y-60321819D02*
X67265731Y-59559914D01*
D11*
X68780074Y-68872419D02*
X68303884Y-68872419D01*
X68303884Y-68872419D02*
X68303884Y-67872419D01*
X69113408Y-68872419D02*
X69113408Y-67872419D01*
X69113408Y-67872419D02*
X69351503Y-67872419D01*
X69351503Y-67872419D02*
X69494360Y-67920038D01*
X69494360Y-67920038D02*
X69589598Y-68015276D01*
X69589598Y-68015276D02*
X69637217Y-68110514D01*
X69637217Y-68110514D02*
X69684836Y-68300990D01*
X69684836Y-68300990D02*
X69684836Y-68443847D01*
X69684836Y-68443847D02*
X69637217Y-68634323D01*
X69637217Y-68634323D02*
X69589598Y-68729561D01*
X69589598Y-68729561D02*
X69494360Y-68824800D01*
X69494360Y-68824800D02*
X69351503Y-68872419D01*
X69351503Y-68872419D02*
X69113408Y-68872419D01*
X70684836Y-68872419D02*
X70351503Y-68396228D01*
X70113408Y-68872419D02*
X70113408Y-67872419D01*
X70113408Y-67872419D02*
X70494360Y-67872419D01*
X70494360Y-67872419D02*
X70589598Y-67920038D01*
X70589598Y-67920038D02*
X70637217Y-67967657D01*
X70637217Y-67967657D02*
X70684836Y-68062895D01*
X70684836Y-68062895D02*
X70684836Y-68205752D01*
X70684836Y-68205752D02*
X70637217Y-68300990D01*
X70637217Y-68300990D02*
X70589598Y-68348609D01*
X70589598Y-68348609D02*
X70494360Y-68396228D01*
X70494360Y-68396228D02*
X70113408Y-68396228D01*
X71065789Y-67967657D02*
X71113408Y-67920038D01*
X71113408Y-67920038D02*
X71208646Y-67872419D01*
X71208646Y-67872419D02*
X71446741Y-67872419D01*
X71446741Y-67872419D02*
X71541979Y-67920038D01*
X71541979Y-67920038D02*
X71589598Y-67967657D01*
X71589598Y-67967657D02*
X71637217Y-68062895D01*
X71637217Y-68062895D02*
X71637217Y-68158133D01*
X71637217Y-68158133D02*
X71589598Y-68300990D01*
X71589598Y-68300990D02*
X71018170Y-68872419D01*
X71018170Y-68872419D02*
X71637217Y-68872419D01*
X42530074Y-69122419D02*
X42053884Y-69122419D01*
X42053884Y-69122419D02*
X42053884Y-68122419D01*
X42863408Y-69122419D02*
X42863408Y-68122419D01*
X42863408Y-68122419D02*
X43101503Y-68122419D01*
X43101503Y-68122419D02*
X43244360Y-68170038D01*
X43244360Y-68170038D02*
X43339598Y-68265276D01*
X43339598Y-68265276D02*
X43387217Y-68360514D01*
X43387217Y-68360514D02*
X43434836Y-68550990D01*
X43434836Y-68550990D02*
X43434836Y-68693847D01*
X43434836Y-68693847D02*
X43387217Y-68884323D01*
X43387217Y-68884323D02*
X43339598Y-68979561D01*
X43339598Y-68979561D02*
X43244360Y-69074800D01*
X43244360Y-69074800D02*
X43101503Y-69122419D01*
X43101503Y-69122419D02*
X42863408Y-69122419D01*
X44434836Y-69122419D02*
X44101503Y-68646228D01*
X43863408Y-69122419D02*
X43863408Y-68122419D01*
X43863408Y-68122419D02*
X44244360Y-68122419D01*
X44244360Y-68122419D02*
X44339598Y-68170038D01*
X44339598Y-68170038D02*
X44387217Y-68217657D01*
X44387217Y-68217657D02*
X44434836Y-68312895D01*
X44434836Y-68312895D02*
X44434836Y-68455752D01*
X44434836Y-68455752D02*
X44387217Y-68550990D01*
X44387217Y-68550990D02*
X44339598Y-68598609D01*
X44339598Y-68598609D02*
X44244360Y-68646228D01*
X44244360Y-68646228D02*
X43863408Y-68646228D01*
X45387217Y-69122419D02*
X44815789Y-69122419D01*
X45101503Y-69122419D02*
X45101503Y-68122419D01*
X45101503Y-68122419D02*
X45006265Y-68265276D01*
X45006265Y-68265276D02*
X44911027Y-68360514D01*
X44911027Y-68360514D02*
X44815789Y-68408133D01*
D10*
X60714285Y-67454819D02*
X60142857Y-67454819D01*
X60428571Y-67454819D02*
X60428571Y-66454819D01*
X60428571Y-66454819D02*
X60333333Y-66597676D01*
X60333333Y-66597676D02*
X60238095Y-66692914D01*
X60238095Y-66692914D02*
X60142857Y-66740533D01*
X61142857Y-67454819D02*
X61142857Y-66454819D01*
X61142857Y-66454819D02*
X61476190Y-67169104D01*
X61476190Y-67169104D02*
X61809523Y-66454819D01*
X61809523Y-66454819D02*
X61809523Y-67454819D01*
X38654761Y-62954819D02*
X38083333Y-62954819D01*
X38369047Y-62954819D02*
X38369047Y-61954819D01*
X38369047Y-61954819D02*
X38273809Y-62097676D01*
X38273809Y-62097676D02*
X38178571Y-62192914D01*
X38178571Y-62192914D02*
X38083333Y-62240533D01*
X39273809Y-61954819D02*
X39369047Y-61954819D01*
X39369047Y-61954819D02*
X39464285Y-62002438D01*
X39464285Y-62002438D02*
X39511904Y-62050057D01*
X39511904Y-62050057D02*
X39559523Y-62145295D01*
X39559523Y-62145295D02*
X39607142Y-62335771D01*
X39607142Y-62335771D02*
X39607142Y-62573866D01*
X39607142Y-62573866D02*
X39559523Y-62764342D01*
X39559523Y-62764342D02*
X39511904Y-62859580D01*
X39511904Y-62859580D02*
X39464285Y-62907200D01*
X39464285Y-62907200D02*
X39369047Y-62954819D01*
X39369047Y-62954819D02*
X39273809Y-62954819D01*
X39273809Y-62954819D02*
X39178571Y-62907200D01*
X39178571Y-62907200D02*
X39130952Y-62859580D01*
X39130952Y-62859580D02*
X39083333Y-62764342D01*
X39083333Y-62764342D02*
X39035714Y-62573866D01*
X39035714Y-62573866D02*
X39035714Y-62335771D01*
X39035714Y-62335771D02*
X39083333Y-62145295D01*
X39083333Y-62145295D02*
X39130952Y-62050057D01*
X39130952Y-62050057D02*
X39178571Y-62002438D01*
X39178571Y-62002438D02*
X39273809Y-61954819D01*
X40035714Y-62954819D02*
X40035714Y-61954819D01*
X40130952Y-62573866D02*
X40416666Y-62954819D01*
X40416666Y-62288152D02*
X40035714Y-62669104D01*
D11*
X66537978Y-48364816D02*
X66302275Y-48600518D01*
X66672665Y-48970908D02*
X65965558Y-48263801D01*
X65965558Y-48263801D02*
X66302275Y-47927083D01*
X67615474Y-48028098D02*
X67278756Y-48364816D01*
X67278756Y-48364816D02*
X66571650Y-47657709D01*
X67615474Y-47624037D02*
X67952192Y-47287320D01*
X67750161Y-47893411D02*
X67278757Y-46950602D01*
X67278757Y-46950602D02*
X68221566Y-47422007D01*
X67649146Y-46580213D02*
X68053207Y-46176152D01*
X68558283Y-47085289D02*
X67851176Y-46378182D01*
D10*
X41940476Y-85181009D02*
X42083333Y-85228628D01*
X42083333Y-85228628D02*
X42130952Y-85276247D01*
X42130952Y-85276247D02*
X42178571Y-85371485D01*
X42178571Y-85371485D02*
X42178571Y-85514342D01*
X42178571Y-85514342D02*
X42130952Y-85609580D01*
X42130952Y-85609580D02*
X42083333Y-85657200D01*
X42083333Y-85657200D02*
X41988095Y-85704819D01*
X41988095Y-85704819D02*
X41607143Y-85704819D01*
X41607143Y-85704819D02*
X41607143Y-84704819D01*
X41607143Y-84704819D02*
X41940476Y-84704819D01*
X41940476Y-84704819D02*
X42035714Y-84752438D01*
X42035714Y-84752438D02*
X42083333Y-84800057D01*
X42083333Y-84800057D02*
X42130952Y-84895295D01*
X42130952Y-84895295D02*
X42130952Y-84990533D01*
X42130952Y-84990533D02*
X42083333Y-85085771D01*
X42083333Y-85085771D02*
X42035714Y-85133390D01*
X42035714Y-85133390D02*
X41940476Y-85181009D01*
X41940476Y-85181009D02*
X41607143Y-85181009D01*
X42464286Y-84704819D02*
X43035714Y-84704819D01*
X42750000Y-85704819D02*
X42750000Y-84704819D01*
X43369048Y-85704819D02*
X43369048Y-84704819D01*
X43369048Y-84704819D02*
X43940476Y-85704819D01*
X43940476Y-85704819D02*
X43940476Y-84704819D01*
X44940476Y-85704819D02*
X44369048Y-85704819D01*
X44654762Y-85704819D02*
X44654762Y-84704819D01*
X44654762Y-84704819D02*
X44559524Y-84847676D01*
X44559524Y-84847676D02*
X44464286Y-84942914D01*
X44464286Y-84942914D02*
X44369048Y-84990533D01*
X48608535Y-50742059D02*
X48103459Y-51247135D01*
X48103459Y-51247135D02*
X47968772Y-51314479D01*
X47968772Y-51314479D02*
X47834085Y-51314479D01*
X47834085Y-51314479D02*
X47699398Y-51247135D01*
X47699398Y-51247135D02*
X47632054Y-51179792D01*
X48608535Y-52156273D02*
X48204474Y-51752212D01*
X48406505Y-51954242D02*
X49113612Y-51247135D01*
X49113612Y-51247135D02*
X48945253Y-51280807D01*
X48945253Y-51280807D02*
X48810566Y-51280807D01*
X48810566Y-51280807D02*
X48709551Y-51247135D01*
X59906045Y-63609904D02*
X59400969Y-64114980D01*
X59400969Y-64114980D02*
X59266282Y-64182324D01*
X59266282Y-64182324D02*
X59131595Y-64182324D01*
X59131595Y-64182324D02*
X58996908Y-64114980D01*
X58996908Y-64114980D02*
X58929564Y-64047637D01*
X60175419Y-63879278D02*
X60613152Y-64317011D01*
X60613152Y-64317011D02*
X60108076Y-64350683D01*
X60108076Y-64350683D02*
X60209091Y-64451698D01*
X60209091Y-64451698D02*
X60242763Y-64552713D01*
X60242763Y-64552713D02*
X60242763Y-64620057D01*
X60242763Y-64620057D02*
X60209091Y-64721072D01*
X60209091Y-64721072D02*
X60040732Y-64889431D01*
X60040732Y-64889431D02*
X59939717Y-64923102D01*
X59939717Y-64923102D02*
X59872374Y-64923102D01*
X59872374Y-64923102D02*
X59771358Y-64889431D01*
X59771358Y-64889431D02*
X59569328Y-64687400D01*
X59569328Y-64687400D02*
X59535656Y-64586385D01*
X59535656Y-64586385D02*
X59535656Y-64519041D01*
X55358095Y-89454819D02*
X55358095Y-90264342D01*
X55358095Y-90264342D02*
X55405714Y-90359580D01*
X55405714Y-90359580D02*
X55453333Y-90407200D01*
X55453333Y-90407200D02*
X55548571Y-90454819D01*
X55548571Y-90454819D02*
X55739047Y-90454819D01*
X55739047Y-90454819D02*
X55834285Y-90407200D01*
X55834285Y-90407200D02*
X55881904Y-90359580D01*
X55881904Y-90359580D02*
X55929523Y-90264342D01*
X55929523Y-90264342D02*
X55929523Y-89454819D01*
X56358095Y-90407200D02*
X56500952Y-90454819D01*
X56500952Y-90454819D02*
X56739047Y-90454819D01*
X56739047Y-90454819D02*
X56834285Y-90407200D01*
X56834285Y-90407200D02*
X56881904Y-90359580D01*
X56881904Y-90359580D02*
X56929523Y-90264342D01*
X56929523Y-90264342D02*
X56929523Y-90169104D01*
X56929523Y-90169104D02*
X56881904Y-90073866D01*
X56881904Y-90073866D02*
X56834285Y-90026247D01*
X56834285Y-90026247D02*
X56739047Y-89978628D01*
X56739047Y-89978628D02*
X56548571Y-89931009D01*
X56548571Y-89931009D02*
X56453333Y-89883390D01*
X56453333Y-89883390D02*
X56405714Y-89835771D01*
X56405714Y-89835771D02*
X56358095Y-89740533D01*
X56358095Y-89740533D02*
X56358095Y-89645295D01*
X56358095Y-89645295D02*
X56405714Y-89550057D01*
X56405714Y-89550057D02*
X56453333Y-89502438D01*
X56453333Y-89502438D02*
X56548571Y-89454819D01*
X56548571Y-89454819D02*
X56786666Y-89454819D01*
X56786666Y-89454819D02*
X56929523Y-89502438D01*
X57691428Y-89931009D02*
X57834285Y-89978628D01*
X57834285Y-89978628D02*
X57881904Y-90026247D01*
X57881904Y-90026247D02*
X57929523Y-90121485D01*
X57929523Y-90121485D02*
X57929523Y-90264342D01*
X57929523Y-90264342D02*
X57881904Y-90359580D01*
X57881904Y-90359580D02*
X57834285Y-90407200D01*
X57834285Y-90407200D02*
X57739047Y-90454819D01*
X57739047Y-90454819D02*
X57358095Y-90454819D01*
X57358095Y-90454819D02*
X57358095Y-89454819D01*
X57358095Y-89454819D02*
X57691428Y-89454819D01*
X57691428Y-89454819D02*
X57786666Y-89502438D01*
X57786666Y-89502438D02*
X57834285Y-89550057D01*
X57834285Y-89550057D02*
X57881904Y-89645295D01*
X57881904Y-89645295D02*
X57881904Y-89740533D01*
X57881904Y-89740533D02*
X57834285Y-89835771D01*
X57834285Y-89835771D02*
X57786666Y-89883390D01*
X57786666Y-89883390D02*
X57691428Y-89931009D01*
X57691428Y-89931009D02*
X57358095Y-89931009D01*
X68440476Y-84931009D02*
X68583333Y-84978628D01*
X68583333Y-84978628D02*
X68630952Y-85026247D01*
X68630952Y-85026247D02*
X68678571Y-85121485D01*
X68678571Y-85121485D02*
X68678571Y-85264342D01*
X68678571Y-85264342D02*
X68630952Y-85359580D01*
X68630952Y-85359580D02*
X68583333Y-85407200D01*
X68583333Y-85407200D02*
X68488095Y-85454819D01*
X68488095Y-85454819D02*
X68107143Y-85454819D01*
X68107143Y-85454819D02*
X68107143Y-84454819D01*
X68107143Y-84454819D02*
X68440476Y-84454819D01*
X68440476Y-84454819D02*
X68535714Y-84502438D01*
X68535714Y-84502438D02*
X68583333Y-84550057D01*
X68583333Y-84550057D02*
X68630952Y-84645295D01*
X68630952Y-84645295D02*
X68630952Y-84740533D01*
X68630952Y-84740533D02*
X68583333Y-84835771D01*
X68583333Y-84835771D02*
X68535714Y-84883390D01*
X68535714Y-84883390D02*
X68440476Y-84931009D01*
X68440476Y-84931009D02*
X68107143Y-84931009D01*
X68964286Y-84454819D02*
X69535714Y-84454819D01*
X69250000Y-85454819D02*
X69250000Y-84454819D01*
X69869048Y-85454819D02*
X69869048Y-84454819D01*
X69869048Y-84454819D02*
X70440476Y-85454819D01*
X70440476Y-85454819D02*
X70440476Y-84454819D01*
X70869048Y-84550057D02*
X70916667Y-84502438D01*
X70916667Y-84502438D02*
X71011905Y-84454819D01*
X71011905Y-84454819D02*
X71250000Y-84454819D01*
X71250000Y-84454819D02*
X71345238Y-84502438D01*
X71345238Y-84502438D02*
X71392857Y-84550057D01*
X71392857Y-84550057D02*
X71440476Y-84645295D01*
X71440476Y-84645295D02*
X71440476Y-84740533D01*
X71440476Y-84740533D02*
X71392857Y-84883390D01*
X71392857Y-84883390D02*
X70821429Y-85454819D01*
X70821429Y-85454819D02*
X71440476Y-85454819D01*
X36021773Y-52580411D02*
X35314667Y-51873304D01*
X35314667Y-51873304D02*
X36425834Y-52176350D01*
X36425834Y-52176350D02*
X35718728Y-51469243D01*
X36998254Y-51536587D02*
X36964582Y-51637602D01*
X36964582Y-51637602D02*
X36829895Y-51772289D01*
X36829895Y-51772289D02*
X36728880Y-51805961D01*
X36728880Y-51805961D02*
X36627865Y-51772289D01*
X36627865Y-51772289D02*
X36358491Y-51502915D01*
X36358491Y-51502915D02*
X36324819Y-51401900D01*
X36324819Y-51401900D02*
X36358491Y-51300884D01*
X36358491Y-51300884D02*
X36493178Y-51166197D01*
X36493178Y-51166197D02*
X36594193Y-51132526D01*
X36594193Y-51132526D02*
X36695208Y-51166197D01*
X36695208Y-51166197D02*
X36762552Y-51233541D01*
X36762552Y-51233541D02*
X36493178Y-51637602D01*
X37469659Y-51132525D02*
X37368644Y-51166197D01*
X37368644Y-51166197D02*
X37301300Y-51166197D01*
X37301300Y-51166197D02*
X37200285Y-51132525D01*
X37200285Y-51132525D02*
X36998254Y-50930495D01*
X36998254Y-50930495D02*
X36964583Y-50829480D01*
X36964583Y-50829480D02*
X36964583Y-50762136D01*
X36964583Y-50762136D02*
X36998254Y-50661121D01*
X36998254Y-50661121D02*
X37099270Y-50560106D01*
X37099270Y-50560106D02*
X37200285Y-50526434D01*
X37200285Y-50526434D02*
X37267628Y-50526434D01*
X37267628Y-50526434D02*
X37368644Y-50560106D01*
X37368644Y-50560106D02*
X37570674Y-50762136D01*
X37570674Y-50762136D02*
X37604346Y-50863151D01*
X37604346Y-50863151D02*
X37604346Y-50930495D01*
X37604346Y-50930495D02*
X37570674Y-51031510D01*
X37570674Y-51031510D02*
X37469659Y-51132525D01*
X38008407Y-50593777D02*
X37301300Y-49886671D01*
X37301300Y-49886671D02*
X37570674Y-49617297D01*
X37570674Y-49617297D02*
X37671689Y-49583625D01*
X37671689Y-49583625D02*
X37739033Y-49583625D01*
X37739033Y-49583625D02*
X37840048Y-49617297D01*
X37840048Y-49617297D02*
X37941063Y-49718312D01*
X37941063Y-49718312D02*
X37974735Y-49819327D01*
X37974735Y-49819327D02*
X37974735Y-49886671D01*
X37974735Y-49886671D02*
X37941063Y-49987686D01*
X37941063Y-49987686D02*
X37671689Y-50257060D01*
X38715514Y-49886671D02*
X38244109Y-49415266D01*
X38008407Y-49179564D02*
X38008407Y-49246907D01*
X38008407Y-49246907D02*
X38075750Y-49246907D01*
X38075750Y-49246907D02*
X38075750Y-49179564D01*
X38075750Y-49179564D02*
X38008407Y-49179564D01*
X38008407Y-49179564D02*
X38075750Y-49246907D01*
X38984887Y-49617297D02*
X38883872Y-48775503D01*
X38513483Y-49145892D02*
X39355277Y-49246908D01*
X39860353Y-48674488D02*
X39826681Y-48775503D01*
X39826681Y-48775503D02*
X39691994Y-48910190D01*
X39691994Y-48910190D02*
X39590979Y-48943862D01*
X39590979Y-48943862D02*
X39489964Y-48910190D01*
X39489964Y-48910190D02*
X39220590Y-48640816D01*
X39220590Y-48640816D02*
X39186918Y-48539801D01*
X39186918Y-48539801D02*
X39220590Y-48438785D01*
X39220590Y-48438785D02*
X39355277Y-48304098D01*
X39355277Y-48304098D02*
X39456292Y-48270427D01*
X39456292Y-48270427D02*
X39557307Y-48304098D01*
X39557307Y-48304098D02*
X39624651Y-48371442D01*
X39624651Y-48371442D02*
X39355277Y-48775503D01*
X40331758Y-48270427D02*
X40230742Y-48304098D01*
X40230742Y-48304098D02*
X40129727Y-48270427D01*
X40129727Y-48270427D02*
X39523636Y-47664335D01*
X40500117Y-48236755D02*
X41038865Y-47698007D01*
X40331758Y-46856213D02*
X40735819Y-46452152D01*
X41240895Y-47361289D02*
X40533789Y-46654182D01*
X41678628Y-46923556D02*
X40971522Y-46216449D01*
X41308239Y-46553167D02*
X41712300Y-46149106D01*
X42082689Y-46519495D02*
X41375583Y-45812388D01*
X41611285Y-45576686D02*
X42015346Y-45172625D01*
X42520422Y-46081762D02*
X41813315Y-45374655D01*
X69810110Y-44881515D02*
X70315186Y-45386591D01*
X70315186Y-45386591D02*
X70382530Y-45521278D01*
X70382530Y-45521278D02*
X70382530Y-45655965D01*
X70382530Y-45655965D02*
X70315186Y-45790652D01*
X70315186Y-45790652D02*
X70247843Y-45857996D01*
X70685576Y-44477454D02*
X71156980Y-44948858D01*
X70247843Y-44376438D02*
X70584560Y-45049873D01*
X70584560Y-45049873D02*
X71022293Y-44612141D01*
X73356467Y-73531028D02*
X73356467Y-73980972D01*
X73356467Y-73756000D02*
X72569065Y-73756000D01*
X72569065Y-73756000D02*
X72681551Y-73830991D01*
X72681551Y-73830991D02*
X72756542Y-73905982D01*
X72756542Y-73905982D02*
X72794037Y-73980972D01*
X73056504Y-73193570D02*
X73056504Y-72593645D01*
X73356467Y-71806242D02*
X73356467Y-72256186D01*
X73356467Y-72031214D02*
X72569065Y-72031214D01*
X72569065Y-72031214D02*
X72681551Y-72106205D01*
X72681551Y-72106205D02*
X72756542Y-72181196D01*
X72756542Y-72181196D02*
X72794037Y-72256186D01*
X72569065Y-71318803D02*
X72569065Y-71243812D01*
X72569065Y-71243812D02*
X72606560Y-71168821D01*
X72606560Y-71168821D02*
X72644056Y-71131326D01*
X72644056Y-71131326D02*
X72719046Y-71093831D01*
X72719046Y-71093831D02*
X72869028Y-71056335D01*
X72869028Y-71056335D02*
X73056504Y-71056335D01*
X73056504Y-71056335D02*
X73206486Y-71093831D01*
X73206486Y-71093831D02*
X73281476Y-71131326D01*
X73281476Y-71131326D02*
X73318972Y-71168821D01*
X73318972Y-71168821D02*
X73356467Y-71243812D01*
X73356467Y-71243812D02*
X73356467Y-71318803D01*
X73356467Y-71318803D02*
X73318972Y-71393793D01*
X73318972Y-71393793D02*
X73281476Y-71431289D01*
X73281476Y-71431289D02*
X73206486Y-71468784D01*
X73206486Y-71468784D02*
X73056504Y-71506279D01*
X73056504Y-71506279D02*
X72869028Y-71506279D01*
X72869028Y-71506279D02*
X72719046Y-71468784D01*
X72719046Y-71468784D02*
X72644056Y-71431289D01*
X72644056Y-71431289D02*
X72606560Y-71393793D01*
X72606560Y-71393793D02*
X72569065Y-71318803D01*
X72569065Y-70568896D02*
X72569065Y-70493905D01*
X72569065Y-70493905D02*
X72606560Y-70418914D01*
X72606560Y-70418914D02*
X72644056Y-70381419D01*
X72644056Y-70381419D02*
X72719046Y-70343924D01*
X72719046Y-70343924D02*
X72869028Y-70306428D01*
X72869028Y-70306428D02*
X73056504Y-70306428D01*
X73056504Y-70306428D02*
X73206486Y-70343924D01*
X73206486Y-70343924D02*
X73281476Y-70381419D01*
X73281476Y-70381419D02*
X73318972Y-70418914D01*
X73318972Y-70418914D02*
X73356467Y-70493905D01*
X73356467Y-70493905D02*
X73356467Y-70568896D01*
X73356467Y-70568896D02*
X73318972Y-70643886D01*
X73318972Y-70643886D02*
X73281476Y-70681382D01*
X73281476Y-70681382D02*
X73206486Y-70718877D01*
X73206486Y-70718877D02*
X73056504Y-70756372D01*
X73056504Y-70756372D02*
X72869028Y-70756372D01*
X72869028Y-70756372D02*
X72719046Y-70718877D01*
X72719046Y-70718877D02*
X72644056Y-70681382D01*
X72644056Y-70681382D02*
X72606560Y-70643886D01*
X72606560Y-70643886D02*
X72569065Y-70568896D01*
X73356467Y-69968970D02*
X72569065Y-69968970D01*
X73356467Y-69519026D02*
X72906523Y-69856484D01*
X72569065Y-69519026D02*
X73019009Y-69968970D01*
X70642943Y-46230747D02*
X71350050Y-45523641D01*
X71350050Y-45523641D02*
X71047004Y-46634808D01*
X71047004Y-46634808D02*
X71754111Y-45927702D01*
X71686767Y-47207228D02*
X71585752Y-47173556D01*
X71585752Y-47173556D02*
X71451065Y-47038869D01*
X71451065Y-47038869D02*
X71417393Y-46937854D01*
X71417393Y-46937854D02*
X71451065Y-46836839D01*
X71451065Y-46836839D02*
X71720439Y-46567465D01*
X71720439Y-46567465D02*
X71821454Y-46533793D01*
X71821454Y-46533793D02*
X71922470Y-46567465D01*
X71922470Y-46567465D02*
X72057157Y-46702152D01*
X72057157Y-46702152D02*
X72090828Y-46803167D01*
X72090828Y-46803167D02*
X72057157Y-46904182D01*
X72057157Y-46904182D02*
X71989813Y-46971526D01*
X71989813Y-46971526D02*
X71585752Y-46702152D01*
X72090829Y-47678633D02*
X72057157Y-47577618D01*
X72057157Y-47577618D02*
X72057157Y-47510274D01*
X72057157Y-47510274D02*
X72090829Y-47409259D01*
X72090829Y-47409259D02*
X72292859Y-47207228D01*
X72292859Y-47207228D02*
X72393874Y-47173557D01*
X72393874Y-47173557D02*
X72461218Y-47173557D01*
X72461218Y-47173557D02*
X72562233Y-47207228D01*
X72562233Y-47207228D02*
X72663248Y-47308244D01*
X72663248Y-47308244D02*
X72696920Y-47409259D01*
X72696920Y-47409259D02*
X72696920Y-47476602D01*
X72696920Y-47476602D02*
X72663248Y-47577618D01*
X72663248Y-47577618D02*
X72461218Y-47779648D01*
X72461218Y-47779648D02*
X72360203Y-47813320D01*
X72360203Y-47813320D02*
X72292859Y-47813320D01*
X72292859Y-47813320D02*
X72191844Y-47779648D01*
X72191844Y-47779648D02*
X72090829Y-47678633D01*
X72629577Y-48217381D02*
X73336683Y-47510274D01*
X73336683Y-47510274D02*
X73606057Y-47779648D01*
X73606057Y-47779648D02*
X73639729Y-47880663D01*
X73639729Y-47880663D02*
X73639729Y-47948007D01*
X73639729Y-47948007D02*
X73606057Y-48049022D01*
X73606057Y-48049022D02*
X73505042Y-48150037D01*
X73505042Y-48150037D02*
X73404027Y-48183709D01*
X73404027Y-48183709D02*
X73336683Y-48183709D01*
X73336683Y-48183709D02*
X73235668Y-48150037D01*
X73235668Y-48150037D02*
X72966294Y-47880663D01*
X73336683Y-48924488D02*
X73808088Y-48453083D01*
X74043790Y-48217381D02*
X73976447Y-48217381D01*
X73976447Y-48217381D02*
X73976447Y-48284724D01*
X73976447Y-48284724D02*
X74043790Y-48284724D01*
X74043790Y-48284724D02*
X74043790Y-48217381D01*
X74043790Y-48217381D02*
X73976447Y-48284724D01*
X73606057Y-49193861D02*
X74447851Y-49092846D01*
X74077462Y-48722457D02*
X73976446Y-49564251D01*
X74548866Y-50069327D02*
X74447851Y-50035655D01*
X74447851Y-50035655D02*
X74313164Y-49900968D01*
X74313164Y-49900968D02*
X74279492Y-49799953D01*
X74279492Y-49799953D02*
X74313164Y-49698938D01*
X74313164Y-49698938D02*
X74582538Y-49429564D01*
X74582538Y-49429564D02*
X74683553Y-49395892D01*
X74683553Y-49395892D02*
X74784569Y-49429564D01*
X74784569Y-49429564D02*
X74919256Y-49564251D01*
X74919256Y-49564251D02*
X74952927Y-49665266D01*
X74952927Y-49665266D02*
X74919256Y-49766281D01*
X74919256Y-49766281D02*
X74851912Y-49833625D01*
X74851912Y-49833625D02*
X74447851Y-49564251D01*
X74952927Y-50540732D02*
X74919256Y-50439716D01*
X74919256Y-50439716D02*
X74952927Y-50338701D01*
X74952927Y-50338701D02*
X75559019Y-49732610D01*
X74986599Y-50709091D02*
X75525347Y-51247839D01*
X76367141Y-50540732D02*
X76771202Y-50944793D01*
X75862065Y-51449869D02*
X76569172Y-50742763D01*
X76299798Y-51887602D02*
X77006905Y-51180496D01*
X76670187Y-51517213D02*
X77074248Y-51921274D01*
X76703859Y-52291663D02*
X77410966Y-51584557D01*
X77646668Y-51820259D02*
X78050729Y-52224320D01*
X77141592Y-52729396D02*
X77848699Y-52022289D01*
X53999429Y-65028819D02*
X53999429Y-64028819D01*
X53999429Y-64028819D02*
X54380381Y-64028819D01*
X54380381Y-64028819D02*
X54475619Y-64076438D01*
X54475619Y-64076438D02*
X54523238Y-64124057D01*
X54523238Y-64124057D02*
X54570857Y-64219295D01*
X54570857Y-64219295D02*
X54570857Y-64362152D01*
X54570857Y-64362152D02*
X54523238Y-64457390D01*
X54523238Y-64457390D02*
X54475619Y-64505009D01*
X54475619Y-64505009D02*
X54380381Y-64552628D01*
X54380381Y-64552628D02*
X53999429Y-64552628D01*
X54999429Y-65028819D02*
X54999429Y-64028819D01*
X55475619Y-64505009D02*
X55808952Y-64505009D01*
X55951809Y-65028819D02*
X55475619Y-65028819D01*
X55475619Y-65028819D02*
X55475619Y-64028819D01*
X55475619Y-64028819D02*
X55951809Y-64028819D01*
X56285143Y-64028819D02*
X56951809Y-64028819D01*
X56951809Y-64028819D02*
X56285143Y-65028819D01*
X56285143Y-65028819D02*
X56951809Y-65028819D01*
X57523238Y-64028819D02*
X57713714Y-64028819D01*
X57713714Y-64028819D02*
X57808952Y-64076438D01*
X57808952Y-64076438D02*
X57904190Y-64171676D01*
X57904190Y-64171676D02*
X57951809Y-64362152D01*
X57951809Y-64362152D02*
X57951809Y-64695485D01*
X57951809Y-64695485D02*
X57904190Y-64885961D01*
X57904190Y-64885961D02*
X57808952Y-64981200D01*
X57808952Y-64981200D02*
X57713714Y-65028819D01*
X57713714Y-65028819D02*
X57523238Y-65028819D01*
X57523238Y-65028819D02*
X57428000Y-64981200D01*
X57428000Y-64981200D02*
X57332762Y-64885961D01*
X57332762Y-64885961D02*
X57285143Y-64695485D01*
X57285143Y-64695485D02*
X57285143Y-64362152D01*
X57285143Y-64362152D02*
X57332762Y-64171676D01*
X57332762Y-64171676D02*
X57428000Y-64076438D01*
X57428000Y-64076438D02*
X57523238Y-64028819D01*
X58904190Y-65028819D02*
X58332762Y-65028819D01*
X58618476Y-65028819D02*
X58618476Y-64028819D01*
X58618476Y-64028819D02*
X58523238Y-64171676D01*
X58523238Y-64171676D02*
X58428000Y-64266914D01*
X58428000Y-64266914D02*
X58332762Y-64314533D01*
X40356467Y-73531028D02*
X40356467Y-73980972D01*
X40356467Y-73756000D02*
X39569065Y-73756000D01*
X39569065Y-73756000D02*
X39681551Y-73830991D01*
X39681551Y-73830991D02*
X39756542Y-73905982D01*
X39756542Y-73905982D02*
X39794037Y-73980972D01*
X40056504Y-73193570D02*
X40056504Y-72593645D01*
X40356467Y-71806242D02*
X40356467Y-72256186D01*
X40356467Y-72031214D02*
X39569065Y-72031214D01*
X39569065Y-72031214D02*
X39681551Y-72106205D01*
X39681551Y-72106205D02*
X39756542Y-72181196D01*
X39756542Y-72181196D02*
X39794037Y-72256186D01*
X39569065Y-71318803D02*
X39569065Y-71243812D01*
X39569065Y-71243812D02*
X39606560Y-71168821D01*
X39606560Y-71168821D02*
X39644056Y-71131326D01*
X39644056Y-71131326D02*
X39719046Y-71093831D01*
X39719046Y-71093831D02*
X39869028Y-71056335D01*
X39869028Y-71056335D02*
X40056504Y-71056335D01*
X40056504Y-71056335D02*
X40206486Y-71093831D01*
X40206486Y-71093831D02*
X40281476Y-71131326D01*
X40281476Y-71131326D02*
X40318972Y-71168821D01*
X40318972Y-71168821D02*
X40356467Y-71243812D01*
X40356467Y-71243812D02*
X40356467Y-71318803D01*
X40356467Y-71318803D02*
X40318972Y-71393793D01*
X40318972Y-71393793D02*
X40281476Y-71431289D01*
X40281476Y-71431289D02*
X40206486Y-71468784D01*
X40206486Y-71468784D02*
X40056504Y-71506279D01*
X40056504Y-71506279D02*
X39869028Y-71506279D01*
X39869028Y-71506279D02*
X39719046Y-71468784D01*
X39719046Y-71468784D02*
X39644056Y-71431289D01*
X39644056Y-71431289D02*
X39606560Y-71393793D01*
X39606560Y-71393793D02*
X39569065Y-71318803D01*
X39569065Y-70568896D02*
X39569065Y-70493905D01*
X39569065Y-70493905D02*
X39606560Y-70418914D01*
X39606560Y-70418914D02*
X39644056Y-70381419D01*
X39644056Y-70381419D02*
X39719046Y-70343924D01*
X39719046Y-70343924D02*
X39869028Y-70306428D01*
X39869028Y-70306428D02*
X40056504Y-70306428D01*
X40056504Y-70306428D02*
X40206486Y-70343924D01*
X40206486Y-70343924D02*
X40281476Y-70381419D01*
X40281476Y-70381419D02*
X40318972Y-70418914D01*
X40318972Y-70418914D02*
X40356467Y-70493905D01*
X40356467Y-70493905D02*
X40356467Y-70568896D01*
X40356467Y-70568896D02*
X40318972Y-70643886D01*
X40318972Y-70643886D02*
X40281476Y-70681382D01*
X40281476Y-70681382D02*
X40206486Y-70718877D01*
X40206486Y-70718877D02*
X40056504Y-70756372D01*
X40056504Y-70756372D02*
X39869028Y-70756372D01*
X39869028Y-70756372D02*
X39719046Y-70718877D01*
X39719046Y-70718877D02*
X39644056Y-70681382D01*
X39644056Y-70681382D02*
X39606560Y-70643886D01*
X39606560Y-70643886D02*
X39569065Y-70568896D01*
X40356467Y-69968970D02*
X39569065Y-69968970D01*
X40356467Y-69519026D02*
X39906523Y-69856484D01*
X39569065Y-69519026D02*
X40019009Y-69968970D01*
D12*
%TO.C,BTN1*%
X46250000Y-82500000D02*
X46250000Y-78000000D01*
X43750000Y-76750000D02*
X42250000Y-76750000D01*
X42250000Y-83750000D02*
X43750000Y-83750000D01*
X39750000Y-78000000D02*
X39750000Y-82500000D01*
%TO.C,J1*%
X41027045Y-56914051D02*
X42907949Y-58794955D01*
X44661573Y-53279523D02*
X41027045Y-56914051D01*
X44661573Y-53279523D02*
X46542477Y-55160427D01*
X46542477Y-55160427D02*
X42907949Y-58794955D01*
X47440503Y-52381497D02*
X48380955Y-53321949D01*
X48380955Y-53321949D02*
X47440503Y-54262401D01*
%TO.C,J3*%
X54120606Y-67985845D02*
X56001510Y-69866749D01*
X55959083Y-66147368D02*
X54120606Y-67985845D01*
X55959083Y-66147368D02*
X57839987Y-68028272D01*
X57839987Y-68028272D02*
X56001510Y-69866749D01*
X58738013Y-65249342D02*
X59678465Y-66189794D01*
X59678465Y-66189794D02*
X58738013Y-67130246D01*
%TO.C,A1*%
X47600000Y-50500000D02*
X47600000Y-53170000D01*
X47600000Y-55710000D02*
X47600000Y-93940000D01*
X47600000Y-93940000D02*
X52680000Y-93940000D01*
X50270000Y-53170000D02*
X47600000Y-53170000D01*
X50270000Y-55710000D02*
X47600000Y-55710000D01*
X50270000Y-55710000D02*
X50270000Y-53170000D01*
X50270000Y-55710000D02*
X50270000Y-91270000D01*
X50270000Y-91270000D02*
X47600000Y-91270000D01*
X52680000Y-86060000D02*
X60560000Y-86060000D01*
X52680000Y-96480000D02*
X52680000Y-86060000D01*
X60560000Y-86060000D02*
X60560000Y-96480000D01*
X60560000Y-96480000D02*
X52680000Y-96480000D01*
X62970000Y-53170000D02*
X62970000Y-91270000D01*
X62970000Y-53170000D02*
X65640000Y-53170000D01*
X62970000Y-91270000D02*
X65640000Y-91270000D01*
X65640000Y-50500000D02*
X47600000Y-50500000D01*
X65640000Y-93940000D02*
X60560000Y-93940000D01*
X65640000Y-93940000D02*
X65640000Y-50500000D01*
%TO.C,BTN2*%
X66500000Y-78000000D02*
X66500000Y-82500000D01*
X69000000Y-83750000D02*
X70500000Y-83750000D01*
X70500000Y-76750000D02*
X69000000Y-76750000D01*
X73000000Y-82500000D02*
X73000000Y-78000000D01*
%TO.C,R4*%
X37880000Y-60670000D02*
X37880000Y-67210000D01*
X37880000Y-67210000D02*
X38210000Y-67210000D01*
X38210000Y-60670000D02*
X37880000Y-60670000D01*
X40290000Y-60670000D02*
X40620000Y-60670000D01*
X40620000Y-60670000D02*
X40620000Y-67210000D01*
X40620000Y-67210000D02*
X40290000Y-67210000D01*
%TO.C,D1*%
X38846266Y-52218774D02*
X39175071Y-52547579D01*
X40702421Y-54074929D02*
X41031226Y-54403734D01*
X38846386Y-52218894D02*
G75*
G02*
X42955962Y-48765518I2902553J717833D01*
G01*
X39390962Y-52331688D02*
G75*
G02*
X42579118Y-49142926I2357977J830627D01*
G01*
X44107075Y-50670882D02*
G75*
G02*
X40918312Y-53859039I-2358136J-830179D01*
G01*
X44484482Y-50294038D02*
G75*
G02*
X41031106Y-54403614I-2735543J-1207023D01*
G01*
%TO.C,R3*%
X59130000Y-64920000D02*
X59130000Y-71460000D01*
X59130000Y-71460000D02*
X59460000Y-71460000D01*
X59460000Y-64920000D02*
X59130000Y-64920000D01*
X61540000Y-64920000D02*
X61870000Y-64920000D01*
X61870000Y-64920000D02*
X61870000Y-71460000D01*
X61870000Y-71460000D02*
X61540000Y-71460000D01*
%TO.C,R1*%
X73130000Y-60170000D02*
X73130000Y-66710000D01*
X73130000Y-66710000D02*
X73460000Y-66710000D01*
X73460000Y-60170000D02*
X73130000Y-60170000D01*
X75540000Y-60170000D02*
X75870000Y-60170000D01*
X75870000Y-60170000D02*
X75870000Y-66710000D01*
X75870000Y-66710000D02*
X75540000Y-66710000D01*
%TO.C,R3*%
X65940000Y-60484000D02*
X65940000Y-67024000D01*
X65940000Y-67024000D02*
X66270000Y-67024000D01*
X66270000Y-60484000D02*
X65940000Y-60484000D01*
X68350000Y-60484000D02*
X68680000Y-60484000D01*
X68680000Y-60484000D02*
X68680000Y-67024000D01*
X68680000Y-67024000D02*
X68350000Y-67024000D01*
%TO.C,J4*%
X71449548Y-46049548D02*
X72390000Y-45109096D01*
X72347574Y-48828478D02*
X74228478Y-46947574D01*
X72347574Y-48828478D02*
X75982102Y-52463006D01*
X72390000Y-45109096D02*
X73330452Y-46049548D01*
X74228478Y-46947574D02*
X77863006Y-50582102D01*
X75982102Y-52463006D02*
X77863006Y-50582102D01*
D13*
%TO.C,RV2*%
X74000000Y-55750000D02*
X86000000Y-55750000D01*
X74000000Y-73750000D02*
X74000000Y-55750000D01*
X86000000Y-55750000D02*
X86000000Y-73750000D01*
X86000000Y-73750000D02*
X74000000Y-73750000D01*
D12*
%TO.C,D2*%
X68689453Y-50452421D02*
X68360648Y-50781226D01*
X70545608Y-48596266D02*
X70216803Y-48925071D01*
X70432694Y-49140962D02*
G75*
G02*
X73621456Y-52329118I830627J-2357977D01*
G01*
X70545488Y-48596386D02*
G75*
G02*
X73998864Y-52705962I717833J-2902553D01*
G01*
X72093500Y-53857075D02*
G75*
G02*
X68905343Y-50668312I-830179J2358136D01*
G01*
X72470344Y-54234482D02*
G75*
G02*
X68360768Y-50781106I-1207023J2735543D01*
G01*
%TO.C,PIEZO1*%
X62828000Y-55904001D02*
G75*
G02*
X62828000Y-58904000I-6400000J-1499999D01*
G01*
X62658000Y-57404000D02*
G75*
G02*
X50198000Y-57404000I-6230000J0D01*
G01*
X50198000Y-57404000D02*
G75*
G02*
X62658000Y-57404000I6230000J0D01*
G01*
D13*
%TO.C,RV1*%
X27000000Y-55750000D02*
X39000000Y-55750000D01*
X27000000Y-73750000D02*
X27000000Y-55750000D01*
X39000000Y-55750000D02*
X39000000Y-73750000D01*
X39000000Y-73750000D02*
X27000000Y-73750000D01*
D12*
%TO.C,R5*%
X41142742Y-66400000D02*
X41142742Y-63600000D01*
X45342742Y-66400000D02*
X45342742Y-63600000D01*
X41142742Y-63600000D02*
G75*
G02*
X45351984Y-63613963I2100000J-1400000D01*
G01*
X45342742Y-66400000D02*
G75*
G02*
X41133500Y-66386037I-2100000J1400000D01*
G01*
%TO.C,R2*%
X68512000Y-63600000D02*
X68512000Y-66400000D01*
X72712000Y-63600000D02*
X72712000Y-66400000D01*
X68512000Y-63600000D02*
G75*
G02*
X72721242Y-63613963I2100000J-1400000D01*
G01*
X72712000Y-66400000D02*
G75*
G02*
X68502758Y-66386037I-2100000J1400000D01*
G01*
D13*
%TO.C,J2*%
X50519250Y-49837500D02*
X50519250Y-38837500D01*
X62519250Y-38837500D02*
X50519250Y-38837500D01*
X62519250Y-49837500D02*
X50519250Y-49837500D01*
X62519250Y-49837500D02*
X62519250Y-38837500D01*
D14*
X56619250Y-50537500D02*
G75*
G02*
X56419250Y-50537500I-100000J0D01*
G01*
X56419250Y-50537500D02*
G75*
G02*
X56619250Y-50537500I100000J0D01*
G01*
%TD*%
M02*
