M48
; DRILL file {KiCad 9.0.1} date 2025-04-22T23:28:11+0200
; FORMAT={-:-/ absolute / metric / decimal}
; #@! TF.CreationDate,2025-04-22T23:28:11+02:00
; #@! TF.GenerationSoftware,Kicad,Pcbnew,9.0.1
; #@! TF.FileFunction,Plated,1,2,PTH
FMAT,2
METRIC
; #@! TA.AperFunction,Plated,PTH,ComponentDrill
T1C0.800
; #@! TA.AperFunction,Plated,PTH,ComponentDrill
T2C0.900
; #@! TA.AperFunction,Plated,PTH,ComponentDrill
T3C1.000
; #@! TA.AperFunction,Plated,PTH,ComponentDrill
T4C1.100
; #@! TA.AperFunction,Plated,PTH,ComponentDrill
T5C1.200
%
G90
G05
T1
X39.25Y-60.13
X39.25Y-67.75
X43.243Y-63.5
X43.243Y-66.5
X60.5Y-64.38
X60.5Y-72.0
X67.31Y-59.944
X67.31Y-67.564
X70.612Y-63.5
X70.612Y-66.5
X74.5Y-59.63
X74.5Y-67.25
T2
X39.459Y-53.791
X40.986Y-52.264
X42.512Y-50.738
X44.039Y-49.211
X68.973Y-49.209
X70.5Y-50.736
X72.027Y-52.262
X73.553Y-53.789
T3
X42.908Y-56.914
X44.704Y-55.118
X46.5Y-53.322
X49.0Y-54.44
X49.0Y-56.98
X49.0Y-59.52
X49.0Y-62.06
X49.0Y-64.6
X49.0Y-67.14
X49.0Y-69.68
X49.0Y-72.22
X49.0Y-74.76
X49.0Y-77.3
X49.0Y-79.84
X49.0Y-82.38
X49.0Y-84.92
X49.0Y-87.46
X49.0Y-90.0
X53.928Y-57.404
X56.002Y-67.986
X57.798Y-66.19
X58.928Y-57.404
X64.24Y-54.44
X64.24Y-56.98
X64.24Y-59.52
X64.24Y-62.06
X64.24Y-64.6
X64.24Y-67.14
X64.24Y-69.68
X64.24Y-72.22
X64.24Y-74.76
X64.24Y-77.3
X64.24Y-79.84
X64.24Y-82.38
X64.24Y-84.92
X64.24Y-87.46
X64.24Y-90.0
X72.39Y-46.99
X74.186Y-48.786
X75.982Y-50.582
T4
X40.75Y-77.0
X40.75Y-83.5
X45.25Y-77.0
X45.25Y-83.5
X57.0Y-53.2
X57.0Y-60.8
X67.5Y-77.0
X67.5Y-83.5
X72.0Y-77.0
X72.0Y-83.5
T5
X33.0Y-59.75
X33.0Y-64.75
X33.0Y-69.75
X80.0Y-59.75
X80.0Y-64.75
X80.0Y-69.75
T1
G00X51.519Y-47.688
M15
G01X51.519Y-46.987
M16
G05
G00X54.019Y-47.688
M15
G01X54.019Y-46.987
M16
G05
G00X56.869Y-42.337
M15
G01X56.169Y-42.337
M16
G05
G00X59.019Y-47.688
M15
G01X59.019Y-46.987
M16
G05
G00X61.519Y-47.688
M15
G01X61.519Y-46.987
M16
G05
M30
